<svg xmlns="http://www.w3.org/2000/svg" viewBox="0 0 20 20"><defs><style>.cls-1{fill:#e46a76;}.cls-2{fill:#fff;}</style></defs><title>bug circle icon</title><g id="Layer_2" data-name="Layer 2"><g id="Layer_1-2" data-name="Layer 1"><circle class="cls-1" cx="10" cy="10" r="10"/><path class="cls-2" d="M14,8.66H6a.24.24,0,0,1-.24-.24V6.17a.24.24,0,0,1,.48,0v2h7.6v-2a.24.24,0,0,1,.48,0V8.42A.24.24,0,0,1,14,8.66Z"/><path class="cls-2" d="M10,7.26a2.94,2.94,0,0,0-.24,5.88V9.28a.24.24,0,0,1,.48,0v3.86A2.94,2.94,0,0,0,10,7.26Z"/><path class="cls-2" d="M9.76,11.77H6a.24.24,0,0,0-.24.24v2.25a.24.24,0,0,0,.48,0v-2H9.76Z"/><path class="cls-2" d="M14,11.77h-3.8v.48H13.8v2a.24.24,0,0,0,.48,0V12A.24.24,0,0,0,14,11.77Z"/><path class="cls-2" d="M9.67,7.74a.25.25,0,0,1-.18-.08L7.86,5.9a.24.24,0,0,1,0-.34.23.23,0,0,1,.33,0L9.84,7.34a.23.23,0,0,1,0,.33A.23.23,0,0,1,9.67,7.74Z"/><path class="cls-2" d="M10.33,7.74a.23.23,0,0,1-.16-.07.23.23,0,0,1,0-.33L11.8,5.57a.24.24,0,0,1,.33,0,.24.24,0,0,1,0,.34L10.51,7.66A.25.25,0,0,1,10.33,7.74Z"/></g></g></svg>