<svg xmlns="http://www.w3.org/2000/svg" viewBox="0 0 22 22.02"><defs><style>.cls-1{fill:#fff;}</style></defs><title>Dashboard</title><g id="Layer_2" data-name="Layer 2"><g id="Layer_1-2" data-name="Layer 1"><path class="cls-1" d="M21.19,9.89H12.91a.8.8,0,0,1-.8-.8V.81a.8.8,0,0,1,.8-.81h8.28A.81.81,0,0,1,22,.81V9.09A.8.8,0,0,1,21.19,9.89ZM13.72,8.28h6.66V1.62H13.72Z"/><rect class="cls-1" width="9.89" height="9.89" rx="1"/><path class="cls-1" d="M0,21.21V12.93a.81.81,0,0,1,.81-.81H9.09a.8.8,0,0,1,.8.81v8.28a.81.81,0,0,1-.8.81H.81A.81.81,0,0,1,0,21.21Zm8.28-7.47H1.62V20.4H8.28Z"/><rect class="cls-1" x="12.11" y="12.12" width="9.89" height="9.89" rx="1" transform="translate(34.11 34.14) rotate(-180)"/></g></g></svg>