<?xml version="1.0" encoding="utf-8"?>
<!-- Generator: Adobe Illustrator 24.0.0, SVG Export Plug-In . SVG Version: 6.00 Build 0)  -->
<svg version="1.1" id="Layer_1" xmlns="http://www.w3.org/2000/svg" xmlns:xlink="http://www.w3.org/1999/xlink" x="0px" y="0px"
	 viewBox="0 0 116.8 115" style="enable-background:new 0 0 116.8 115;" xml:space="preserve">
<style type="text/css">
	.st0{fill:#75ABD8;}
	.st1{fill:#CDCCEC;}
	.st2{fill:#F7F6F1;}
	.st3{fill:#FDD247;}
	.st4{fill:#FAB68A;}
	.st5{fill:#FFFFFF;}
	.st6{fill:#CC346F;}
	.st7{fill:#6DA6C7;}
	.st8{fill:#D4824B;}
	.st9{fill:#FFD573;}
	.st10{fill:#FF9C5A;}
	.st11{clip-path:url(#SVGID_2_);}
	.st12{fill:#91BEE8;}
	.st13{fill:#EA5B0C;}
	.st14{fill:#FFB68E;}
	.st15{fill:#F1D2B6;}
	.st16{fill:#005781;}
	.st17{fill:#007AA9;}
	.st18{fill:#FA5770;}
	.st19{fill:#172755;}
	.st20{fill:#1F1C38;}
</style>
<title>due today image</title>
<g id="Layer_2_1_">
	<g id="Layer_1-2">
		<path class="st0" d="M98.7,111.5c-0.1,0-0.2,0-0.3-0.2l-6.7-14.9c0-0.1,0-0.1,0-0.2c0-0.1,0.1-0.1,0.1-0.1l10.3-4.7
			c0.1,0,0.1,0,0.2,0l2.7,0.8c0.1,0,0.1,0.1,0.2,0.2l6,13.3c0.1,0.1,0,0.3-0.1,0.3L98.7,111.5L98.7,111.5z M92.3,96.5l6.5,14.4
			l11.8-5.3l-5.8-12.9l-2.5-0.7L92.3,96.5z"/>
		<path class="st0" d="M102.6,94.7c0,0-0.1,0-0.2,0c-0.1,0-0.2-0.1-0.2-0.2l-0.2-2.8c0-0.1,0-0.2,0.1-0.2c0.1,0,0.2,0,0.2,0l2.7,0.8
			c0.1,0,0.2,0.1,0.2,0.2c0,0.1,0,0.2-0.1,0.3l-2.5,2L102.6,94.7z M102.6,92l0.2,1.9l1.7-1.4L102.6,92z"/>
		<path class="st0" d="M98.8,108.1c-0.1,0-0.2,0-0.3-0.2c-0.1-0.1,0-0.3,0.1-0.3l9-4.1c0.1-0.1,0.3,0,0.3,0.1c0,0,0,0,0,0
			c0.1,0.1,0,0.3-0.1,0.3c0,0,0,0,0,0L98.8,108.1L98.8,108.1z"/>
		<path class="st0" d="M98,106.2c-0.1,0-0.2,0-0.3-0.2c-0.1-0.1,0-0.3,0.1-0.3l9-4.1c0.1-0.1,0.3,0,0.4,0.1c0.1,0.1,0,0.3-0.1,0.4
			l0,0L98,106.2L98,106.2z"/>
		<path class="st0" d="M97.1,104.3c-0.1,0-0.2,0-0.3-0.2c-0.1-0.1,0-0.3,0.1-0.3l9-4.1c0.1-0.1,0.3,0,0.4,0.1c0.1,0.1,0,0.3-0.1,0.4
			l0,0L97.1,104.3L97.1,104.3z"/>
		<path class="st0" d="M96.3,102.4c-0.1,0-0.3,0-0.3-0.2s0-0.3,0.2-0.3l0,0l9-4.1c0.1-0.1,0.3,0,0.4,0.1c0.1,0.1,0,0.3-0.1,0.4l0,0
			L96.3,102.4L96.3,102.4z"/>
		<path class="st0" d="M95.4,100.6c-0.1,0-0.3,0-0.3-0.2s0-0.3,0.2-0.3l0,0l9-4.1c0.1-0.1,0.3,0,0.3,0.1c0.1,0.1,0,0.3-0.1,0.3
			c0,0,0,0,0,0L95.4,100.6L95.4,100.6z"/>
		<path class="st0" d="M96.9,97.6c-0.1,0-0.2,0-0.3-0.2c-0.1-0.1,0-0.3,0.1-0.3l4.3-2c0.1-0.1,0.3,0,0.3,0.1c0.1,0.1,0,0.3-0.1,0.3
			c0,0,0,0,0,0L96.9,97.6L96.9,97.6z"/>
		<path class="st1" d="M39,6.1c-0.1,0.2-1.7,2.4-1.7,2.4l2.1,2l-0.8,1.9l-3.3,0.4l-0.3,3l2.5,0.5l0.4,2.1l-2.3,1.8l0.8,2l2.8-0.4
			L41,24l-1.1,2.6l1.8,1.3l2.3-1.9l2.5,1.1l0.2,2.8l2.3,0.3l1.1-2.6l2.7-0.7l1.8,2.1l2.3-1.2l-0.5-2.7l2.2-1.9l2.6,0.9
			c0,0,1.2-1.7,1.4-1.9l-2-2l0.7-2.3l2.9-0.2l0.5-2.8l-3.3-0.7c0,0-0.5-1.9-0.6-2.5l3.5-2.2l-0.6-1.9c-0.1-0.2-0.2-0.3-0.3-0.4
			l-3.7,1.3l-1.5-1.6l1.6-3c0,0-0.5-0.4-1.1-0.8s-1.2-0.7-1.2-0.7l-2.3,2.5L53,3.9l-0.2-3.9C52.7,0,52.5,0,52.3,0l-2,0.1
			c-0.3,1.3-0.5,2.6-0.8,4c-0.7,0.1-2.6,0.3-2.6,0.3L45,1.7l-2.2,1l0.5,3.4l-1.9,1.5L39,6.1z"/>
		<ellipse transform="matrix(0.67 -0.7423 0.7423 0.67 5.1522 42.4748)" class="st2" cx="50.4" cy="15.4" rx="7" ry="6.5"/>
		<ellipse transform="matrix(0.67 -0.7423 0.7423 0.67 5.1633 42.4626)" class="st1" cx="50.3" cy="15.4" rx="5.8" ry="5.5"/>
		<path class="st3" d="M42.9,28c-0.3-0.2-3.8-3-3.8-3l-3.7,3.2l-3.2-1.4l-0.1-5.4L27,20.6l-1.3,4L22,25.1l-2.8-3.8l-3.6,1.1l0.3,4.4
			l-3.8,2.4l-4.3-2l-2.6,2.7L8,33.9l-2.3,3.9H1l-1,3.6l4.3,2L5,47.7l-3.8,2.6L2.9,54l4.7-0.5l3,3.7l-1.9,4c0,0,2.8,2.1,3,2.4l3.6-3
			l3.8,1.5L19,66.7l4.8,1.1l1.6-5.1c0,0,3.3-0.6,4.4-0.7l3.2,5.7l3.4-0.8c0.3-0.1,0.5-0.2,0.8-0.4l-1.6-6l3-2.3l4.8,2.8
			c0,0,0.8-0.8,1.6-1.7s1.4-1.8,1.4-1.8l-3.9-3.8l1.8-3.3l6.6,0.2c0.1-0.3,0.2-0.5,0.2-0.8c0-1.1,0.1-2.2,0.1-3.3l-6.6-1.7
			c-0.1-1.1-0.2-4.2-0.2-4.2l5-2.5l-1.4-3.6l-5.9,0.4L40,31.6L42.9,28z"/>
		
			<ellipse transform="matrix(0.2418 -0.9703 0.9703 0.2418 -24.6625 58.5827)" class="st2" cx="25.2" cy="45.1" rx="10.7" ry="11.6"/>
		<ellipse transform="matrix(0.2418 -0.9703 0.9703 0.2418 -24.6075 58.6064)" class="st3" cx="25.2" cy="45" rx="9" ry="9.7"/>
		<path class="st4" d="M114.9,33.7c-1,0-1.9-0.8-1.9-1.9c0-1,0.8-1.9,1.9-1.9c1,0,1.9,0.8,1.9,1.9c0,0,0,0,0,0
			C116.8,32.8,115.9,33.7,114.9,33.7z M114.9,30.7c-0.6-0.1-1.1,0.4-1.2,1c-0.1,0.6,0.4,1.1,1,1.2c0.1,0,0.1,0,0.2,0
			c0.6-0.1,1-0.6,1-1.2C115.8,31.2,115.4,30.8,114.9,30.7z"/>
		<path class="st3" d="M19.4,106.7c1.9,5.6,8,8.5,13.6,6.5c5.6-1.9,8.5-8,6.5-13.6c-1.9-5.6-8-8.5-13.6-6.5c0,0,0,0,0,0
			C20.3,95.1,17.4,101.2,19.4,106.7z M22.3,105.7c-1.4-4,0.6-8.3,4.6-9.7c4-1.4,8.3,0.6,9.7,4.6c1.4,4-0.6,8.3-4.6,9.7c0,0,0,0,0,0
			C28,111.7,23.6,109.7,22.3,105.7L22.3,105.7z"/>
		<path class="st5" d="M23.1,107.5c2.4,3.5,7.1,4.4,10.5,2c3.5-2.4,4.4-7.1,2-10.5c-1.7-2.5-4.7-3.7-7.6-3.2l-1-2.9
			c5.7-1.3,11.4,2.3,12.7,8c1.3,5.7-2.3,11.4-8,12.7c-4.5,1-9.2-1-11.5-5L23.1,107.5z"/>
		<path class="st6" d="M22.3,100.4c-1-0.4-1.9-0.7-2.9-1.1c1.1-2.9,3.5-5.2,6.4-6.2l0.3-0.1l1,2.9L26.9,96
			C24.8,96.8,23.1,98.4,22.3,100.4z"/>
		<path class="st0" d="M9.4,83.6c-0.3,0-0.6-0.2-0.6-0.6v-2.8c0-0.3,0.3-0.6,0.6-0.6c0.3,0,0.6,0.3,0.6,0.6v2.8
			C9.9,83.4,9.7,83.6,9.4,83.6z"/>
		<path class="st0" d="M10.8,82.2H8c-0.3,0-0.6-0.2-0.6-0.6c0-0.3,0.3-0.6,0.6-0.6h2.8c0.3,0,0.6,0.3,0.6,0.6
			C11.4,82,11.1,82.2,10.8,82.2C10.8,82.2,10.8,82.2,10.8,82.2z"/>
		<path class="st0" d="M106.8,9.4c-0.3,0-0.6-0.3-0.6-0.6V6.1c0-0.3,0.3-0.6,0.6-0.6c0.3,0,0.6,0.3,0.6,0.6l0,0v2.8
			C107.4,9.2,107.1,9.4,106.8,9.4C106.8,9.4,106.8,9.4,106.8,9.4z"/>
		<path class="st0" d="M108.2,8h-2.8c-0.3,0-0.6-0.3-0.6-0.6c0-0.3,0.2-0.6,0.6-0.6h2.8c0.3,0,0.6,0.3,0.6,0.6
			C108.8,7.7,108.5,8,108.2,8z"/>
		<path class="st7" d="M112.5,27.8C112.5,27.8,112.4,27.8,112.5,27.8c-0.2-0.3-0.3-0.4-0.4-0.6c0,0,0-0.1,0-0.1c0,0,0.1,0,0.1,0
			c0.1,0.2,0.2,0.4,0.3,0.6C112.6,27.6,112.6,27.7,112.5,27.8L112.5,27.8z"/>
		<path class="st7" d="M111.6,26.1C111.6,26.1,111.6,26.1,111.6,26.1c-0.3-0.4-0.5-0.8-0.7-1.1c0,0,0-0.1,0-0.1c0,0,0.1,0,0.2,0
			c0.2,0.4,0.4,0.7,0.6,1.1C111.7,26,111.7,26,111.6,26.1L111.6,26.1z M110.3,23.9C110.3,23.9,110.2,23.9,110.3,23.9
			c-0.3-0.4-0.6-0.8-0.8-1.1c0,0,0-0.1,0-0.1c0,0,0.1,0,0.1,0c0,0,0,0,0,0l0.7,1.1C110.4,23.7,110.4,23.8,110.3,23.9
			C110.4,23.9,110.3,23.9,110.3,23.9z M108.8,21.8C108.8,21.8,108.8,21.8,108.8,21.8c-0.3-0.3-0.6-0.7-0.9-1c0,0,0-0.1,0-0.1
			c0,0,0.1,0,0.2,0l0.8,1C108.9,21.7,108.9,21.7,108.8,21.8L108.8,21.8z M107.2,19.8C107.2,19.8,107.2,19.8,107.2,19.8
			c-0.4-0.3-0.7-0.6-0.9-1c0,0,0-0.1,0-0.1c0,0,0,0,0,0c0,0,0.1,0,0.1,0c0,0,0,0,0,0c0.3,0.3,0.6,0.6,0.9,1
			C107.3,19.7,107.3,19.7,107.2,19.8C107.3,19.8,107.2,19.8,107.2,19.8L107.2,19.8z M105.5,17.9C105.4,17.9,105.4,17.9,105.5,17.9
			l-1-0.9c0,0,0-0.1,0-0.1c0,0,0.1,0,0.1,0l0,0c0.3,0.3,0.6,0.6,0.9,0.9C105.6,17.8,105.6,17.9,105.5,17.9
			C105.5,17.9,105.5,17.9,105.5,17.9L105.5,17.9z M103.6,16.1C103.6,16.2,103.5,16.2,103.6,16.1c-0.4-0.3-0.7-0.6-1.1-0.8
			c0,0,0-0.1,0-0.1c0,0,0.1,0,0.1,0c0.3,0.3,0.7,0.5,1,0.8C103.7,16,103.7,16.1,103.6,16.1C103.7,16.1,103.7,16.1,103.6,16.1
			C103.6,16.2,103.6,16.2,103.6,16.1L103.6,16.1z M101.6,14.5L101.6,14.5l-1.1-0.7c0,0,0-0.1,0-0.1c0,0,0.1,0,0.1,0
			c0.3,0.3,0.7,0.5,1.1,0.8c0,0,0,0.1,0,0.1C101.7,14.6,101.6,14.6,101.6,14.5L101.6,14.5z M99.5,13.1L99.5,13.1
			c-0.4-0.2-0.8-0.5-1.1-0.7c0,0,0-0.1,0-0.1c0,0,0.1,0,0.2,0c0.4,0.2,0.7,0.4,1.1,0.7C99.6,13,99.6,13,99.5,13.1
			C99.5,13.1,99.5,13.1,99.5,13.1L99.5,13.1z M97.3,11.8L97.3,11.8c-0.4-0.2-0.8-0.4-1.1-0.6c0,0-0.1,0-0.2,0s0-0.1,0-0.2
			c0,0,0.1,0,0.1,0l1.1,0.6C97.3,11.6,97.3,11.7,97.3,11.8C97.3,11.8,97.3,11.8,97.3,11.8L97.3,11.8z M95,10.6L95,10.6
			c-0.4-0.2-0.8-0.4-1.2-0.5c-0.1,0-0.1-0.1-0.1-0.1c0,0,0,0,0,0c0,0,0.1-0.1,0.1-0.1c0,0,0,0,0,0c0.4,0.2,0.8,0.3,1.2,0.5
			C95.1,10.5,95.1,10.5,95,10.6C95.1,10.6,95,10.6,95,10.6z M92.6,9.6L92.6,9.6c-0.4-0.2-0.8-0.3-1.2-0.4c-0.1,0-0.1-0.1-0.1-0.1
			c0,0,0,0,0,0c0,0,0-0.1,0.1-0.1l1.2,0.4c0.1,0,0.1,0,0.1,0.1C92.7,9.6,92.7,9.6,92.6,9.6L92.6,9.6z M90.2,8.8L90.2,8.8
			c-0.4-0.1-0.8-0.2-1.2-0.3c-0.1,0-0.1-0.1-0.1-0.1c0-0.1,0.1-0.1,0.1-0.1l1.2,0.4c0.1,0,0.1,0.1,0.1,0.1c0,0,0,0,0,0
			C90.3,8.8,90.2,8.8,90.2,8.8L90.2,8.8z M87.7,8.2L87.7,8.2l-1.3-0.3c-0.1,0-0.1-0.1-0.1-0.1c0,0,0,0,0,0c0-0.1,0.1-0.1,0.1-0.1
			c0.4,0.1,0.8,0.2,1.3,0.3c0.1,0,0.1,0.1,0.1,0.1c0,0,0,0,0,0C87.8,8.1,87.8,8.2,87.7,8.2z M85.2,7.7L85.2,7.7l-1.3-0.2
			c-0.1,0-0.1-0.1-0.1-0.1c0-0.1,0.1-0.1,0.1-0.1c0,0,0,0,0,0l1.3,0.2c0.1,0,0.1,0.1,0.1,0.1C85.3,7.6,85.2,7.7,85.2,7.7z M76.2,7.4
			C76.1,7.4,76.1,7.4,76.2,7.4c-0.1-0.1-0.1-0.2,0-0.2c0,0,0,0,0,0l1.3-0.1c0.1,0,0.1,0,0.1,0.1c0,0.1,0,0.1-0.1,0.1c0,0,0,0,0,0
			L76.2,7.4L76.2,7.4z M82.6,7.4L82.6,7.4c-0.4,0-0.8-0.1-1.3-0.1c-0.1,0-0.1,0-0.1-0.1c0,0,0,0,0,0c0-0.1,0-0.1,0.1-0.1
			c0.4,0,0.9,0,1.3,0.1c0.1,0,0.1,0,0.1,0.1c0,0,0,0,0,0C82.7,7.3,82.7,7.4,82.6,7.4L82.6,7.4z M78.7,7.3c-0.1,0-0.1,0-0.1-0.1
			c0-0.1,0-0.1,0.1-0.1H80c0.1,0,0.1,0,0.1,0.1c0,0,0,0,0,0c0,0,0,0.1-0.1,0.1c0,0,0,0,0,0C79.6,7.3,79.2,7.3,78.7,7.3L78.7,7.3z"/>
		<path class="st7" d="M74.3,7.7C74.2,7.7,74.2,7.6,74.3,7.7c-0.1-0.1-0.1-0.2,0-0.2l0.6-0.1c0,0,0.1,0,0.1,0.1c0,0,0,0,0,0
			c0,0.1,0,0.1-0.1,0.1L74.3,7.7L74.3,7.7z"/>
		<path class="st7" d="M30.7,5.8c0,0-0.1,0-0.1-0.1c0,0,0-0.1,0.1-0.1c0,0,0,0,0,0l0.6-0.2c0.1,0,0.1,0,0.1,0.1c0,0.1,0,0.1-0.1,0.1
			c0,0,0,0,0,0L30.7,5.8L30.7,5.8z"/>
		<path class="st7" d="M7.8,22.7L7.8,22.7c0,0,0-0.1,0-0.1c0.2-0.4,0.4-0.7,0.7-1c0,0,0.1,0,0.1,0c0,0,0,0.1,0,0.1l-0.7,1
			C7.9,22.8,7.9,22.8,7.8,22.7z M9.1,20.7C9.1,20.7,9.1,20.7,9.1,20.7c-0.1,0-0.1-0.1-0.1-0.1c0.2-0.3,0.5-0.7,0.7-1
			c0,0,0.1,0,0.1,0c0,0,0,0.1,0,0.1C9.7,20,9.5,20.4,9.1,20.7C9.2,20.7,9.2,20.7,9.1,20.7L9.1,20.7z M10.6,18.8L10.6,18.8
			c-0.1,0-0.1-0.1-0.1-0.1c0.3-0.3,0.5-0.6,0.8-0.9c0,0,0.1,0,0.1,0c0,0,0,0.1,0,0.1c0,0,0,0,0,0C11.2,18.1,10.9,18.5,10.6,18.8
			C10.7,18.8,10.6,18.8,10.6,18.8L10.6,18.8z M12.2,16.9C12.2,16.9,12.1,16.9,12.2,16.9c-0.1,0-0.1-0.1-0.1-0.1l0.8-0.9
			c0.1,0,0.1,0,0.1,0c0,0,0,0.1,0,0.1C12.8,16.3,12.5,16.6,12.2,16.9C12.2,16.9,12.2,16.9,12.2,16.9L12.2,16.9z M13.9,15.2
			C13.9,15.2,13.8,15.2,13.9,15.2c-0.1,0-0.1-0.1-0.1-0.1c0,0,0,0,0,0l0.9-0.8c0,0,0.1,0,0.1,0c0,0,0,0.1,0,0.1c0,0,0,0,0,0
			L13.9,15.2C13.9,15.2,13.9,15.2,13.9,15.2L13.9,15.2z M15.7,13.6C15.7,13.6,15.6,13.6,15.7,13.6c-0.1,0-0.1-0.1-0.1-0.1l0.9-0.8
			c0.1,0,0.1,0,0.1,0c0,0,0,0.1,0,0.1C16.4,13,16.1,13.3,15.7,13.6C15.7,13.6,15.7,13.6,15.7,13.6L15.7,13.6z M17.6,12
			C17.6,12,17.5,12,17.6,12c-0.1,0-0.1-0.1-0.1-0.1l1-0.7c0,0,0.1,0,0.1,0c0,0,0,0.1,0,0.1C18.4,11.5,18,11.8,17.6,12
			C17.7,12,17.6,12,17.6,12z M19.6,10.6C19.6,10.6,19.5,10.6,19.6,10.6c-0.1-0.1-0.1-0.2-0.1-0.2l1-0.6c0,0,0.1,0,0.1,0
			c0,0,0,0.1,0,0.1L19.6,10.6L19.6,10.6z M21.7,9.4C21.7,9.4,21.6,9.3,21.7,9.4c-0.1-0.1-0.1-0.2-0.1-0.2C22,9,22.3,8.8,22.7,8.6
			c0,0,0.1,0,0.1,0c0,0,0,0.1,0,0.1C22.4,9,22.1,9.1,21.7,9.4L21.7,9.4z M23.9,8.2C23.8,8.2,23.8,8.2,23.9,8.2
			c-0.1-0.1-0.1-0.2-0.1-0.2l1.1-0.5c0.1,0,0.1,0,0.1,0.1c0,0.1,0,0.1-0.1,0.1L23.9,8.2L23.9,8.2z M26.1,7.2c0,0-0.1,0-0.1-0.1
			c0,0,0-0.1,0-0.1l1.1-0.4c0.1,0,0.1,0,0.1,0.1c0,0.1,0,0.1-0.1,0.1c0,0,0,0,0,0L26.1,7.2L26.1,7.2z M28.4,6.4c0,0-0.1,0-0.1-0.1
			c0-0.1,0-0.1,0.1-0.1c0,0,0,0,0,0l1.2-0.4c0.1,0,0.1,0,0.1,0.1c0,0.1,0,0.1-0.1,0.1c0,0,0,0,0,0C29.2,6.1,28.8,6.3,28.4,6.4
			L28.4,6.4z"/>
		<path class="st7" d="M6.9,24.3L6.9,24.3c0,0,0-0.1,0-0.1l0.3-0.5c0,0,0.1-0.1,0.1,0c0,0,0.1,0.1,0,0.1l-0.3,0.5
			C7.1,24.3,7,24.4,6.9,24.3C6.9,24.3,6.9,24.3,6.9,24.3z"/>
		<polygon class="st8" points="71.4,7 85.6,8.1 84.1,5.3 		"/>
		<polygon class="st9" points="71.4,7 84.8,2.5 83.8,6.2 		"/>
		<polygon class="st10" points="71.4,7 83.8,6.2 85.6,8.1 84.4,4.1 		"/>
		<polygon class="st9" points="83.8,6.2 82.4,10.7 71.4,7 		"/>
		<g>
			<defs>
				<circle id="SVGID_1_" cx="65.1" cy="64.3" r="50.7"/>
			</defs>
			<clipPath id="SVGID_2_">
				<use xlink:href="#SVGID_1_"  style="overflow:visible;"/>
			</clipPath>
			<g class="st11">
				<circle class="st0" cx="65.1" cy="66" r="50.1"/>
				<circle class="st2" cx="65.1" cy="65.9" r="46.9"/>
				<rect x="64.2" y="24.5" class="st12" width="1.9" height="6.9"/>
				
					<rect x="80.6" y="32.1" transform="matrix(0.5002 -0.8659 0.8659 0.5002 13.4503 89.3394)" class="st12" width="6.9" height="1.9"/>
				<rect x="94.6" y="46" transform="matrix(0.866 -0.5 0.5 0.866 -10.3374 55.3047)" class="st12" width="6.9" height="1.9"/>
				<rect x="99.6" y="65" class="st12" width="6.9" height="1.9"/>
				<rect x="97.1" y="81.5" transform="matrix(0.5 -0.866 0.866 0.5 -24.5743 127.3804)" class="st12" width="1.9" height="6.9"/>
				
					<rect x="83.2" y="95.4" transform="matrix(0.8659 -0.5002 0.5002 0.8659 -38.1723 55.3214)" class="st12" width="1.9" height="6.9"/>
				<rect x="64.2" y="100.5" class="st12" width="1.9" height="6.9"/>
				<rect x="42.6" y="97.9" transform="matrix(0.5 -0.866 0.866 0.5 -62.588 89.3397)" class="st12" width="6.9" height="1.9"/>
				
					<rect x="28.7" y="84" transform="matrix(0.8661 -0.4998 0.4998 0.8661 -38.1606 27.4528)" class="st12" width="6.9" height="1.9"/>
				<rect x="23.6" y="65" class="st12" width="6.9" height="1.9"/>
				<rect x="31.2" y="43.5" transform="matrix(0.5 -0.866 0.866 0.5 -24.5694 51.3247)" class="st12" width="1.9" height="6.9"/>
				<rect x="45.2" y="29.5" transform="matrix(0.866 -0.5 0.5 0.866 -10.3316 27.4698)" class="st12" width="1.9" height="6.9"/>
				<polygon class="st13" points="48.4,37.9 48.1,38.1 67.3,70.6 67.4,70.7 68.8,69.9 				"/>
				<polygon class="st0" points="79.7,37.9 62.1,70 63.2,70.6 				"/>
				<path class="st0" d="M63.3,66c0-1,0.8-1.8,1.8-1.8c1,0,1.8,0.8,1.8,1.8c0,1-0.8,1.8-1.8,1.8c0,0,0,0,0,0
					C64.1,67.8,63.3,67,63.3,66z"/>
				<g id="dad">
					<path class="st14" d="M30.3,175.3c-0.5-1.4-0.8-2.9-0.9-4.3c-1.3-0.2-2.5-0.1-3.8,0.1c-0.1,0.3,0,3.8,0,3.8L30.3,175.3z"/>
					<path class="st15" d="M37.4,180c0-0.6-0.6-2.7-2-2.8c-2.9-0.1-4.7-1.7-5-3.6c-0.2-1.7-5-1.7-4.9,0.1c0,3.1-2.3,3.8-1.6,6.2
						L37.4,180z"/>
					<path class="st16" d="M37.4,180.4H23.9c-0.3,0-0.5-0.2-0.5-0.5c0-0.3,0.2-0.5,0.5-0.4h13.5c0.3,0,0.5,0.2,0.5,0.5
						C37.9,180.2,37.6,180.4,37.4,180.4C37.4,180.4,37.4,180.4,37.4,180.4z"/>
					<path class="st14" d="M61.2,176.7c-0.4-1.4-0.7-2.8-0.7-4.2c-1.1-0.2-2.3-0.2-3.4,0.1c-0.1,0.3-0.1,3.7-0.1,3.7L61.2,176.7z"/>
					<path class="st15" d="M68.9,181.4c0.3-0.1,0.4-1.4-0.3-2.4c-0.4-0.6-3.4-1-4.8-1.8c-1-0.5-1.8-1.1-2.5-2
						c-0.7-1.5-4.3-1.7-4.4,0.1c-0.2,2.4-0.9,2.8-1.2,3.8c-0.3,1.4,0,1.9,0.3,2C59.4,181.8,67,181.7,68.9,181.4z"/>
					<path class="st16" d="M69,181.8l-13-0.1c-0.2,0-0.4-0.3-0.4-0.5c0-0.2,0.2-0.3,0.4-0.4l13,0.1c0.2,0,0.4,0.2,0.4,0.4
						c0,0,0,0,0,0C69.4,181.7,69.2,181.8,69,181.8z"/>
					<path class="st14" d="M50.4,51.3c-2.7,4.6-5.2,9.4-7.3,14.3c0,0,1.5,6.3,2.4,9.4l-8.3,4.3c0,0-3.6-9.7-2.1-13.1
						c2.1-4.8,9.2-14.3,14.3-15.4C49.8,50.9,50.1,51.1,50.4,51.3z"/>
					<path class="st17" d="M49.6,108.1c-4.5,0.5-8.8,1.1-9,1.3c-3.3-0.7-8.2,13-7.8,34.2c0,2.2-4.6,6-5.1,8
						c-2.5,9.7-2.3,22.8-2.2,23.4c0.4,1.4,4.6,0.6,5.5,0.3c0.2-0.1,7.2-20.4,10.8-28.9c1.3-3.1,6.8-15.4,7.9-18.4L49.6,108.1z"/>
					<path class="st17" d="M41.9,126c0.1-0.2,0.2-0.3,0.3-0.5c0.5,0,3.2,10.7,8.7,22.5c0.6,1.3-1.4,5-1.1,6.4
						c2.3,12.1,6.5,22,7.2,22.4s5.3,0.4,6.3-0.7c0.4-0.4-2.3-23.5-2-27.3c0.7-8.2-5.7-40.7-1.4-39.7c0,0-8.3-1.3-13.7-2.2L41.9,126z
						"/>
					<path class="st14" d="M71.8,58.9c0.1,3.9,0.3,11.5,0.2,12.6c-0.3,2-4.9,1.8-6.4,4.3l4,9.2c0,0,9.3-5,9.3-7.4
						c0-4.4-2.7-13.2-4.8-18.7C74,58.9,71.9,58.8,71.8,58.9z"/>
					<path class="st18" d="M49.6,74.4c1.7,0,4.1,3.2,6.6,2.3c3.3-1,11.5-4.1,12.3-3.6c1.7,1,4.9,10,4.9,10s-9.8,5.5-10.6,5.8
						c-0.2,6.6-1.3,27.1-1.6,28.3c-0.2,0.8-17.5,1-26.3-1.8c-0.4-0.1,2.7-22,2.5-27.5c-0.8-5-3.8-13.5-3.2-17.9
						c2.3-1.5,5.7-3.3,8.8-2.9C44.3,67.4,46,74.5,49.6,74.4z"/>
					<path class="st14" d="M51.3,67.1c1.3,5.6,3.5,8.6,3.3,9.3c-0.7,2.6-7.3,3.4-8.3,0.9c0.3-1,0.2-2.6-1-5.8
						c-0.3-0.8-0.5-1.3-0.8-2C47.8,70.6,51.3,67.1,51.3,67.1z"/>
					<path class="st19" d="M51.7,69.1c-0.1,0-0.2,0-0.4-0.1c-0.2-0.1-0.4-0.3-0.4-0.5L50.4,67c-0.1-0.2,0-0.3,0.2-0.4l2.8-0.9
						c0.1,0,0.2,0,0.2,0c0.1,0,0.1,0.1,0.2,0.2l0.5,1.6c0.2,0.4-0.1,0.9-0.5,1.1c0,0,0,0,0,0L52,69.1C51.9,69.1,51.8,69.1,51.7,69.1
						z M51.1,67.1l0.4,1.3c0,0.1,0.1,0.2,0.2,0.1c0,0,0,0,0,0l1.8-0.6l0,0c0.1,0,0.2-0.2,0.1-0.3l-0.4-1.3L51.1,67.1z"/>
					<path class="st14" d="M51.8,64.4c0.5,1.2,0.8,2.2,1.2,3.3c0.2,0.5,0.3,1,0.5,1.5c0.7,2.4,0.6,4.3-1.5,5.1
						c-3.8,1.5-7.2-8-7.1-8.7S50.9,62.2,51.8,64.4z"/>
					<path class="st19" d="M51,67.1c-0.1,0-0.3-0.1-0.3-0.2c-0.1-0.2,0-0.3,0.2-0.4c0,0,0,0,0,0l1.6-0.5c0.2-0.1,0.3,0,0.4,0.2
						c0,0,0,0,0,0c0,0.2,0,0.3-0.2,0.4l-1.6,0.5L51,67.1z"/>
					<path class="st20" d="M53.3,68.8C53.3,68.7,53.3,68.8,53.3,68.8c1.7,0.3,2.1,2.1,2.1,3c-0.2,1.4-1.5,2.4-2.9,2.2
						c-0.1,0-0.1,0-0.2,0c-2.5-1-0.3-4.8-1.4-6.9c-0.1-0.2,0.8-1,1-0.3C52.5,69.3,53.5,70,53.3,68.8z"/>
					<path class="st20" d="M51.5,65.1c-0.2-1.3,0.7-2.1,0.1-3.8c-0.8-2.5-9.4,2-9.4,5.2c0,2.8,3.2,7.9,4.9,7.5c1.1-0.2,2.5-1,3.3-4
						c0.4-1.5-1.1-3.2-0.5-4s1.3,2.1,1.5,2.4s0.4-0.1,0.5-0.3C52.3,67.5,51.6,66,51.5,65.1z"/>
					<path class="st16" d="M45.8,132.9c-0.1-0.1-0.2-0.2-0.3-0.4c-0.2-0.8-0.6-1.5-1.2-2c-0.9-0.9-1.6-2.1-1.9-3.3
						c-0.1-0.3,0.1-0.6,0.4-0.7c0,0,0,0,0,0c0.3-0.1,0.6,0.1,0.7,0.4c0,0,0,0,0,0c0.3,1.1,0.9,2.1,1.7,2.9c0.7,0.7,1.2,1.6,1.4,2.5
						c0.1,0.3-0.1,0.6-0.4,0.7c0,0,0,0,0,0C46,133,45.9,132.9,45.8,132.9z"/>
					<path class="st14" d="M71.7,58.7c-0.7-0.5-1.4-1-2.2-1.5c-0.4-0.2-0.7-0.4-1-0.8c-0.3-0.4-0.3-0.8,0-1.2
						c1.2,0.8,2.9-0.4,1.5-1.5c0.2,0.1,1.3,0,1.7,0.1c0.7,0.2,1.3,0.5,1.8,1c1,0.8,1.5,2.1,1.2,3.4c-0.1,0.2-0.8,1.8-1,1.7
						C73,59.6,72.3,59.2,71.7,58.7z"/>
					<path class="st14" d="M49.9,52.4c1.1-0.9,2.2-0.6,2.7-0.7c0.8-0.3,1.5-0.7,2.2-1.2c0.4-0.1,0.8-0.3,1.3-0.3
						c0.1-0.1,0.1-0.5-0.5-0.6s-2.1,0.8-2.2,0.2c-0.2-1,3.2-1.4,1.9-3c-0.9-0.7-2.1-1-3.2-1c-1.1,0.2-2,1-2.5,2
						c-0.5,0.8-0.2,2.9-1.4,3.4c-0.8,0.3,1,1,1,1L49.9,52.4z"/>
				</g>
			</g>
		</g>
	</g>
</g>
</svg>
