<svg xmlns="http://www.w3.org/2000/svg" viewBox="0 0 119.34 110"><defs><style>.cls-1{fill:#fab68a;}.cls-2{fill:#75abd8;}.cls-3{fill:#aacef4;}.cls-4{fill:#f3f9ff;}.cls-12,.cls-13,.cls-5,.cls-9{fill:#fff;}.cls-6{fill:#ffcb5d;}.cls-7{fill:#222375;}.cls-8{fill:#feb006;}.cls-10,.cls-9{opacity:0.73;}.cls-11{fill:#4181d8;}.cls-12{opacity:0.77;}.cls-13{opacity:0.87;}.cls-14,.cls-21{opacity:0.1;}.cls-15{fill:#3c95e5;}.cls-16{fill:#ea5b0c;}.cls-17{fill:#fa5770;}.cls-18{fill:#f25574;}.cls-19{fill:#e0e0e0;}.cls-20{fill:#ffb68e;}.cls-22{fill:#1f1c38;}.cls-23{fill:#111451;}.cls-24{fill:#2d368e;}.cls-25{fill:#0053bd;}</style></defs><title>Asset 3</title><g id="Layer_2" data-name="Layer 2"><g id="Layer_1-2" data-name="Layer 1"><path class="cls-1" d="M58,31.79a1.9,1.9,0,1,1,1.89-1.9A1.9,1.9,0,0,1,58,31.79Zm0-2.95a1.06,1.06,0,1,0,1,1.05A1.06,1.06,0,0,0,58,28.84Z"/><path class="cls-2" d="M34.62,52.36a.56.56,0,0,1-.56-.56V49a.56.56,0,1,1,1.12,0V51.8A.56.56,0,0,1,34.62,52.36Z"/><path class="cls-2" d="M36,51H33.21a.56.56,0,0,1-.56-.56.57.57,0,0,1,.56-.57H36a.57.57,0,0,1,.56.57A.56.56,0,0,1,36,51Z"/><path class="cls-2" d="M79,47.51a.57.57,0,0,1-.56-.57V44.12a.56.56,0,0,1,.56-.56.57.57,0,0,1,.57.56v2.82A.58.58,0,0,1,79,47.51Z"/><path class="cls-2" d="M80.39,46.1H77.57a.57.57,0,0,1-.56-.57.56.56,0,0,1,.56-.56h2.82a.57.57,0,0,1,.57.56A.58.58,0,0,1,80.39,46.1Z"/><rect class="cls-3" x="84.68" y="15.44" width="29.16" height="21.47" rx="1.83" transform="translate(4.03 64.5) rotate(-36.69)"/><path class="cls-2" d="M111,30.89a.09.09,0,0,1-.08,0,.1.1,0,0,1,0-.15l4.86-3.62a1.73,1.73,0,0,0,.36-2.42L105.55,10.38a1.75,1.75,0,0,0-1.14-.67,1.73,1.73,0,0,0-1.28.32L88.56,20.89a.1.1,0,0,1-.15,0,.11.11,0,0,1,0-.15L103,9.86a1.94,1.94,0,0,1,2.71.4l10.64,14.27a2,2,0,0,1-.4,2.72l-4.86,3.62Z"/><path class="cls-2" d="M86.76,22.21a.13.13,0,0,1-.09,0,.1.1,0,0,1,0-.15l.93-.7a.12.12,0,0,1,.15,0,.1.1,0,0,1,0,.15l-.93.7Z"/><path class="cls-2" d="M86.86,34a.1.1,0,0,1-.09,0l-4.6-6.18a1.94,1.94,0,0,1,.39-2.72l3.08-2.29a.11.11,0,0,1,.13.17l-3.08,2.29a1.74,1.74,0,0,0-.35,2.42l4.6,6.18a.1.1,0,0,1,0,.15Z"/><path class="cls-2" d="M89.12,37.07A.12.12,0,0,1,89,37l-1.5-2a.1.1,0,0,1,0-.14.1.1,0,0,1,.15,0l1.5,2a.11.11,0,0,1,0,.15Z"/><path class="cls-2" d="M94.37,42.86a1.37,1.37,0,0,1-.29,0,1.89,1.89,0,0,1-1.28-.76l-2.92-3.92a.12.12,0,0,1,0-.15.11.11,0,0,1,.15,0L93,42a1.77,1.77,0,0,0,1.14.67,1.72,1.72,0,0,0,1.28-.32l10.72-8a.1.1,0,0,1,.15,0,.1.1,0,0,1,0,.15l-10.72,8A1.93,1.93,0,0,1,94.37,42.86Z"/><path class="cls-4" d="M95.14,42.23,83.67,26.84s1.75-2,3.21-3.39c3.05-3,17.37-12.83,17.37-12.83L115.72,26S101.51,35.77,98.5,38.69C97,40.14,95.14,42.23,95.14,42.23Z"/><path class="cls-5" d="M95.14,42.27,83.64,26.83h0s1.77-2,3.21-3.39c3-2.93,17.23-12.74,17.37-12.83l0,0v0L115.76,26h0c-.14.1-14.23,9.79-17.21,12.68-1.48,1.43-3.34,3.52-3.36,3.54ZM83.71,26.84,95.15,42.19c.21-.24,1.94-2.17,3.33-3.52C101.41,35.83,115,26.45,115.68,26L104.24,10.65c-.63.44-14.38,9.94-17.34,12.81C85.53,24.79,83.88,26.65,83.71,26.84Z"/><path class="cls-2" d="M112.13,23.89,105.53,15l1.86-1.39L114,22.5Zm-6.3-8.82,6.35,8.52,1.52-1.13-6.35-8.52Z"/><path class="cls-2" d="M102.35,17.7,101,15.93l1.77-1.31,1.32,1.76ZM101.17,16l1.2,1.62L104,16.36l-1.21-1.61Z"/><rect class="cls-2" x="104.77" y="17.92" width="10.84" height="1.05" transform="translate(59.14 -80.93) rotate(53.31)"/><rect class="cls-2" x="102.5" y="22.17" width="10.84" height="0.26" transform="translate(61.32 -77.56) rotate(53.31)"/><rect class="cls-2" x="101.48" y="22.93" width="10.84" height="0.26" transform="translate(61.52 -76.44) rotate(53.31)"/><path class="cls-2" d="M98.61,20.49l-1.32-1.77,1.77-1.31,1.31,1.76Zm-1.19-1.75,1.2,1.62,1.62-1.21L99,17.54Z"/><rect class="cls-2" x="98.76" y="24.97" width="10.84" height="0.26" transform="translate(62.05 -73.43) rotate(53.31)"/><rect class="cls-2" x="97.74" y="25.72" width="10.84" height="0.26" transform="translate(62.25 -72.31) rotate(53.31)"/><path class="cls-2" d="M94.86,23.28l-1.32-1.77,1.77-1.31L96.63,22Zm-1.19-1.75,1.21,1.62,1.62-1.21-1.21-1.61Z"/><rect class="cls-2" x="95.01" y="27.76" width="10.84" height="0.26" transform="translate(62.78 -69.31) rotate(53.31)"/><rect class="cls-2" x="93.99" y="28.52" width="10.84" height="0.26" transform="translate(62.98 -68.18) rotate(53.31)"/><path class="cls-2" d="M91.12,26.07,89.8,24.3,91.57,23l1.31,1.76Zm-1.19-1.75,1.2,1.62,1.62-1.2-1.2-1.62Z"/><rect class="cls-2" x="91.27" y="30.55" width="10.84" height="0.26" transform="translate(63.51 -65.18) rotate(53.31)"/><rect class="cls-2" x="90.25" y="31.31" width="10.84" height="0.26" transform="translate(63.71 -64.06) rotate(53.31)"/><path class="cls-2" d="M87.37,28.86,86.05,27.1l1.77-1.32,1.32,1.77Zm-1.19-1.75,1.21,1.62L89,27.53,87.8,25.91Z"/><rect class="cls-2" x="87.52" y="33.34" width="10.84" height="0.26" transform="translate(64.24 -61.05) rotate(53.31)"/><rect class="cls-2" x="86.5" y="34.1" width="10.84" height="0.26" transform="translate(64.44 -59.93) rotate(53.31)"/><path class="cls-6" d="M55.81,20.46c.83-.8,5.64-1.8,7.07-4.55A7.18,7.18,0,0,0,50.29,9c-1.66,2.86.38,7.23.17,8.65a8.5,8.5,0,0,1-.59,1.71l5,2.57A7.5,7.5,0,0,1,55.81,20.46Z"/><path class="cls-2" d="M49.87,19.36c-.6,1.38-1.42,2.93-1.42,2.93a2.82,2.82,0,0,0,.76,3.24,2.77,2.77,0,0,0,4.14-.64s.73-1.63,1.47-3Z"/><path class="cls-7" d="M49.31,20.06l5.28,2.75Z"/><path class="cls-3" d="M54.59,23l-.06,0-5.29-2.74a.14.14,0,0,1,.13-.25l5.29,2.74a.14.14,0,0,1,.06.19A.16.16,0,0,1,54.59,23Z"/><path class="cls-7" d="M48.94,20.77l5.29,2.74Z"/><path class="cls-3" d="M54.23,23.66l-.07,0L48.88,20.9a.15.15,0,1,1,.13-.26l5.28,2.75a.14.14,0,0,1,.06.19A.13.13,0,0,1,54.23,23.66Z"/><path class="cls-7" d="M48.58,21.48l5.28,2.74Z"/><path class="cls-3" d="M53.86,24.36h-.07l-5.28-2.74a.15.15,0,0,1-.06-.2.14.14,0,0,1,.19-.06l5.28,2.74a.16.16,0,0,1,.07.2A.15.15,0,0,1,53.86,24.36Z"/><path class="cls-7" d="M48.21,22.18l5.28,2.75Z"/><path class="cls-3" d="M53.49,25.07a.07.07,0,0,1-.06,0l-5.29-2.74a.14.14,0,0,1-.06-.19.14.14,0,0,1,.19-.06l5.29,2.74a.14.14,0,0,1,.06.19A.16.16,0,0,1,53.49,25.07Z"/><path class="cls-7" d="M47.84,22.89l5.28,2.74Z"/><path class="cls-3" d="M53.12,25.78l-.06,0L47.78,23a.14.14,0,0,1-.07-.19.16.16,0,0,1,.2-.07l5.28,2.75a.14.14,0,0,1-.07.27Z"/><path class="cls-8" d="M52.52,20.75l-.32-.19c.34-.84,1.26-5.17,1.81-7.76.22-1,.38-1.78.42-2a1.94,1.94,0,0,1,.92-1,1.62,1.62,0,0,1,1.31-.11,1,1,0,0,1,.68.88,1.28,1.28,0,0,1,1.58.38,2.2,2.2,0,0,1-.29,2.5C58.19,14.06,52.75,20.48,52.52,20.75ZM56.12,10a1.23,1.23,0,0,0-.6.16,1.61,1.61,0,0,0-.73.76c0,.17-.21,1-.42,1.94-.44,2.09-1.13,5.31-1.56,6.94,1.46-1.71,5.18-6.1,5.53-6.55a1.86,1.86,0,0,0,.27-2.06A.93.93,0,0,0,57.37,11a3.28,3.28,0,0,1-.14.82c-.21.68-.64,1.36-1.1,1.24a.39.39,0,0,1-.28-.34,2.3,2.3,0,0,1,1-1.86l.14-.09a.76.76,0,0,0-.45-.7A1.54,1.54,0,0,0,56.12,10Zm.11,2.7c.11,0,.44-.34.64-1a3.72,3.72,0,0,0,.11-.48,2.15,2.15,0,0,0-.76,1.26A.38.38,0,0,0,56.23,12.72Z"/><path class="cls-8" d="M62.3,1.43,61,3.86Z"/><rect class="cls-8" x="60.3" y="2.49" width="2.74" height="0.31" transform="translate(30.92 56.16) rotate(-62.57)"/><path class="cls-8" d="M58,0l-.35,2.72Z"/><rect class="cls-8" x="56.46" y="1.22" width="2.74" height="0.31" transform="translate(48.99 58.55) rotate(-82.57)"/><path class="cls-8" d="M53.5.17l.59,2.67Z"/><rect class="cls-8" x="53.64" y="0.14" width="0.31" height="2.74" transform="translate(0.96 11.75) rotate(-12.57)"/><path class="cls-8" d="M49.3,1.85l1.48,2.31Z"/><rect class="cls-8" x="49.89" y="1.64" width="0.31" height="2.74" transform="translate(6.25 27.41) rotate(-32.57)"/><path class="cls-8" d="M45.94,4.87l2.18,1.66Z"/><rect class="cls-8" x="46.87" y="4.33" width="0.31" height="2.74" transform="translate(13.92 39.58) rotate(-52.57)"/><path class="cls-8" d="M65.47,3.89l-2,1.86Z"/><rect class="cls-8" x="63.09" y="4.66" width="2.74" height="0.31" transform="translate(13.73 44.88) rotate(-42.57)"/><path class="cls-8" d="M68,7.67,65.42,8.72Z"/><rect class="cls-8" x="65.31" y="8.04" width="2.74" height="0.31" transform="translate(1.96 26.22) rotate(-22.57)"/><path class="cls-8" d="M69,12.07l-2.74.12Z"/><rect class="cls-8" x="66.25" y="11.97" width="2.74" height="0.31" transform="translate(-0.48 3.05) rotate(-2.57)"/><path class="cls-8" d="M68.46,16.55l-2.62-.82Z"/><rect class="cls-8" x="66.99" y="14.77" width="0.31" height="2.74" transform="translate(31.63 75.37) rotate(-72.57)"/><rect class="cls-2" x="111.78" y="70.77" width="11.6" height="0.56" transform="translate(18.54 166.26) rotate(-75.02)"/><rect class="cls-2" x="111.27" y="69.7" width="9.97" height="1.98" transform="translate(17.91 164.72) rotate(-75.02)"/><rect class="cls-2" x="84.88" y="63.57" width="11.6" height="0.56" transform="translate(5.56 134.94) rotate(-75.02)"/><rect class="cls-2" x="87.01" y="63.21" width="9.97" height="1.98" transform="translate(6.19 136.47) rotate(-75.02)"/><path class="cls-9" d="M94.07,60.69l-2,7.59c-.05.19,0,.37.14.41l7.57,2h0l.14,0c1.49.4,3.12-.76,3.89-2.65.06-.16.19-.25.31-.22h0a.29.29,0,0,1,.15.35c-.28,2,.56,3.84,2.05,4.23l.14,0h0l7.57,2c.13,0,.28-.1.33-.29l2-7.58c0-.19,0-.38-.15-.41l-7.56-2h0l-.14,0c-1.49-.4-3.13.76-3.89,2.65-.07.16-.2.26-.31.23h0c-.12,0-.18-.18-.16-.35.28-2-.55-3.84-2-4.24l-.15,0h0l-7.56-2C94.27,60.37,94.12,60.5,94.07,60.69Z"/><g class="cls-10"><path class="cls-11" d="M104.87,71.26a.11.11,0,0,1-.06.07.13.13,0,0,1-.18,0,4.37,4.37,0,0,1-.45-1.16.14.14,0,0,1,.1-.16.13.13,0,0,1,.16.1,3.75,3.75,0,0,0,.42,1.09A.11.11,0,0,1,104.87,71.26Z"/></g><g class="cls-10"><path class="cls-11" d="M104.33,69.37a.13.13,0,0,1-.11.09.13.13,0,0,1-.15-.11,3,3,0,0,1,0-1l0-.15c0-.12,0-.2-.06-.21s-.12,0-.16.15a4.92,4.92,0,0,1-1.72,2.24,2.79,2.79,0,0,1-2.32.49h0l-2.76-.73A.13.13,0,0,1,97,70a.13.13,0,0,1,.16-.1l2.51.67h0l.13,0,.14,0a2.54,2.54,0,0,0,2.1-.45,4.74,4.74,0,0,0,1.63-2.13.37.37,0,1,1,.71.2l0,.14a2.9,2.9,0,0,0,0,.93Z"/></g><g class="cls-10"><path class="cls-11" d="M96.48,69.84a.12.12,0,0,1-.16.09l-1.12-.3a.13.13,0,0,1,.07-.25l1.12.3A.13.13,0,0,1,96.48,69.84Z"/></g><g class="cls-10"><path class="cls-11" d="M111.91,65.09a.14.14,0,0,1-.16.1l-3-.81h0l-.13,0-.14,0a2.56,2.56,0,0,0-2.11.45,4.69,4.69,0,0,0-1.62,2.12.37.37,0,1,1-.72-.19,4.73,4.73,0,0,0-.34-2.65,2.55,2.55,0,0,0-1.61-1.44l-.13,0-.14,0v0l-7.43-2c-.05,0-.14.06-.17.2l-2,7.58c0,.13,0,.24,0,.25l2.4.65a.14.14,0,0,1,.1.16.13.13,0,0,1-.16.09l-2.41-.65a.44.44,0,0,1-.24-.57l2-7.58a.44.44,0,0,1,.49-.38l7.69,2.06h0a2.85,2.85,0,0,1,1.77,1.58,5,5,0,0,1,.37,2.8c0,.12,0,.2.06.21s.11,0,.16-.15a5,5,0,0,1,1.72-2.24,2.81,2.81,0,0,1,2.32-.48h0l3.26.87A.13.13,0,0,1,111.91,65.09Z"/></g><g class="cls-10"><path class="cls-11" d="M113.21,65.44a.13.13,0,0,1-.16.09l-.56-.15a.12.12,0,0,1-.09-.16.14.14,0,0,1,.16-.09l.56.15A.13.13,0,0,1,113.21,65.44Z"/></g><g class="cls-10"><path class="cls-11" d="M116.35,66.66l-2,7.58a.44.44,0,0,1-.49.38l-7.69-2.06h0a2.55,2.55,0,0,1-1.33-.88.12.12,0,0,1,0-.18.12.12,0,0,1,.18,0,2.27,2.27,0,0,0,1.2.79l.14,0,.13,0h0l7.44,2s.13-.06.17-.2l2-7.58c0-.14,0-.24,0-.25l-2.4-.64a.13.13,0,0,1-.09-.16.14.14,0,0,1,.16-.1l2.39.64A.45.45,0,0,1,116.35,66.66Z"/></g><path class="cls-3" d="M113.85,73.78a8.5,8.5,0,0,0-.67-2.32c-1.55-1.86-8.36-3.66-8.45-3.85.17-.12,6.34,1.59,8.47,1a11.94,11.94,0,0,0,2.51-1.81Zm-10.18-6.45a1.08,1.08,0,0,0-.42.53,4,4,0,0,1-1.56,2,2.16,2.16,0,0,1-1.14.32c-.43,0-.8-.22-1.22-.25S96.08,69,95.8,69a8.79,8.79,0,0,0,1.1-3.43,11.15,11.15,0,0,0-.6-3.9l3.89,1c.38.1.75.23,1.13.35a5.47,5.47,0,0,1,1,.33,2.15,2.15,0,0,1,.84.85,4,4,0,0,1,.37,2.46A1.17,1.17,0,0,0,103.67,67.33Z"/><path class="cls-12" d="M92.46,67.55l6.25,1.68,2.09.56a.9.9,0,0,0,.74-.67.83.83,0,0,0-.3-.86L92.88,66Z"/><path class="cls-13" d="M114.4,73.43l-6.25-1.68-2.09-.56a.9.9,0,0,1-.31-.94.86.86,0,0,1,.7-.6l8.36,2.24Z"/><path class="cls-2" d="M7.48,32.59a.57.57,0,0,1-.56-.43.58.58,0,0,1,.42-.7l24-5.85A.58.58,0,0,1,32,26a.58.58,0,0,1-.42.7l-24,5.85Z"/><path class="cls-2" d="M25.19,39.88a.58.58,0,0,1-.52-.33L14,17.24a.58.58,0,1,1,1-.5L25.71,39.05a.58.58,0,0,1-.52.83Z"/><path class="cls-14" d="M16.21,38.22a9.17,9.17,0,0,0,7.86,0c.17-.07-.32-.47.26-.76s.58.32.74.22a9.22,9.22,0,1,0-8.86.52Z"/><circle class="cls-2" cx="20.04" cy="28.67" r="9.22"/><circle class="cls-5" cx="20.04" cy="28.67" r="7.96"/><path class="cls-15" d="M22.55,35.74a7.5,7.5,0,1,1,4.26-3.85A7.45,7.45,0,0,1,22.55,35.74Zm-5.69-.38a7.41,7.41,0,1,0-3.52-9.87A7.41,7.41,0,0,0,16.86,35.36Z"/><path class="cls-16" d="M13.22,25.6a.27.27,0,0,0,.35-.12.26.26,0,1,0-.47-.23A.27.27,0,0,0,13.22,25.6Z"/><path class="cls-16" d="M23.2,22.26a.26.26,0,0,0,.34-.13.25.25,0,0,0-.12-.34.26.26,0,0,0-.35.12A.27.27,0,0,0,23.2,22.26Z"/><path class="cls-16" d="M16.85,35.6a.26.26,0,0,0,.35-.12.26.26,0,0,0-.47-.22A.25.25,0,0,0,16.85,35.6Z"/><path class="cls-16" d="M26.67,32.05a.27.27,0,0,0,.35-.13.26.26,0,0,0-.12-.34.26.26,0,0,0-.35.12A.27.27,0,0,0,26.67,32.05Z"/><path class="cls-16" d="M19.05,25.15a.25.25,0,0,0-.2-.3.26.26,0,1,0-.1.5A.25.25,0,0,0,19.05,25.15Z"/><path class="cls-2" d="M21.53,27.62a.13.13,0,0,0,0-.13.12.12,0,0,0-.18,0L15.14,32a.14.14,0,0,0,0,.19.13.13,0,0,0,.19,0l6.19-4.53Z"/><path class="cls-16" d="M22,35.5v0l-3.1-10.11a0,0,0,0,0-.05,0,.08.08,0,0,0,0,0L22,35.5a0,0,0,0,0,.05,0Z"/><path class="cls-2" d="M23.65,30.14h0a.2.2,0,0,0-.1-.25L18.69,28a.19.19,0,0,0-.24.11.18.18,0,0,0,.1.24l4.86,1.91A.18.18,0,0,0,23.65,30.14Z"/><path class="cls-2" d="M19.81,29.15a.53.53,0,1,0,.45-1,.53.53,0,0,0-.45,1Z"/><path class="cls-2" d="M18.25,27.68a.36.36,0,0,0-.27.44.36.36,0,0,0,.43.27.36.36,0,0,0,.27-.44A.36.36,0,0,0,18.25,27.68Z"/><path class="cls-2" d="M21.48,27.71a.36.36,0,1,0-.17-.48A.35.35,0,0,0,21.48,27.71Z"/><path class="cls-2" d="M14.57,17.7c1.56-.89,3.35-.71,4,.42l-5.69,3.2C12.3,20.19,13,18.58,14.57,17.7Z"/><path class="cls-2" d="M8,31.54c.29,1.78,1.56,3.05,2.85,2.84L9.74,28C8.49,28.21,7.71,29.8,8,31.54Z"/><path class="cls-2" d="M8.33,31.49l-.16-.08a3.33,3.33,0,0,1-1.85-3.54,14.42,14.42,0,0,1,1.55-5,13.11,13.11,0,0,1,2.83-4.21A3.28,3.28,0,0,1,14.53,18l0,0-.42.85h0c-1.15-.55-3-.69-5.38,4.41-1.92,4-2,6.4-.16,7.25l.12.06Z"/><path class="cls-17" d="M47.12,72.32c-.49-.18-3.26,9.79-10.36,11.21-4.76,1-8.6-.54-13.44-1h0c-.1.77-.36,2.32-.36,2.32,5.22,2.26,11.52,5.09,17.54,4.21,5.64-.83,12.29-7.47,13.53-13.55.4-1.4-2.21-3.93-3.54-4.3C48.8,70.78,48.5,72.83,47.12,72.32Z"/><path class="cls-18" d="M38.18,89.5c-5.19,0-10.49-2.3-14.86-4.19L22.67,85l0-.19s.27-1.55.37-2.31l0-.24.25,0c1.57.13,3,.38,4.45.63,2.95.5,5.73,1,8.91.34,5.35-1.07,8.24-7.21,9.47-9.83.55-1.17.7-1.49,1-1.37h0c.51.19.81,0,1.29-.44a2,2,0,0,1,2-.64,7.14,7.14,0,0,1,3.37,3,2.16,2.16,0,0,1,.34,1.62,18.45,18.45,0,0,1-5.17,8.87c-2.7,2.69-5.81,4.47-8.56,4.87A16.53,16.53,0,0,1,38.18,89.5Zm-15-4.77.29.12c5.24,2.27,11.17,4.84,16.94,4,2.64-.38,5.66-2.11,8.28-4.73a17.88,17.88,0,0,0,5-8.62v0a1.74,1.74,0,0,0-.3-1.26,6.67,6.67,0,0,0-3.07-2.73,1.57,1.57,0,0,0-1.6.54,1.69,1.69,0,0,1-1.65.57c-.11.18-.33.64-.54,1.08-1.26,2.69-4.22,9-9.82,10.1-3.26.66-6.09.17-9.08-.34-1.34-.23-2.73-.46-4.19-.6C23.44,83.45,23.29,84.34,23.22,84.73Z"/><path class="cls-17" d="M74.22,73.22c.15.28,4.56,8.06,11.79,8.58,4.84.35,8.46-1.63,13.2-2.66h0c.2.75.66,2.25.66,2.25C95,84.29,89.09,87.9,83,87.78c-5.7-.11-13.14-5.86-15.13-11.74-.58-1.33,1.69-4.17,3-4.7C72.46,70.67,73.55,71.91,74.22,73.22Z"/><path class="cls-18" d="M83.29,88H83c-2.77-.06-6.09-1.43-9.1-3.76a18.43,18.43,0,0,1-6.25-8.14,2.17,2.17,0,0,1,.13-1.65,7.21,7.21,0,0,1,3-3.37c1-.41,2.45-.4,3.69,2h0c0,.08,4.41,7.93,11.59,8.44,3.23.24,5.93-.59,8.79-1.46,1.38-.42,2.8-.85,4.34-1.19l.24-.05.06.23c.19.71.6,2.09.65,2.24v.21l-.55.33C94.92,84.62,89.17,88,83.29,88ZM71.72,71.4a2.07,2.07,0,0,0-.78.17,6.66,6.66,0,0,0-2.7,3.09A1.76,1.76,0,0,0,68.1,76h0a17.93,17.93,0,0,0,6.09,7.92A15.88,15.88,0,0,0,83,87.54h.29c5.73,0,11.19-3.24,16-6.1l.28-.16c-.12-.38-.38-1.24-.55-1.85-1.43.32-2.78.73-4.08,1.13-2.9.89-5.65,1.72-9,1.48-7.44-.53-11.94-8.62-12-8.7C73.34,72.05,72.57,71.4,71.72,71.4Z"/><path class="cls-17" d="M73.62,73.83c-2.73,18.21-2.84,16-3.79,30-2.76.49-17.17-.07-17.17-.07-.43-8.66-4.71-20-6.08-28.54C46,71.67,50.1,68,57,66.22,62,64.94,74.45,68.29,73.62,73.83Z"/><path class="cls-18" d="M64.81,104.24c-1.31,0-2.84,0-4.6,0-2.05,0-4-.1-5.26-.14L53.27,104c-.7,0-.7,0-.76-.08l-.09-.07v-.11c-.25-5.09-1.85-11.13-3.39-17-1.09-4.13-2.12-8-2.68-11.54-.29-1.8.6-3.71,2.49-5.36A20,20,0,0,1,56.92,66c3.75-1,11.65.65,15.18,3.83a4.48,4.48,0,0,1,1.76,4.06c-.73,4.88-1.26,8.23-1.69,10.93a153.11,153.11,0,0,0-2.1,19V104l-.19,0A36.78,36.78,0,0,1,64.81,104.24Zm-11.92-.76c1.79.07,13.82.5,16.71.1a151.55,151.55,0,0,1,2.08-18.86c.43-2.69,1-6,1.7-10.92a4,4,0,0,0-1.61-3.62,17.13,17.13,0,0,0-7.29-3.36A17.18,17.18,0,0,0,57,66.46a19.49,19.49,0,0,0-7.89,3.77c-1.78,1.56-2.59,3.26-2.32,4.91.55,3.48,1.58,7.38,2.67,11.5C51,92.42,52.6,98.39,52.89,103.48Z"/><path class="cls-5" d="M61.57,69.32l1,25.17a1.32,1.32,0,0,1-2.63.1v-.1l.89-25.17a.4.4,0,0,1,.79,0Z"/><circle class="cls-5" cx="61.19" cy="68.64" r="1.18"/><path class="cls-19" d="M57.47,67.54c.88-1.11,2.23-1.66,3-1.23a.71.71,0,0,1,.14.1.59.59,0,0,1,.28-.28c.66-.36,2,.27,3,1.41s1.24,2.36.58,2.72-2-.28-3-1.42a5.48,5.48,0,0,1-.57-.81,3.36,3.36,0,0,1-.59,1.07c-.89,1.11-2.24,1.66-3,1.23S56.59,68.65,57.47,67.54Z"/><path class="cls-5" d="M57.58,66.68c.88-1.1,2.24-1.65,3-1.22l.15.09a.66.66,0,0,1,.27-.28c.66-.36,2,.28,3,1.42s1.24,2.35.57,2.71-2-.27-3-1.42a4.53,4.53,0,0,1-.58-.81,3.51,3.51,0,0,1-.59,1.08c-.88,1.1-2.24,1.65-3,1.22S56.7,67.79,57.58,66.68Z"/><path class="cls-20" d="M99,79.06c1.23-1.61,3.44-3.19,3.69-3,.54.31-1,1.5-.7,1.71,1,.71,3.31-.25,3.43.2.17.64-1,0-1.64.64-.95.9,3.31-1,1.28,1.43-.56.66-5.38,1.38-5.38,1.38Z"/><path class="cls-20" d="M23.44,82.72c-1.42-1.44-3.81-2.72-4-2.55-.49.37,1.2,1.36.92,1.61-.95.83-3.32.16-3.39.63-.08.65,1-.12,1.71.43,1.06.76-3.4-.57-1.08,1.58.63.58,5.5.68,5.5.68Z"/><path class="cls-20" d="M60.63,67.17a1.63,1.63,0,0,0,.38,0,1.74,1.74,0,0,0,1.34-1.94l-.43-3.63a1.54,1.54,0,0,0-1.73-1.43,1.73,1.73,0,0,0-1.34,1.94l.43,3.63A1.57,1.57,0,0,0,60.63,67.17Z"/><g class="cls-21"><path d="M59,63.34l-.1-.86a1.72,1.72,0,0,1,1.34-1.93A1.54,1.54,0,0,1,61.92,62l.28,2C62.31,64.86,59,64,59,63.34Z"/></g><path class="cls-20" d="M63.34,56.54c1.19,2.85.84,5.07-1.33,6a5,5,0,0,1-6.54-2.69C54.28,57,55.07,54,57.24,53S62.14,53.7,63.34,56.54Z"/><path class="cls-22" d="M53.24,53.72c1-1.36-.92-2.48-1-4.26A5.7,5.7,0,0,1,53,45.72c1-1.8,3-2,4.73-1.9,4,.32,4.91,6.86,2.73,8.76-2.38,2.08-3.18,3.42-3.59,6.21a.93.93,0,0,0-1,.14A1.34,1.34,0,0,0,56,60.71a1.23,1.23,0,0,0,1.69.37.89.89,0,0,0,.16-.22c4.67,2.39,5.65-1.56,6.14-1.51,1.22.13,1.6,1,1.14,2.21-.22.58-.78,1.13-2.34,1.36-3.29.49-4.29-.25-4.29-.25s-1.05.92-2.58-.46S49.6,58.41,53.24,53.72Z"/><path class="cls-7" d="M56.83,109.93c4.35,0,3.59-.1,7.85,0,6.21.11,16.68-6.31,19.9-10.8,3-4.21.75-6.8-2-7.06-3.43-.31-11.3,4.51-14.65,5.24a32.16,32.16,0,0,1-13.5,0c-2.74-.6-10.89-5.59-13.67-4.69-4,1.3-3.29,4.57-2.62,5.53C41.65,103.22,54.09,109.92,56.83,109.93Z"/><path class="cls-23" d="M75.86,109.8c-.07-4.08-6.57-2-14.27-2S47.44,105.93,47.86,110l9-.07,4.76-.91,5.74.84Z"/><path class="cls-24" d="M65.86,109.86l.88-2.45c-10.13-7.14-19-14.41-25.41-14.5a3.41,3.41,0,0,0-3.21,3.87,4.34,4.34,0,0,0,1.38,2.29,23.31,23.31,0,0,0,8.18,4.81l16.43,6C64.38,109.91,65.55,109.9,65.86,109.86Z"/><path class="cls-24" d="M58.13,109.89l-.92-2.42C67.67,99.85,77,92,82.27,92.38a3.51,3.51,0,0,1,3.3,3.79,4.42,4.42,0,0,1-1.32,2.33,23.25,23.25,0,0,1-8.07,5l-16.67,6.34A5.13,5.13,0,0,1,58.13,109.89Z"/><path class="cls-25" d="M58.08,109.94a.23.23,0,0,1-.2-.13l-.94-2.33.13-.1,4.56-3.53c3.78-2.92,13.52-9.42,14.5-9.57a.21.21,0,0,1,.24.18.22.22,0,0,1-.18.25c-.75.11-10.13,6.26-14.3,9.49l-4.42,3.42.81,2a.21.21,0,0,1-.12.28Z"/><path class="cls-25" d="M61.76,104.24a.24.24,0,0,1-.14,0C60.21,103,49,95,46.48,94.4a.22.22,0,0,1-.16-.26.21.21,0,0,1,.26-.16c2.69.6,14,8.72,15.32,9.88a.22.22,0,0,1,0,.31A.2.2,0,0,1,61.76,104.24Z"/><polygon class="cls-4" points="0.18 66.76 19.88 51.59 31.04 65.83 11.34 80.99 0.18 66.76"/><rect class="cls-2" x="30.42" y="65.58" width="0.23" height="1.73" transform="translate(95.26 100.47) rotate(142.42)"/><rect class="cls-2" x="29.97" y="65.92" width="0.23" height="1.73" transform="translate(94.66 101.36) rotate(142.42)"/><rect class="cls-2" x="29.52" y="66.27" width="0.23" height="1.73" transform="translate(94.07 102.25) rotate(142.42)"/><rect class="cls-2" x="29.07" y="66.61" width="0.23" height="1.73" transform="translate(93.47 103.15) rotate(142.42)"/><rect class="cls-2" x="28.62" y="66.96" width="0.23" height="1.73" transform="translate(92.88 104.04) rotate(142.41)"/><rect class="cls-2" x="28.18" y="67.31" width="0.23" height="1.73" transform="translate(92.29 104.94) rotate(142.41)"/><rect class="cls-2" x="27.73" y="67.65" width="0.23" height="1.73" transform="translate(91.69 105.83) rotate(142.42)"/><rect class="cls-2" x="27.28" y="68" width="0.23" height="1.73" transform="translate(91.1 106.73) rotate(142.42)"/><rect class="cls-2" x="26.83" y="68.34" width="0.23" height="1.73" transform="translate(90.5 107.62) rotate(142.42)"/><rect class="cls-2" x="26.38" y="68.69" width="0.23" height="1.73" transform="translate(89.91 108.51) rotate(142.42)"/><rect class="cls-2" x="25.93" y="69.04" width="0.23" height="1.73" transform="translate(89.31 109.41) rotate(142.41)"/><rect class="cls-2" x="25.48" y="69.38" width="0.23" height="1.73" transform="translate(88.72 110.3) rotate(142.41)"/><rect class="cls-2" x="25.03" y="69.73" width="0.23" height="1.73" transform="translate(88.12 111.2) rotate(142.42)"/><rect class="cls-2" x="24.58" y="70.07" width="0.23" height="1.73" transform="translate(87.53 112.09) rotate(142.42)"/><rect class="cls-2" x="24.13" y="70.42" width="0.23" height="1.73" transform="translate(86.93 112.99) rotate(142.42)"/><rect class="cls-2" x="23.68" y="70.77" width="0.23" height="1.73" transform="translate(86.34 113.88) rotate(142.42)"/><rect class="cls-2" x="23.23" y="71.11" width="0.23" height="1.73" transform="translate(85.74 114.77) rotate(142.42)"/><rect class="cls-2" x="22.78" y="71.46" width="0.23" height="1.73" transform="translate(85.15 115.67) rotate(142.42)"/><rect class="cls-2" x="22.33" y="71.8" width="0.23" height="1.73" transform="translate(84.55 116.56) rotate(142.42)"/><rect class="cls-2" x="21.88" y="72.15" width="0.23" height="1.73" transform="translate(83.96 117.46) rotate(142.42)"/><rect class="cls-2" x="21.43" y="72.5" width="0.23" height="1.73" transform="translate(83.37 118.35) rotate(142.41)"/><rect class="cls-2" x="20.98" y="72.84" width="0.23" height="1.73" transform="translate(82.77 119.25) rotate(142.42)"/><rect class="cls-2" x="20.53" y="73.19" width="0.23" height="1.73" transform="translate(82.18 120.14) rotate(142.41)"/><rect class="cls-2" x="20.09" y="73.53" width="0.23" height="1.73" transform="translate(81.58 121.03) rotate(142.42)"/><rect class="cls-2" x="19.64" y="73.88" width="0.23" height="1.73" transform="translate(80.99 121.93) rotate(142.42)"/><rect class="cls-2" x="19.19" y="74.22" width="0.23" height="1.73" transform="translate(80.39 122.82) rotate(142.42)"/><rect class="cls-2" x="18.74" y="74.57" width="0.23" height="1.73" transform="translate(79.8 123.72) rotate(142.42)"/><rect class="cls-2" x="18.29" y="74.92" width="0.23" height="1.73" transform="translate(79.2 124.61) rotate(142.41)"/><rect class="cls-2" x="17.84" y="75.26" width="0.23" height="1.73" transform="translate(78.61 125.5) rotate(142.41)"/><rect class="cls-2" x="17.39" y="75.61" width="0.23" height="1.73" transform="translate(78.01 126.4) rotate(142.42)"/><rect class="cls-2" x="16.94" y="75.95" width="0.23" height="1.73" transform="translate(77.42 127.29) rotate(142.42)"/><rect class="cls-2" x="16.49" y="76.3" width="0.23" height="1.73" transform="translate(76.82 128.19) rotate(142.42)"/><rect class="cls-2" x="16.04" y="76.65" width="0.23" height="1.73" transform="translate(76.23 129.08) rotate(142.42)"/><rect class="cls-2" x="15.59" y="76.99" width="0.23" height="1.73" transform="translate(75.64 129.97) rotate(142.41)"/><rect class="cls-2" x="15.14" y="77.34" width="0.23" height="1.73" transform="translate(75.04 130.87) rotate(142.41)"/><rect class="cls-2" x="14.69" y="77.68" width="0.23" height="1.73" transform="translate(74.45 131.76) rotate(142.42)"/><rect class="cls-2" x="14.24" y="78.03" width="0.23" height="1.73" transform="translate(73.85 132.66) rotate(142.42)"/><rect class="cls-2" x="13.79" y="78.38" width="0.23" height="1.73" transform="translate(73.26 133.55) rotate(142.42)"/><rect class="cls-2" x="13.34" y="78.72" width="0.23" height="1.73" transform="translate(72.66 134.44) rotate(142.41)"/><rect class="cls-2" x="12.89" y="79.07" width="0.23" height="1.73" transform="translate(72.07 135.34) rotate(142.41)"/><rect class="cls-2" x="12.44" y="79.41" width="0.23" height="1.73" transform="translate(71.47 136.23) rotate(142.42)"/><rect class="cls-2" x="11.99" y="79.76" width="0.23" height="1.73" transform="translate(70.88 137.13) rotate(142.42)"/><path class="cls-2" d="M19.6,71.83,11,60.61l8.68-6.68,8.63,11.22Zm-8.51-11.2L19.62,71.7l8.53-6.57L19.63,54.06Z"/><rect class="cls-2" x="11.13" y="58.85" width="10.86" height="0.09" transform="matrix(0.79, -0.61, 0.61, 0.79, -32.5, 22.34)"/><rect class="cls-2" x="12.35" y="60.45" width="10.86" height="0.09" transform="matrix(0.79, -0.61, 0.61, 0.79, -33.21, 23.42)"/><rect class="cls-2" x="13.58" y="62.04" width="10.86" height="0.09" transform="translate(-33.93 24.49) rotate(-37.6)"/><rect class="cls-2" x="14.8" y="63.63" width="10.86" height="0.09" transform="translate(-34.65 25.58) rotate(-37.6)"/><rect class="cls-2" x="16.03" y="65.22" width="10.86" height="0.09" transform="translate(-35.36 26.65) rotate(-37.6)"/><rect class="cls-2" x="17.26" y="66.81" width="10.86" height="0.09" transform="translate(-36.08 27.73) rotate(-37.6)"/><rect class="cls-2" x="16.71" y="58.06" width="0.09" height="14.06" transform="translate(-36.22 23.73) rotate(-37.58)"/><rect class="cls-2" x="18.14" y="56.95" width="0.09" height="14.06" transform="translate(-35.25 24.37) rotate(-37.58)"/><rect class="cls-2" x="19.58" y="55.85" width="0.09" height="14.06" transform="translate(-34.28 25.02) rotate(-37.58)"/><rect class="cls-2" x="21.01" y="54.74" width="0.09" height="14.06" transform="translate(-33.31 25.66) rotate(-37.58)"/><rect class="cls-2" x="22.45" y="53.64" width="0.09" height="14.06" transform="translate(-32.34 26.31) rotate(-37.58)"/><path class="cls-2" d="M11,78.46,2.35,67.24,11,60.56l8.64,11.22ZM2.48,67.26,11,78.33l8.54-6.57L11,60.69Z"/><rect class="cls-2" x="2.52" y="65.49" width="10.86" height="0.09" transform="matrix(0.79, -0.61, 0.61, 0.79, -38.33, 18.46)"/><rect class="cls-2" x="3.74" y="67.08" width="10.86" height="0.09" transform="matrix(0.79, -0.61, 0.61, 0.79, -39.05, 19.54)"/><rect class="cls-2" x="4.97" y="68.67" width="10.86" height="0.09" transform="translate(-39.76 20.61) rotate(-37.6)"/><rect class="cls-2" x="6.19" y="70.26" width="10.86" height="0.09" transform="matrix(0.79, -0.61, 0.61, 0.79, -40.48, 21.69)"/><rect class="cls-2" x="7.42" y="71.85" width="10.86" height="0.09" transform="translate(-41.2 22.78) rotate(-37.6)"/><rect class="cls-2" x="8.64" y="73.45" width="10.86" height="0.09" transform="translate(-41.92 23.85) rotate(-37.6)"/><rect class="cls-2" x="8.1" y="64.69" width="0.09" height="14.06" transform="translate(-42.05 19.85) rotate(-37.58)"/><rect class="cls-2" x="9.53" y="63.58" width="0.09" height="14.06" transform="translate(-41.08 20.5) rotate(-37.58)"/><rect class="cls-2" x="10.96" y="62.48" width="0.09" height="14.06" transform="translate(-40.11 21.14) rotate(-37.58)"/><rect class="cls-2" x="12.4" y="61.38" width="0.09" height="14.06" transform="translate(-39.14 21.79) rotate(-37.58)"/><rect class="cls-2" x="13.83" y="60.27" width="0.09" height="14.06" transform="translate(-38.17 22.43) rotate(-37.58)"/><path class="cls-2" d="M3.64,71.28a.11.11,0,0,1-.1,0L0,66.74l4.78-4a.15.15,0,0,1,.19,0,.13.13,0,0,1,0,.18L.36,66.77l3.38,4.3a.13.13,0,0,1,0,.19Z"/><path class="cls-2" d="M7.32,61.39a.1.1,0,0,1-.1,0,.12.12,0,0,1,0-.18l4.3-3.43a.14.14,0,0,1,.18,0,.13.13,0,0,1,0,.19L7.4,61.36A.11.11,0,0,1,7.32,61.39Z"/><path class="cls-2" d="M28.53,62.75a.16.16,0,0,1-.11,0l-3.83-4.78L22,54.48l-2.13-2.71-6.32,4.87a.15.15,0,0,1-.19,0,.14.14,0,0,1,0-.19l6.53-5,2.28,2.91,2.61,3.44,3.83,4.78a.14.14,0,0,1,0,.18Z"/><path class="cls-2" d="M9.92,43.8c-.56.1-.7.76-.88,1.23a9.32,9.32,0,0,0-.47,1.87,13.7,13.7,0,0,0-.18,1.81,4.47,4.47,0,0,0,.2,1.82.4.4,0,0,0,.73-.1,9.1,9.1,0,0,0,0-1.65A10.92,10.92,0,0,1,9.45,47c.08-.56.23-1.11.36-1.66s.46-1,.16-1.5a0,0,0,0,0-.05,0Z"/><path class="cls-2" d="M12.72,42.14a13.84,13.84,0,0,0-.82,2.53,20.42,20.42,0,0,0-.39,2.7,19.06,19.06,0,0,0,.23,5.49c0,.24.42.18.42-.06,0-1.78,0-3.57.12-5.35s.41-3.51.58-5.27c0-.07-.11-.1-.14,0Z"/><path class="cls-2" d="M105.09,45.93a28.8,28.8,0,0,1,.44,7.06.35.35,0,0,0,.69.1,14,14,0,0,0-.51-7.33.32.32,0,0,0-.62.17Z"/><path class="cls-2" d="M108.33,44c.08,1.18.4,2.34.47,3.53s0,2.4-.09,3.6a.25.25,0,0,0,.48.06,9.62,9.62,0,0,0,.24-3.74,8.11,8.11,0,0,0-1-3.48.07.07,0,0,0-.12,0Z"/><path class="cls-2" d="M75.9,16.85c.36.17.68.4,1,.56s.69.28,1,.42c.73.29,1.44.61,2.16.91,1.44.61,2.83,1.34,4.27,2a.26.26,0,0,0,.26-.45,27.69,27.69,0,0,0-4.2-2.06c-.72-.3-1.45-.56-2.19-.81-.36-.12-.72-.25-1.08-.35s-.85-.11-1.28-.2c0,0,0,0,0,0Z"/><path class="cls-2" d="M77.72,14.19a17.88,17.88,0,0,1,4.42,1.15c.11,0,.19-.15.08-.2a13.21,13.21,0,0,0-4.5-1.1c-.1,0-.1.15,0,.15Z"/><path class="cls-2" d="M38.71,16.25a10.75,10.75,0,0,0-2.83.85,6.81,6.81,0,0,0-2.42,1.68c-.17.21,0,.57.32.4.79-.49,1.51-1.08,2.35-1.52a10.25,10.25,0,0,1,2.71-.94c.31-.07.17-.52-.13-.47Z"/><path class="cls-2" d="M41.23,12.42a6.67,6.67,0,0,0-1.67,0,11,11,0,0,0-1.7.39c-.56.18-1.11.37-1.65.59a4.78,4.78,0,0,0-1.48.74c-.24.21-.06.72.28.67a7.54,7.54,0,0,0,1.6-.54c.52-.2,1-.38,1.58-.54l1.59-.51a15.42,15.42,0,0,0,1.51-.62c.12-.05.05-.22-.06-.22Z"/></g></g></svg>