<svg xmlns="http://www.w3.org/2000/svg" viewBox="0 0 20 20"><defs><style>.cls-1{fill:#ffbf54;}.cls-2{fill:#fff;}</style></defs><title>subtask circle icon</title><g id="Layer_2" data-name="Layer 2"><g id="Layer_1-2" data-name="Layer 1"><circle class="cls-1" cx="10" cy="10" r="10"/><path class="cls-2" d="M12.06,14.5l1.67-1.67-1.85-.18Zm.81-7.71H8.42a.87.87,0,0,0-.86.86v6a.86.86,0,0,0,.86.86h3.16l-.18-1.88a.43.43,0,0,1,.47-.47l1.86.19V7.65A.86.86,0,0,0,12.87,6.79Zm-2.22,4.75H8.73a.21.21,0,0,1-.21-.21.22.22,0,0,1,.21-.22h1.92a.22.22,0,0,1,.21.22A.21.21,0,0,1,10.65,11.54Zm1.91-1.07H8.73a.21.21,0,1,1,0-.42h3.83a.21.21,0,0,1,0,.42Zm0-1.06H8.73a.22.22,0,0,1-.21-.22A.21.21,0,0,1,8.73,9h3.83a.21.21,0,0,1,.21.21A.21.21,0,0,1,12.56,9.41Zm0-1.07H8.73a.22.22,0,0,1-.21-.22.21.21,0,0,1,.21-.21h3.83a.21.21,0,0,1,.21.21A.21.21,0,0,1,12.56,8.34Z"/><path class="cls-2" d="M6.48,13.76a.22.22,0,0,1-.21-.22V5.71a.22.22,0,0,1,.21-.21h6.29a.22.22,0,1,1,0,.43H6.7v7.61A.22.22,0,0,1,6.48,13.76Z"/></g></g></svg>