<svg xmlns="http://www.w3.org/2000/svg" viewBox="0 0 19.44 19.44"><defs><style>.cls-1{fill:#4949c7;}.cls-2{fill:#fff;}</style></defs><title>task kanban fill icon</title><g id="Layer_2" data-name="Layer 2"><g id="Layer_1-2" data-name="Layer 1"><circle class="cls-1" cx="9.72" cy="9.72" r="9.72"/><path class="cls-2" d="M11.38,14.22l1.94-1.94-2.16-.22Zm.94-9H7.12a1,1,0,0,0-1,1v7a1,1,0,0,0,1,1h3.69L10.6,12a.5.5,0,0,1,.55-.55l2.17.22V6.22A1,1,0,0,0,12.32,5.22Zm-2.6,5.55H7.49a.25.25,0,0,1-.25-.25.25.25,0,0,1,.25-.25H9.72a.25.25,0,0,1,.25.25A.25.25,0,0,1,9.72,10.77ZM12,9.52H7.49a.25.25,0,1,1,0-.5H12a.25.25,0,0,1,0,.5Zm0-1.25H7.49a.25.25,0,0,1,0-.5H12a.25.25,0,0,1,0,.5ZM12,7H7.49a.25.25,0,0,1,0-.5H12A.25.25,0,0,1,12,7Z"/></g></g></svg>