<?xml version="1.0"?>
<svg fill="#000000" xmlns="http://www.w3.org/2000/svg" viewBox="0 0 30 30" width="30px" height="30px">
    <path d="M 11 2 C 9.895 2 9 2.895 9 4 L 9 12 L 9 13 L 9 19.5 C 6.448 18.201 5.289 18 4 18 C 2.503911 18 1.0097445 18.577311 1.0019531 20.486328 L 5.5 22.5 L 8.65625 25.65625 C 10.15625 27.15625 12.192453 28 14.314453 28 L 21 28 C 23.209 28 25 26.209 25 24 L 25 14 A 2 2 0 0 0 23 12 A 2 2 0 0 0 21.193359 13.148438 C 21.066812 13.062233 21 13 21 13 A 2 2 0 0 0 19 11 A 2 2 0 0 0 17 13 L 17 12 C 17 10.895 16.105 10 15 10 C 13.895 10 13 10.895 13 12 L 13 4 C 13 2.895 12.105 2 11 2 z M 1.0019531 20.486328 L 1 20.486328 L 1 20.5 C 1 20.494991 1.0019328 20.491319 1.0019531 20.486328 z" />
</svg>