<svg xmlns="http://www.w3.org/2000/svg" viewBox="0 0 23.5 23.5">
    <title>setting icon</title>
    <g id="Layer_2" data-name="Layer 2">
        <g id="Layer_1-2" data-name="Layer 1">
            <circle style="fill:none;stroke:#fff;stroke-linecap:round;stroke-linejoin:round;stroke-width:1.5px;" cx="11.75" cy="11.75" r="4.11" />
            <path style="fill:none;stroke:#fff;stroke-linecap:round;stroke-linejoin:round;stroke-width:1.5px;" d="M19.15,14.75a1.66,1.66,0,0,0,.33,1.82l.06.06a2,2,0,0,1,0,2.83h0a2,2,0,0,1-2.83,0h0l-.06-.06a1.66,1.66,0,0,0-2.82,1.18v.17a2,2,0,0,1-4,0v-.09a1.64,1.64,0,0,0-1.08-1.51,1.66,1.66,0,0,0-1.82.33l-.06.06a2,2,0,0,1-2.83,0H4a2,2,0,0,1,0-2.83H4l.06-.06a1.66,1.66,0,0,0-1.18-2.82H2.75a2,2,0,0,1,0-4h.09A1.64,1.64,0,0,0,4.35,8.75,1.66,1.66,0,0,0,4,6.93L4,6.87A2,2,0,0,1,4,4H4A2,2,0,0,1,6.79,4h0l.06.06a1.66,1.66,0,0,0,1.82.33h.08a1.65,1.65,0,0,0,1-1.51V2.75a2,2,0,0,1,4,0v.09A1.66,1.66,0,0,0,16.57,4L16.63,4a2,2,0,0,1,2.83,0h0a2,2,0,0,1,0,2.83h0l-.06.06a1.66,1.66,0,0,0-.33,1.82v.08a1.65,1.65,0,0,0,1.51,1h.17a2,2,0,0,1,0,4h-.09A1.65,1.65,0,0,0,19.15,14.75Z" />
        </g>
    </g>
</svg>