<svg xmlns="http://www.w3.org/2000/svg" xmlns:xlink="http://www.w3.org/1999/xlink" viewBox="0 0 311.11 207.72"><defs><style>.cls-1{isolation:isolate;}.cls-2,.cls-34{opacity:0.1;}.cls-3{opacity:0.45;}.cls-3,.cls-34{mix-blend-mode:multiply;}.cls-4{fill:url(#linear-gradient);}.cls-5{fill:url(#linear-gradient-2);}.cls-6{fill:url(#linear-gradient-3);}.cls-7{fill:url(#linear-gradient-4);}.cls-8{fill:#110809;}.cls-9{fill:#efa884;}.cls-10{fill:#483a3d;}.cls-11{fill:#fff;}.cls-12{fill:#7a483a;}.cls-13{fill:#fcb44c;}.cls-14{fill:#84a1c1;}.cls-15{fill:#93afd3;}.cls-16{fill:#ffbf54;}.cls-17{fill:#f7b690;}.cls-18{fill:#1f1c38;}.cls-19{fill:#b7d4da;}.cls-19,.cls-26{opacity:0.85;}.cls-20,.cls-27{fill:none;stroke-miterlimit:10;opacity:0.39;}.cls-20{stroke:#729296;}.cls-21{fill:#e6ac8e;}.cls-22{fill:#6b7784;}.cls-23{fill:#c2b641;}.cls-24{fill:#788393;}.cls-25{fill:#b2a33b;}.cls-26{fill:#c2c3e9;}.cls-27{stroke:#8284a8;}.cls-28{fill:#fff5f5;}.cls-29{fill:#c9cdd1;}.cls-30{fill:#6f6f79;}.cls-31{fill:#fa5770;}.cls-32{fill:#d1efff;}.cls-33{fill:#fffffa;}.cls-35{fill:#5bb59b;}.cls-36{fill:#524f63;}.cls-37{fill:#63a590;}</style><linearGradient id="linear-gradient" x1="178.41" y1="77.77" x2="131.99" y2="150.15" gradientUnits="userSpaceOnUse"><stop offset="0" stop-color="#80008c"/><stop offset="0.27" stop-color="#842aa5" stop-opacity="0.78"/><stop offset="1" stop-color="#9097e8" stop-opacity="0.2"/></linearGradient><linearGradient id="linear-gradient-2" x1="115.3" y1="47.32" x2="43.22" y2="159.71" xlink:href="#linear-gradient"/><linearGradient id="linear-gradient-3" x1="147.83" y1="10.53" x2="101.42" y2="82.91" xlink:href="#linear-gradient"/><linearGradient id="linear-gradient-4" x1="93.45" y1="-10.26" x2="59.23" y2="43.1" xlink:href="#linear-gradient"/></defs><title>dashboard welcome screen image</title><g class="cls-1"><g id="Layer_2" data-name="Layer 2"><g id="Layer_1-2" data-name="Layer 1"><ellipse class="cls-2" cx="139.71" cy="197.53" rx="131.83" ry="10.19"/><g class="cls-3"><path class="cls-4" d="M179.45,125.75a4.9,4.9,0,0,1,0-9.79c.17,0,.33,0,.5.05a29.27,29.27,0,0,0-1.49-5.53,3.54,3.54,0,0,1-.44.32,4.89,4.89,0,1,1-4.89-8.47,3,3,0,0,1,.48-.22A29,29,0,0,0,169.54,98a3.59,3.59,0,0,1-.24.53,4.89,4.89,0,1,1-8.47-4.89,5.85,5.85,0,0,1,.34-.48,29,29,0,0,0-5.59-1.5,4.48,4.48,0,0,1,.06.64,4.89,4.89,0,1,1-9.78,0,4.76,4.76,0,0,1,.06-.66,29.77,29.77,0,0,0-5.65,1.51,4.09,4.09,0,0,1,.42.58,4.89,4.89,0,1,1-8.47,4.9,4.43,4.43,0,0,1-.3-.67,29.81,29.81,0,0,0-4.16,4.17,5,5,0,0,1,.71.32,4.89,4.89,0,1,1-4.9,8.47,4.78,4.78,0,0,1-.63-.45,29.53,29.53,0,0,0-1.51,5.72,5.29,5.29,0,0,1,.8-.08,4.9,4.9,0,1,1,0,9.79,5,5,0,0,1-.77-.08,29.53,29.53,0,0,0,1.56,5.71,3.85,3.85,0,0,1,.65-.47,4.89,4.89,0,0,1,4.89,8.47,4.6,4.6,0,0,1-.68.31,29.74,29.74,0,0,0,4.19,4.13,4.6,4.6,0,0,1,.31-.68,4.89,4.89,0,0,1,8.48,4.89,4.75,4.75,0,0,1-.41.56,29.05,29.05,0,0,0,5.66,1.47,5.2,5.2,0,0,1-.07-.69,4.9,4.9,0,0,1,9.79,0,4.07,4.07,0,0,1-.06.61,28.94,28.94,0,0,0,5.58-1.54c-.12-.16-.25-.32-.36-.5a4.9,4.9,0,1,1,8.48-4.9,5.44,5.44,0,0,1,.22.5,29.46,29.46,0,0,0,4-4.09,3.82,3.82,0,0,1-.51-.23,4.89,4.89,0,0,1,4.89-8.47,2.47,2.47,0,0,1,.42.3A28.75,28.75,0,0,0,180,125.7,4.53,4.53,0,0,1,179.45,125.75Zm-28.74,15.16A19.95,19.95,0,1,1,170.65,121,19.95,19.95,0,0,1,150.71,140.91Z"/></g><g class="cls-3"><path class="cls-5" d="M116.92,121.82a7.6,7.6,0,1,1,0-15.19c.26,0,.51.05.77.07a45.79,45.79,0,0,0-2.31-8.58,6.63,6.63,0,0,1-.69.49,7.6,7.6,0,1,1-7.59-13.16,7.19,7.19,0,0,1,.75-.34,46.53,46.53,0,0,0-6.32-6.31,5.54,5.54,0,0,1-.37.83A7.6,7.6,0,1,1,88,72a8.44,8.44,0,0,1,.54-.75A46,46,0,0,0,79.85,69a8.26,8.26,0,0,1,.1,1,7.6,7.6,0,0,1-15.2,0,8.39,8.39,0,0,1,.1-1,46,46,0,0,0-8.77,2.33,7.58,7.58,0,1,1-12.5,8.51,6.81,6.81,0,0,1-.47-1,47,47,0,0,0-6.46,6.47,7.18,7.18,0,0,1,1.1.5,7.6,7.6,0,1,1-7.6,13.16,10,10,0,0,1-1-.7A45.25,45.25,0,0,0,26.82,107a8.54,8.54,0,0,1,1.25-.12,7.6,7.6,0,1,1,0,15.2,7.74,7.74,0,0,1-1.19-.12,45.44,45.44,0,0,0,2.41,8.86,7.43,7.43,0,0,1,1-.73,7.6,7.6,0,0,1,7.6,13.16,7.19,7.19,0,0,1-1.06.48,46.48,46.48,0,0,0,6.51,6.42,6.85,6.85,0,0,1,.48-1.07A7.6,7.6,0,1,1,57,156.72a7.7,7.7,0,0,1-.63.87,45.21,45.21,0,0,0,8.79,2.28,7.58,7.58,0,1,1,15.09-1.07,7.3,7.3,0,0,1-.09.94,45.7,45.7,0,0,0,8.67-2.39,7.43,7.43,0,0,1-.57-.78,7.61,7.61,0,1,1,13.51-6.82,46,46,0,0,0,6.27-6.36,6.81,6.81,0,0,1-.79-.35,7.6,7.6,0,1,1,8.25-12.7,44.92,44.92,0,0,0,2.25-8.6A7.34,7.34,0,0,1,116.92,121.82ZM72.28,145.36a31,31,0,1,1,31-31A31,31,0,0,1,72.28,145.36Z"/></g><g class="cls-3"><path class="cls-6" d="M148.88,58.51a4.9,4.9,0,1,1,0-9.79c.17,0,.33,0,.49.05a29.71,29.71,0,0,0-1.48-5.52,5.09,5.09,0,0,1-.45.31,4.89,4.89,0,1,1-4.89-8.47,4.31,4.31,0,0,1,.49-.22A30.69,30.69,0,0,0,139,30.8a5.05,5.05,0,0,1-.24.53,4.89,4.89,0,1,1-8.48-4.89,5.34,5.34,0,0,1,.35-.48,29.05,29.05,0,0,0-5.6-1.5,4.48,4.48,0,0,1,.07.64,4.9,4.9,0,1,1-9.72-.66A29.37,29.37,0,0,0,109.7,26a4.09,4.09,0,0,1,.42.58,4.9,4.9,0,0,1-8.48,4.9,4.74,4.74,0,0,1-.29-.66,29.28,29.28,0,0,0-4.17,4.16,5,5,0,0,1,.71.32A4.89,4.89,0,0,1,93,43.73a6,6,0,0,1-.63-.46A29.55,29.55,0,0,0,90.85,49a5.42,5.42,0,0,1,.81-.08,4.9,4.9,0,0,1,0,9.79,4.78,4.78,0,0,1-.77-.08,29.32,29.32,0,0,0,1.55,5.71,5.13,5.13,0,0,1,.65-.47A4.9,4.9,0,0,1,98,72.34a5.85,5.85,0,0,1-.68.3,29.28,29.28,0,0,0,4.19,4.14,4.28,4.28,0,0,1,.31-.69A4.89,4.89,0,0,1,110.28,81a5.81,5.81,0,0,1-.4.57A29.57,29.57,0,0,0,115.54,83a5.2,5.2,0,0,1-.07-.69,4.9,4.9,0,0,1,9.79,0,4.07,4.07,0,0,1-.07.61,29,29,0,0,0,5.59-1.54,3.52,3.52,0,0,1-.36-.5,4.89,4.89,0,1,1,8.47-4.9c.1.17.15.34.23.5a30.62,30.62,0,0,0,4-4.09,2.94,2.94,0,0,1-.51-.23,4.89,4.89,0,1,1,4.89-8.47,4,4,0,0,1,.42.3,30.28,30.28,0,0,0,1.45-5.54A4.75,4.75,0,0,1,148.88,58.51ZM120.13,73.67a19.94,19.94,0,1,1,19.94-19.94A19.94,19.94,0,0,1,120.13,73.67Z"/></g><g class="cls-3"><path class="cls-7" d="M94.22,25.11a3.61,3.61,0,1,1,0-7.21,2.21,2.21,0,0,1,.37,0,22.09,22.09,0,0,0-1.1-4.08c-.11.08-.21.17-.32.24a3.61,3.61,0,0,1-3.61-6.25,2.32,2.32,0,0,1,.36-.16,22.38,22.38,0,0,0-3-3c-.06.13-.11.26-.18.39a3.61,3.61,0,1,1-6.25-3.61,3.18,3.18,0,0,1,.26-.35A21.85,21.85,0,0,0,76.62,0a3.71,3.71,0,0,1,0,.48,3.61,3.61,0,0,1-7.22,0,3.87,3.87,0,0,1,0-.49,21.42,21.42,0,0,0-4.16,1.11,3.36,3.36,0,0,1,.31.43A3.61,3.61,0,0,1,59.4,5.15a4.31,4.31,0,0,1-.22-.49,22.27,22.27,0,0,0-3.07,3.07,3.48,3.48,0,0,1,.52.24A3.61,3.61,0,0,1,53,14.22a4,4,0,0,1-.47-.34,22,22,0,0,0-1.11,4.22A3.8,3.8,0,0,1,52,18a3.61,3.61,0,1,1,0,7.21,3.55,3.55,0,0,1-.57-.05,21.19,21.19,0,0,0,1.15,4.2,3.43,3.43,0,0,1,.48-.34,3.61,3.61,0,0,1,3.6,6.25,3.16,3.16,0,0,1-.5.22,21.73,21.73,0,0,0,3.09,3c.07-.17.14-.34.23-.51a3.61,3.61,0,1,1,6.25,3.61c-.09.15-.2.28-.3.42a22.2,22.2,0,0,0,4.17,1.08,4.4,4.4,0,0,1,0-.51,3.61,3.61,0,0,1,7.22,0,3.44,3.44,0,0,1,0,.45A21.81,21.81,0,0,0,80.88,42a3.52,3.52,0,0,1-.27-.37A3.61,3.61,0,1,1,86.86,38c.07.12.11.25.17.37a22.83,22.83,0,0,0,3-3c-.12-.06-.25-.1-.37-.17a3.61,3.61,0,0,1,3.6-6.25,1.73,1.73,0,0,1,.31.22,20.75,20.75,0,0,0,1.07-4.08C94.48,25.09,94.36,25.11,94.22,25.11ZM73,36.29a14.7,14.7,0,1,1,14.7-14.7A14.7,14.7,0,0,1,73,36.29Z"/></g><path class="cls-8" d="M135.33,183.69a6.35,6.35,0,0,1,1.38,4.65c-.37,2.78-2.64,4.62-3.24,7.31a1.77,1.77,0,0,0,0,.76,1.55,1.55,0,0,0,1.12,1c2.62.69,4.91-3.16,6.39-4.65l5.6-5.63a1.46,1.46,0,0,0-.15-2l-6.24-6.45-.92-1c-1.52-1.59-3.8-1.76-5.05-.39a4,4,0,0,0,.1,4.82C134.65,182.71,135,183.2,135.33,183.69Z"/><path class="cls-9" d="M117,140.51c2-.73,4.57-.62,6.71-.65,2.33,0,4.66,0,7-.05a14.83,14.83,0,0,0,10.73-4,36,36,0,0,0,6.66-8.52c2.32-3.78,7.25-12.2,2-15.69-2.74-1.82-4.53.17-5.48,2.74a34.17,34.17,0,0,0-1.15,4.22,23.7,23.7,0,0,1-1.87,5.36,25.08,25.08,0,0,1-1.91,3.49,14.62,14.62,0,0,1-3.2,3.32,29.94,29.94,0,0,1-7.7,4.08c-1.54.58-3.1,1.11-4.68,1.57-1.3.39-3.08,1.17-4.47,1a11.75,11.75,0,0,1-1.17-.29,6.72,6.72,0,0,0-4,.35,20.47,20.47,0,0,0-3.54,1.9c-1,.65.29,1,.91.75a12.22,12.22,0,0,0,2.37-1.26,5.84,5.84,0,0,0-2,1.72c-.1.15-.14.41,0,.46a.33.33,0,0,0,.23-.07,13.53,13.53,0,0,0,1.79-1.32c-.61.53.82,1.24,1.19,1.24A4.84,4.84,0,0,0,117,140.51Z"/><rect class="cls-10" x="156.18" y="160.07" width="1.39" height="38.17" transform="translate(313.74 358.3) rotate(180)"/><path class="cls-10" d="M169.77,197.14h-1.5c0-3.76-7.22-5.67-11.26-5.68-3.49,0-8,.93-10.09,3a3.61,3.61,0,0,0-1.17,2.64h-1.5a5.1,5.1,0,0,1,1.61-3.7c2.57-2.57,7.59-3.48,11.11-3.48h0C161.46,190,169.77,192.09,169.77,197.14Z"/><path class="cls-10" d="M143,198.23a2,2,0,1,0,2-2A2,2,0,0,0,143,198.23Z"/><path class="cls-10" d="M155,198.23a2,2,0,1,0,2-2A2,2,0,0,0,155,198.23Z"/><path class="cls-10" d="M166.86,198.23a2,2,0,1,0,2-2A2,2,0,0,0,166.86,198.23Z"/><path class="cls-11" d="M158.22,149V126.44a7.06,7.06,0,0,1,7.07-7.06h7.78a7.06,7.06,0,0,1,7.06,7.06v25.21A10.15,10.15,0,0,1,170,161.77H144.65a1.19,1.19,0,0,1-1.2-1.19h0a1.19,1.19,0,0,1,1.2-1.19h3.17A10.4,10.4,0,0,0,158.22,149Z"/><path class="cls-8" d="M133.21,190.86a6.33,6.33,0,0,1-2.24,4.3c-2.2,1.74-5.11,1.48-7.42,3a1.85,1.85,0,0,0-.55.53,1.58,1.58,0,0,0,.09,1.52c1.4,2.31,5.73,1.14,7.83,1.1l7.93-.16a1.45,1.45,0,0,0,1.29-1.54v-10.3c0-2.2-1.51-3.91-3.36-3.79a4,4,0,0,0-3.28,3.53C133.4,189.68,133.31,190.29,133.21,190.86Z"/><path class="cls-12" d="M147.91,134.36h0s0-.06,0-.09Z"/><polygon class="cls-12" points="153.22 109.11 153.12 109.6 153.12 109.6 153.22 109.11"/><path class="cls-13" d="M145.42,109a9.87,9.87,0,0,1,1.74-3,11.78,11.78,0,0,1,8.72-4.18q-.45,4.47-1.21,8.89c-.65,3.78-1.08,7.53-3,11-2.81-1.37-6.12-1.63-8.67-3.43A73.42,73.42,0,0,1,145.42,109Z"/><path class="cls-14" d="M122.05,152.38a5.37,5.37,0,0,1,.42-1.82c.33-.76,0-1.61.53-2.21,3.22-3.63,8.85-3.18,13.17-3.62l14.9-1.53,2.7-.27.22,0c3.34-.06,6.25,3.41,6.52,7.76s-2.21,7.94-5.55,8h-.22l-15.27-.13c-3.15,0-6.28.39-9.43.13-2.67-.22-6.35-.7-7.6-3.82A5.78,5.78,0,0,1,122.05,152.38Z"/><path class="cls-14" d="M124.49,146.54c6.67-2.51,9.93,1.34,11.38,6.67a193.18,193.18,0,0,1,5.69,30.37c-.53.26-9.36,1.08-9.28,1.27q-2.37-6.12-4.72-12.26l-6.75-17.53c-1-2.54-1.19-5.18,1.31-7.2A8.44,8.44,0,0,1,124.49,146.54Z"/><path class="cls-15" d="M148.16,153a4.15,4.15,0,0,0-.3.43c-2.7,4.29,4.54,5.33,7.15,5.34h9.19c5.32,0,9.44-2.66,9.61-7.91V135l-11.36,0a51.53,51.53,0,0,0-7,0c-1.61.22-1.41-.14-2.08,1.44-.83,2-.4,5.16-.76,7.32a16,16,0,0,1-3.13,7.67C149,152,148.56,152.47,148.16,153Z"/><path class="cls-15" d="M134.44,155.22c2.07-3.35,16.07-9.14,17.86-10.39a17.33,17.33,0,0,1,12.83-3,14,14,0,0,1,6.32,2.41c2.2,1.69,2.52,4,2.32,6.59a8.72,8.72,0,0,1-5.82,7.6l-7.81,2.61-16,5.34-.16.07a3.06,3.06,0,0,1-.43.13c-2.16.5-5-.57-7.4-2.88C133.29,161,132.81,157.87,134.44,155.22Z"/><path class="cls-16" d="M149,105.57c2-2.5,5.29-4.49,8.6-4,3.69.58,6.84,3.14,8.92,6.25a35.45,35.45,0,0,1,4.24,10.31,64.71,64.71,0,0,1,2.43,11.37c.38,3.95.55,7.92.71,11.88a2.12,2.12,0,0,1-.12,1c-.3.59-1.09.7-1.75.74-3,.18-5.82,0-8.78,0-2.18-.12-4.36-.22-6.53-.47-1.43-.17-4.07,0-4.46-1.76q-1.72-7.68-3.46-15.36a101.81,101.81,0,0,1-2-10.67,13,13,0,0,1,.67-6.87A11.71,11.71,0,0,1,149,105.57Z"/><path class="cls-9" d="M153.44,108.41h0a3.82,3.82,0,0,0,3.05-4.62L154.61,95l-7,1.26,1.32,8.92A3.82,3.82,0,0,0,153.44,108.41Z"/><path class="cls-17" d="M150.39,101.09a2.79,2.79,0,0,0,2.35-.69,10.86,10.86,0,0,0,1.7-2.17c1.23-1.87,2.5-3.9,2.38-6.13a4.82,4.82,0,0,0-2.52-3.75c-1.24-.77-3.25-1.75-4.61-.88a4.77,4.77,0,0,0-1.48,1.7,12.51,12.51,0,0,0-1.55,8.16A4.46,4.46,0,0,0,150.39,101.09Z"/><path class="cls-18" d="M157.73,90c-.66-1.84-2.65-2.76-4.46-3.09-.89-.16-1.8-.18-2.68-.37a8.41,8.41,0,0,0-2-.35,2.67,2.67,0,0,0-2.14,1.19,2,2,0,0,0-.35,1.53,1.42,1.42,0,0,0,1,1.12,2.84,2.84,0,0,0,1.32-.13c1.59-.35,2.77.2,4.28.64a2.57,2.57,0,0,1,1.58,4.2,8.45,8.45,0,0,1-2,2.85l-.14.12a5.17,5.17,0,0,0-2.83-2.21c-1.71-.49-3.65-.06-3.68,2s.53,4,2.51,4.81a5.89,5.89,0,0,0,5.1-.37A5.59,5.59,0,0,0,155,99.62c.5-1.11,1.15-2.16,1.76-3.22a13.56,13.56,0,0,0,.91-1.78A6.68,6.68,0,0,0,157.73,90ZM149,98.68c-.5-.08-3-1.46-2.2-2.21s1.83-.37,2.6-.07a4.45,4.45,0,0,1,2.06,1.77A3.93,3.93,0,0,1,149,98.68Z"/><path class="cls-17" d="M153.15,95.43a1.09,1.09,0,0,0,2.13.5,1.09,1.09,0,1,0-2.13-.5Z"/><path class="cls-15" d="M134.63,155.44c-2.47,4.64-1.77,11.44-2,16.61-.08,1.76-1.25,19.53-.28,19.69,3.14.51,6.32.83,9.44,1.42a275,275,0,0,0,5.67-38.08C148,147.79,136.78,151.4,134.63,155.44Z"/><path class="cls-19" d="M126.84,80.7H92.47a7.94,7.94,0,0,0-8,7.94v.59a8,8,0,0,0,8,8h49.74l-4.85-5.57a16.15,16.15,0,0,1-3-5.48A7.94,7.94,0,0,0,126.84,80.7Z"/><line class="cls-20" x1="93.69" y1="86.54" x2="118.41" y2="86.54"/><line class="cls-20" x1="93.69" y1="91.07" x2="129.65" y2="91.07"/><path class="cls-9" d="M111.64,128.23l.33,4.66-8-2,.53-4.53,2.83.86a.55.55,0,0,0,.4,0l1.78-1a1.42,1.42,0,0,1,1.14-.11"/><path class="cls-17" d="M110.78,131.5l-.92,1a.65.65,0,0,0,.09,1h0a.65.65,0,0,0,.79,0l1.4-1.14"/><path class="cls-17" d="M109.46,130.84l-1,1a.72.72,0,0,0,.12,1h0a.7.7,0,0,0,.91-.09l1.27-1.32"/><path class="cls-17" d="M109.46,130.84l-1.28,1.31a.76.76,0,0,1-1,.07.69.69,0,0,1-.13-1.07l.81-.81a7.67,7.67,0,0,1,1.53-1.19l2.91-1.73c1.46-.85,3-.06,4.52-.21a39.58,39.58,0,0,0,5.55-1.22,89.32,89.32,0,0,0,10.83-3.38c2.82-1.1,5.45-2.49,8.15-3.82a62,62,0,0,0,7.77-4.22,13.53,13.53,0,0,1,3.4-1.94,3.89,3.89,0,0,1,3.71.53,3.62,3.62,0,0,1,.85,3.7,7.86,7.86,0,0,1-2.22,3.28c-3.11,3-7.38,4.89-11.32,6.6a52.19,52.19,0,0,1-13.12,3.85c-4.08.62-8.22.75-12.29,1.47a21,21,0,0,0-4.35.78c-.65.28-1.21.77-1.83,1.1a.62.62,0,0,1-.69-1l.76-.66"/><path class="cls-9" d="M110.65,126.11l3.61,1.17a.57.57,0,0,1,.39.65h0a.57.57,0,0,1-.6.46l-2.64-.39"/><path class="cls-9" d="M117,130.91l.9.7a.63.63,0,0,1,.07.92h0a.62.62,0,0,1-.84.07l-.9-.71a.63.63,0,0,1,0-.95h0A.62.62,0,0,1,117,130.91Z"/><path class="cls-9" d="M115.7,131.43l.89.71a.63.63,0,0,1,.08.92h0a.62.62,0,0,1-.85.06l-.89-.7a.63.63,0,0,1,0-.95h0A.64.64,0,0,1,115.7,131.43Z"/><path class="cls-9" d="M114.21,131.81l1,.76a.69.69,0,0,1,.07,1h0a.68.68,0,0,1-.92.07l-1-.77a.68.68,0,0,1,0-1h0A.68.68,0,0,1,114.21,131.81Z"/><path class="cls-9" d="M112.69,132.34l1,.76a.68.68,0,0,1,.08,1h0a.68.68,0,0,1-.92.07l-1-.77a.68.68,0,0,1,0-1h0A.67.67,0,0,1,112.69,132.34Z"/><rect class="cls-10" x="67.89" y="159.19" width="1.39" height="38.85"/><path class="cls-10" d="M81.21,197.05h-1.5a3.61,3.61,0,0,0-1.17-2.64c-2.1-2.1-6.56-3-10.05-3h0c-4,0-11.26,1.92-11.26,5.68h-1.5c0-5.05,8.31-7.17,12.76-7.18h0c3.52,0,8.54.91,11.11,3.48A5.1,5.1,0,0,1,81.21,197.05Z"/><path class="cls-10" d="M82.42,198.15a2,2,0,1,1-2-2A2,2,0,0,1,82.42,198.15Z"/><path class="cls-10" d="M70.51,198.15a2,2,0,1,1-2-2A2,2,0,0,1,70.51,198.15Z"/><path class="cls-10" d="M58.61,198.15a2,2,0,1,1-2-2A2,2,0,0,1,58.61,198.15Z"/><path class="cls-11" d="M67.24,150.49V127.94a7.07,7.07,0,0,0-7.07-7.07H52.39a7.07,7.07,0,0,0-7.06,7.07v25.21a10.15,10.15,0,0,0,10.12,10.12H80.82A1.2,1.2,0,0,0,82,162.08h0a1.19,1.19,0,0,0-1.19-1.19H77.64A10.4,10.4,0,0,1,67.24,150.49Z"/><path class="cls-8" d="M116.43,191.09c.19.33.38.67.6,1a4.18,4.18,0,0,0,3.51,1.72,23.66,23.66,0,0,1,4.07-.6,2.14,2.14,0,0,1,1.4.5c1.58,1.54-2.2,2.92-3.24,3.23l-7.08,2.13a3.08,3.08,0,0,1-1.37.18c-1.83-.33-2.38-2.72-2.93-4.15-.4-1-1.07-1.91-1.49-2.92-.31-.75-.81-2.68-.11-3.35a2.74,2.74,0,0,1,.59-.36c.4-.24.72-.59,1.13-.8,1.16-.61,2.62.08,3.47,1.08A14.93,14.93,0,0,1,116.43,191.09Z"/><path class="cls-21" d="M76.76,136.61h0a.3.3,0,0,1,0-.1Z"/><polygon class="cls-21" points="71.44 111.35 71.55 111.84 71.55 111.84 71.44 111.35"/><path class="cls-21" d="M76.67,136.24a2.68,2.68,0,0,0,.07.27l-.08-.35S76.67,136.21,76.67,136.24Z"/><path class="cls-21" d="M84.11,135.15l-7.35,1.46a3.76,3.76,0,0,0,7.35-1.46Z"/><path class="cls-22" d="M105.08,154.91c-.06-.44-.31-.84-.33-1.28-.43-8.51-22.29-9.27-28-9.67a14.12,14.12,0,0,0-5.76.51c-3.31,1.21-6.91,5.56-6.81,9.21s2.51,7.22,6.33,7.34h.25l17.09.09c2.7,0,5.4.29,8.11.32,2.13,0,4.79.41,6.67-.81A5.74,5.74,0,0,0,105.08,154.91Z"/><path class="cls-23" d="M79.58,152.87c5.5,3-4.64,8.13-9.93,8.14l-9.18,0c-5.32,0-9.44-2.67-9.61-7.91V137.25l20.36.05S73.61,149.62,79.58,152.87Z"/><path class="cls-24" d="M99.48,155.33c-4.27-2.84-21.53-7-23.88-8a30,30,0,0,0-14.76-1.94c-4.22.56-8.64,1.27-9.69,6a7.9,7.9,0,0,0,6,9.42l.29.05,39.63,7.83.26.07c.21,0,.42.08.64.11a5.57,5.57,0,0,0,6.3-4.59C105,160.93,103.09,157.74,99.48,155.33Z"/><path class="cls-8" d="M94.15,193a4,4,0,0,0,1.24,3.24c1.55,1.48,4,1.69,5.64,3a1.2,1.2,0,0,1,.37.44.93.93,0,0,1-.27,1c-1.47,1.4-4.85,0-6.56-.27l-6.46-1.16a1,1,0,0,1-.84-1.22l1.24-6.14.18-.91A2.73,2.73,0,0,1,92,188.84a2.87,2.87,0,0,1,2.19,2.85C94.15,192.13,94.14,192.56,94.15,193Z"/><path class="cls-25" d="M84.5,117.71c-1.1-1.59-2-3.27-3-4.93-1.13-1.92-2.33-4.35-4-5.85a11.35,11.35,0,0,0-1.49-1.2c-1.58-1-5.76-2.39-6.64.11a4.47,4.47,0,0,0-.06,2.15c.56,3.4,2.34,6.45,4.16,9.38l.21.32a43,43,0,0,0,5.87,8.18c2.27,2.25,6.11,4.77,9.11,2.22a3.51,3.51,0,0,0,1.15-3.21c-.42-2.36-2.77-3.88-4.19-5.65C85.23,118.74,84.85,118.23,84.5,117.71Z"/><path class="cls-24" d="M117,189.51l-13.56-28.1c-.06-.09-1.64-3.12-1.7-3.21-1.72-2.76-8.75-4.27-11.69-2.82s-2.79,4.26-1.08,7c.07.11,1.11,3.07,1.11,3.07l18.79,28.24A68.65,68.65,0,0,1,117,189.51Z"/><path class="cls-23" d="M77.75,108.53c-.61-3.93-4.43-4.42-7.85-4.53a24.29,24.29,0,0,0-9.81,1.29,16.34,16.34,0,0,0-8.55,7.42c-1.83,3.57-.21,8-.18,11.72.07,7.09-.08,14.22-.43,21.35,3.5-.16,7-.19,10.51-.37a79.39,79.39,0,0,0,8.44-.72c1-.16,3.76-.3,4.46-1.12.34-.4.19-1.52.23-2q.11-1.22.24-2.43c.38-3.39,1-6.75,1.53-10.12,1.12-6.66,2.19-13.43,1.44-20.19Z"/><path class="cls-22" d="M101.28,148.67a5.47,5.47,0,0,0-6.7.85,7.11,7.11,0,0,0-1.45,2.64,27.19,27.19,0,0,0-1,5c-1.57,11.29-2.47,22.66-4.18,33.91,0,0,2.91.53,3.1.56.6.11,5.27,1.62,5.27,1.62,3.27-10.13,6.54-20.3,8.5-30.76a26.7,26.7,0,0,0,.56-7A8.37,8.37,0,0,0,101.28,148.67Z"/><path class="cls-9" d="M68,109h0A3.84,3.84,0,0,1,65,104.32l2.09-8.77L74,97l-1.52,8.89A3.82,3.82,0,0,1,68,109Z"/><polygon class="cls-2" points="66.36 98.78 73.58 98.34 72.86 103.74 68.64 104.25 66.36 98.78"/><path class="cls-17" d="M68.71,101.65a5.3,5.3,0,0,1-3.57-4l-.69-3.33a3.9,3.9,0,0,1,3-4.62h0c1.79-.38,4.33-1.55,5.78.08a5.59,5.59,0,0,1,1.06,2.14c.57,1.85,1.25,4.65.62,6.54A5.05,5.05,0,0,1,68.71,101.65Z"/><path class="cls-18" d="M74.29,89.57a3.6,3.6,0,0,1-1.07.63,7.44,7.44,0,0,1-1.74.46c-1.07.16-2.36,0-3.31.62a4,4,0,0,0-1.62,2.57A30.42,30.42,0,0,0,66.36,98c0,.6-.31,1.35-.91,1.35a1.22,1.22,0,0,1-.88-.64,10.17,10.17,0,0,1-1.8-6.23,5,5,0,0,1,.94-2.94A6.56,6.56,0,0,1,66,88a20.65,20.65,0,0,1,5.17-2,3.6,3.6,0,0,1,2.83.55,2.1,2.1,0,0,1,.62,2.63A1.9,1.9,0,0,1,74.29,89.57Z"/><path class="cls-17" d="M67.87,96A1.09,1.09,0,0,1,67,97.31a1.08,1.08,0,0,1-1.29-.84A1.09,1.09,0,1,1,67.87,96Z"/><path class="cls-25" d="M47.81,136.21c2.5,0,5,0,7.5,0-.19-3.71,1.15-7.91,2.08-11.47,1-3.92,2.21-7.79,3.32-11.68a9.5,9.5,0,0,0,.52-3.37c-.11-1.2-1.25-3.35-2.66-3.32a3.21,3.21,0,0,0-1.46.49,16,16,0,0,0-6.81,8.36A38.64,38.64,0,0,0,48.22,126C48.16,126.79,47.64,136.21,47.81,136.21Z"/><path class="cls-17" d="M77.92,136.5l-19.34-3.25c-1.51.11-3,.25-4.52.46-.68,2-1.52,4-2.33,5.95h26.1a.31.31,0,0,0,.31-.29l.13-2.43A.42.42,0,0,0,77.92,136.5Z"/><path class="cls-17" d="M85.83,135.2c-1.59-.29-2.21.16-3.81.74-.61.22-1.46-.44-.87-.71,1.61-.75,3.63-1.51,5.29-.66C86.83,134.76,86.41,135.31,85.83,135.2Z"/><path class="cls-17" d="M76.91,137.13a6.36,6.36,0,0,1,2.8-1.48,8.31,8.31,0,0,1,4.9-.16c.81.19-.45,1.34-1,2.14s-1.57,2.24-2.18,2.17a8.51,8.51,0,0,0-3.11-.16C76.5,139.83,75.18,138.81,76.91,137.13Z"/><path class="cls-17" d="M85.55,141.37a7.64,7.64,0,0,0-4.77-2.68c-.85-.14-.78.83,0,1a6.69,6.69,0,0,1,3.9,2C85.15,142.14,86,141.86,85.55,141.37Z"/><path class="cls-17" d="M88.88,140.56c-2.41-3.19-4.77-4.34-8.4-3.89-.63.08-.44,1,.19,1,3-.21,5.48.55,7.2,2.95C88.24,141.13,89.27,141.07,88.88,140.56Z"/><path class="cls-17" d="M87,141.23A14.23,14.23,0,0,0,83.35,138a6.77,6.77,0,0,0-4.07-.51c-.64.07-.41,1,.22,1a5.5,5.5,0,0,1,4,.81,12.43,12.43,0,0,1,2.57,2.16C86.51,141.91,87.46,141.71,87,141.23Z"/><path class="cls-17" d="M84.61,135.49c-.6-.21-1.13.64-.52.86,2,.72,2.88,1,4.27,2.62.42.48,1.21.21.8-.28A8.87,8.87,0,0,0,84.61,135.49Z"/><path class="cls-25" d="M71.22,140.29c0-.13.35-.92.39-1.06.24-1.22,1-4.11,1.25-5.34l-20.34-1.67v0a3.67,3.67,0,0,0-.88-.13,3.77,3.77,0,0,0-.14,7.53h0Z"/><path class="cls-26" d="M129.32,74c-47.47-3-58.71,8.24-58.71,8.24V57.9A16.06,16.06,0,0,1,86.67,41.84h42.65A16.06,16.06,0,0,1,145.38,57.9h0C145.38,66.76,138.17,74.51,129.32,74Z"/><line class="cls-27" x1="84.84" y1="51.48" x2="133.54" y2="51.48"/><line class="cls-27" x1="84.84" y1="56.61" x2="128.29" y2="56.61"/><line class="cls-27" x1="84.84" y1="61.85" x2="114.81" y2="61.85"/><path class="cls-11" d="M186.91,139.91h-34.6a1.21,1.21,0,0,1,1.21-1.21h33.39Z"/><path class="cls-28" d="M192.85,138.7H158.28l6.17-18.25a1.61,1.61,0,0,1,1.55-1.06h31.16a1.53,1.53,0,0,1,1.56,2Z"/><rect class="cls-29" x="158.12" y="138.7" width="34.74" height="1.21"/><path class="cls-29" d="M179.33,127.16h-.13a.28.28,0,0,0-.13,0,1.59,1.59,0,0,0-1.61,1.42,1.39,1.39,0,0,0,1.4,1.38,1.42,1.42,0,0,0,1.62-1.11A1.52,1.52,0,0,0,179.33,127.16Zm-.37,2.32c-.67,0-1.31-.57-.86-1.37a1.17,1.17,0,0,1,1-.52h0l.07,0A.94.94,0,0,1,179,129.48Z"/><path class="cls-25" d="M105.05,125.38A75.64,75.64,0,0,1,96.39,124c-1.72-.3-3.43-.73-5.15-1-1.38-.22-2.63-.93-4.06-1a5.13,5.13,0,0,0-3.39,1.2c-.92.81-3,3.56-1.66,4.74s3.53,1.73,5.48,2.1a66.64,66.64,0,0,0,9,.85c2.59.16,5.18.28,7.77.3C104.68,129.3,104.94,127.34,105.05,125.38Z"/><path class="cls-13" d="M154.15,109.59l-1.61,1c-.79.48-1.58.94-2.37,1.4-.63.37-2.06.84-2.47,1.41s.42,1.73.66,2.31c.37.93.75,1.85,1.13,2.78.71,1.76,1.41,3.53,2.15,5.29.08.19,4-1.7,4.3-1.85a26,26,0,0,0,6.66-4.1,7.87,7.87,0,0,0,2.77-5.28,7.28,7.28,0,0,0-2.46-5.27,3.82,3.82,0,0,0-1.44-.87c-1.46-.43-3,.45-4.24,1.27C156.21,108.31,155.19,109,154.15,109.59Z"/><path class="cls-9" d="M235.13,147.33c0,.13.34.4.56.77a57.05,57.05,0,0,1,3.12,6.4,9,9,0,0,1,.72,1.92h0a24.25,24.25,0,0,1,.77,2.55c1,4.56,0,29.94-.24,37.11,0,0,0-.3,0-.3H236.8a1.68,1.68,0,0,1,0,.2c-.35-5-1.42-17.29-7.78-40.16-.16-.58-.33-1.14-.5-1.74-.3-1.07-.62-2.14-.94-3.26,0-.08-.61-1.61-1-2.7a9.58,9.58,0,0,1-.26-1l-.58-2.47,9.47,2.32Z"/><path class="cls-30" d="M220.41,195.78s0,.05.05.09c.19.27.73.52.83.73.62,1.35-.62,5.19-.62,5.19l-.93-.08s0-3.24-.62-3.24-2.74,3.17-3.2,3.23c-.62.09-3.92,0-3.92,0a2.08,2.08,0,0,1,1.86-2c.65-.11,2.26-2,3-3.91,0,0,0,0,0,0Z"/><path class="cls-9" d="M214.88,143.36l10,1.27s0,.44,0,.46c0,.3-.05.59-.06.82v0a38.51,38.51,0,0,0,.34,5.71c.06.6.13,1.21.19,1.84a37.32,37.32,0,0,1,0,8.2c-.64,5.35-3.86,27.36-4.83,34.17,0,0,0-.09-.05-.09H216.9s0,0,0,0c-.27-6.26-1.21-27.6-1.91-43.09,0-.62-.05-1.24-.08-1.84-.08-1.74-.15-3.39-.22-4.92,0-.28,0-.55,0-.83v0C214.62,144.73,214.86,142.87,214.88,143.36Z"/><path id="LEFT_HAND" data-name="LEFT HAND" class="cls-9" d="M218,103c.13-.64,0-4.81-.32-9.53a7.73,7.73,0,0,0,1.33,2c1.28,1.3,2.28,7.84,2.49,10.44,0,.14-2.18,3.72-5.06,9.18C217.14,109.23,217.82,103.74,218,103Z"/><path id="DRESS" class="cls-31" d="M214.63,144.09,235.16,147a2.89,2.89,0,0,1,.85.28s4.37-13.78,4.48-22.47v-.08c-.3-5.57-1.61-8.16-4.33-15.27-.37-1-.77-2-1.2-3.19-.31-.84-.63-1.73-1-2.69-1-2.92,2.62-14.28,2.62-14.28h0a10.15,10.15,0,0,1-1.72-5,45,45,0,0,1,.24-6.18,1,1,0,0,0-.91-1l-12.55-.37a.94.94,0,0,0-.92.62c-.89,2.6-3.77,8.25-4.53,11.16-.12.45-.21,1.82-.26,2.06-.54,2.33,2.62,4.47,3,4.89,1.28,1.3,2.28,7.84,2.49,10.44,0,.14-2.18,3.72-5.06,9.18C212.74,122.08,214.63,144.09,214.63,144.09Z"/><g id="PAPER"><polygon class="cls-32" points="222.68 105.24 235.24 105.24 232.09 87.41 219.53 87.41 222.68 105.24"/><polygon class="cls-33" points="223.57 104.04 236.14 104.04 232.99 86.21 220.43 86.21 223.57 104.04"/></g><path id="HAND" class="cls-17" d="M221.05,96.3s-.25.29,0,2c.16,1.21,2.18,3.71,4.16,4.27,1.33.38,19.75,3,19.46-2.44,0-.72-2.66-23.36-9.41-22.94-2.51.16-.73,6.92-.55,7.77a11.63,11.63,0,0,0,1.93,4.37s2.16,9.11,2.21,9.28S226.45,100,226.45,100s-1.49-2.23-2-2.4-1.79-.39-1.79-.39a.89.89,0,0,0,.49.73c.45.17,1.3,1,1.13,1.12S221.6,97.27,221.05,96.3Z"/><g id="HEAD"><path id="HEAD-2" data-name="HEAD" class="cls-17" d="M220.88,69a23.48,23.48,0,0,0,3.15.13h0l.18,2.76.23,3.32-.15.26-3.08,1.43,14,.3c-1.85-.67-3.41-1.4-3.78-2.2a31.76,31.76,0,0,1-.53-5.83,7.72,7.72,0,0,1-2.31-3.55c-.26-1.25,1.26-4.14-.14-4.61s-2.23,1.86-2.23,1.86-1.08-5.06-3.44-6.24c-1.42-.7-2.26-.32-2.71.13a16.71,16.71,0,0,0-1,4.89C219,63.42,220.29,68.81,220.88,69Z"/><path id="SHADOW" class="cls-34" d="M224,69.1l.19,2.76a7.32,7.32,0,0,0,2.7-5.27S225.68,68.81,224,69.1Z"/><path id="HAIR" class="cls-18" d="M220.09,56.73c.45-.45,1.3-.84,2.71-.13,2.36,1.18,3.44,6.24,3.44,6.24s.82-2.34,2.23-1.86-.12,3.36.14,4.61a7.72,7.72,0,0,0,2.31,3.55l.16-.16h0c.24-.23.47-.47.68-.71,3.2-3.64,3.31-8.16,1.89-10.27-.42-.63-.79-1.15-1.12-1.59,0,0,3-.63,3.81,1.84s-3.17,8,0,12.75c1.65,2.43,2.88,4.53.69,10.67-2.94,8.26,9.63,8.94,9.63,8.94s-2.25-4.53,1.43-7.41c3.29-2.57,2.93-8.8-.58-11-2.64-1.66-6.62-5-4.35-10s-1.81-11.38-6.59-11.93a5.42,5.42,0,0,0-6,3.85c-.59-.16-6.25-2.34-9.55,1A5,5,0,0,0,220.09,56.73Z"/></g><path class="cls-30" d="M240,195.78s0,.19,0,.21c.14.27.5.59.59.8.6,1.3-.6,5-.6,5l-.89,0s0-3.11-.59-3.11-2.64,3.05-3.08,3.11c-.59.08-3.77,0-3.77,0a2,2,0,0,1,1.79-1.9c.62-.11,2.53-2.09,3.27-3.89a1.68,1.68,0,0,0,0-.2Z"/><rect class="cls-11" y="139.59" width="261.11" height="2.68"/><polygon class="cls-11" points="258.39 203.14 256.41 203.14 240.16 140.1 242.15 140.1 258.39 203.14"/><polygon class="cls-11" points="240.41 203.14 238.43 203.14 222.18 140.1 224.17 140.1 240.41 203.14"/><polygon class="cls-11" points="3.42 203.14 5.41 203.14 21.66 140.1 19.67 140.1 3.42 203.14"/><polygon class="cls-11" points="21.4 203.14 23.39 203.14 39.64 140.1 37.65 140.1 21.4 203.14"/><rect class="cls-29" x="14.03" y="142.06" width="233.04" height="2.1"/><polygon class="cls-11" points="37.65 131.88 30.47 131.88 31.54 139.59 36.53 139.59 37.65 131.88"/><path class="cls-11" d="M36.7,137.82a3.79,3.79,0,0,0,2.21-.63,1.83,1.83,0,0,0,.71-1.5,1.91,1.91,0,0,0-.73-1.6,3,3,0,0,0-1.93-.53l.08.83a2.11,2.11,0,0,1,1.19.32,1.17,1.17,0,0,1,.41,1,1.05,1.05,0,0,1-.39.88,3,3,0,0,1-1.69.41l-.08.83Z"/><path class="cls-35" d="M289.81,135.47s-4.78,21.11,2.79,35.44l7.57,14.34S302.16,149.41,289.81,135.47Z"/><path class="cls-11" d="M290.13,190.58a23.84,23.84,0,0,0,2.33,7.49,9.72,9.72,0,0,0,5.91,4.89,13.66,13.66,0,0,0,3.56.24,7.82,7.82,0,0,0,3.8-.78,7.59,7.59,0,0,0,2.83-4.13,48.12,48.12,0,0,0,2.29-8.34,7.76,7.76,0,0,0-.28-4.89c-1-2-3.47-2.81-5.69-3.17-3.7-.61-8.8-.92-12.34.59C289.45,183.8,289.63,187.75,290.13,190.58Z"/><path class="cls-36" d="M298.52,185.32a16.62,16.62,0,0,0,8-1.27c.37-.2.7-.46.52-.7s-1-.41-1.67-.48a41.77,41.77,0,0,0-10.89.06C289.39,183.79,295.84,185.16,298.52,185.32Z"/><path class="cls-37" d="M297,130.29s-2.39,40.23,3.19,55C300.17,185.25,303.75,149.41,297,130.29Z"/><path class="cls-35" d="M299.46,185h1.3c1.9-8,7.59-33.76,4.58-45.8,0,0-9.55,33.85-7.17,41.42C298.76,182.57,299.17,184,299.46,185Z"/></g></g></g></svg>