<?xml version="1.0" encoding="utf-8"?>
<!-- Generator: Adobe Illustrator 24.0.0, SVG Export Plug-In . SVG Version: 6.00 Build 0)  -->
<svg version="1.1" id="Layer_1" xmlns="http://www.w3.org/2000/svg" xmlns:xlink="http://www.w3.org/1999/xlink" x="0px" y="0px"
	 viewBox="0 0 110.9 115" style="enable-background:new 0 0 110.9 115;" xml:space="preserve">
<style type="text/css">
	.st0{fill:#FAB68A;}
	.st1{fill:#75ABD8;}
	.st2{fill:#F1D2B6;}
	.st3{fill:#F7F6F1;}
	.st4{fill:#CDCCEC;}
	.st5{fill:#FA5770;}
	.st6{fill:#91BEE8;}
	.st7{clip-path:url(#SVGID_2_);}
	.st8{fill:#1F1C38;}
	.st9{fill:#F5B58F;}
	.st10{fill:#42210B;}
	.st11{fill:#B3AE9E;}
	.st12{fill:#F49E87;}
	.st13{fill:#F7B690;}
	.st14{fill:#F2B892;}
	.st15{fill:#E3917A;}
	.st16{fill:#FF9C5A;}
	.st17{fill:#FFFFFF;}
	.st18{fill:#6DA6C7;}
	.st19{fill:#D4824B;}
	.st20{fill:#FFD573;}
	.st21{fill:#FDD247;}
	.st22{opacity:0.45;fill:#F7F6F1;enable-background:new    ;}
</style>
<title>pending image</title>
<g id="Layer_2_1_">
	<g id="Layer_1-2">
		<path class="st0" d="M4.8,100.5c-1.1,0-2-0.9-2-2s0.9-2,2-2s2,0.9,2,2S5.9,100.5,4.8,100.5z M4.8,97.5c-0.6,0-1.1,0.5-1.1,1.1
			c0,0.6,0.5,1.1,1.1,1.1s1.1-0.5,1.1-1.1c0,0,0,0,0,0C5.9,97.9,5.5,97.4,4.8,97.5C4.9,97.4,4.8,97.4,4.8,97.5L4.8,97.5z"/>
		<path class="st1" d="M11.9,23.4c-0.3,0-0.6-0.3-0.6-0.6v-2.9c0-0.3,0.3-0.6,0.6-0.6c0.3,0,0.6,0.3,0.6,0.6v2.9
			C12.5,23.1,12.3,23.4,11.9,23.4z"/>
		<path class="st1" d="M13.3,21.9h-2.9c-0.3,0-0.6-0.3-0.6-0.6c0-0.3,0.3-0.6,0.6-0.6c0,0,0,0,0,0h2.9c0.3,0,0.6,0.3,0.6,0.6
			C13.9,21.6,13.7,21.9,13.3,21.9z"/>
		<path class="st1" d="M23.9,115c-0.1,0-0.2,0-0.3-0.2l-7-15.4c0-0.1,0-0.1,0-0.2c0-0.1,0.1-0.1,0.1-0.2l10.7-4.8c0.1,0,0.1,0,0.2,0
			l2.8,0.8c0.1,0,0.1,0.1,0.2,0.2l6.2,13.7c0.1,0.1,0,0.3-0.1,0.4L23.9,115L23.9,115z M17.3,99.4l6.8,15l12.2-5.5l-6-13.4l-2.6-0.7
			L17.3,99.4z"/>
		<path class="st1" d="M27.9,97.6c-0.1,0-0.1,0-0.2,0c-0.1,0-0.2-0.1-0.2-0.2l-0.3-2.9c0-0.1,0-0.2,0.1-0.2c0.1,0,0.2,0,0.3,0
			l2.8,0.8c0.1,0,0.2,0.1,0.2,0.2c0,0.1,0,0.2-0.1,0.3l-2.6,2.1C28,97.6,28,97.6,27.9,97.6z M27.9,94.8l0.2,2l1.8-1.4L27.9,94.8z"/>
		<path class="st1" d="M24,111.4c-0.1,0-0.2,0-0.3-0.2c-0.1-0.1,0-0.3,0.1-0.4l9.3-4.2c0.1-0.1,0.3,0,0.4,0.1s0,0.3-0.1,0.4
			L24,111.4L24,111.4z"/>
		<path class="st1" d="M23.1,109.5c-0.1,0-0.2,0-0.3-0.2c-0.1-0.1,0-0.3,0.1-0.4c0,0,0,0,0,0l9.3-4.2c0.1-0.1,0.3,0,0.4,0.1
			c0.1,0.1,0,0.3-0.1,0.4L23.1,109.5L23.1,109.5z"/>
		<path class="st1" d="M22.3,107.6c-0.1,0-0.2,0-0.3-0.2c-0.1-0.1,0-0.3,0.1-0.3c0,0,0,0,0,0l9.3-4.2c0.1-0.1,0.3,0,0.4,0.1
			c0.1,0.1,0,0.3-0.1,0.4L22.3,107.6L22.3,107.6z"/>
		<path class="st1" d="M21.4,105.6c-0.1,0-0.2,0-0.3-0.2c-0.1-0.1,0-0.3,0.1-0.4c0,0,0,0,0,0l9.3-4.2c0.1-0.1,0.3,0,0.4,0.1
			c0.1,0.1,0,0.3-0.1,0.4c0,0,0,0-0.1,0L21.4,105.6L21.4,105.6z"/>
		<path class="st1" d="M20.5,103.7c-0.1,0-0.2,0-0.3-0.2c-0.1-0.1,0-0.3,0.1-0.4l9.3-4.2c0.1-0.1,0.3,0,0.4,0.1c0,0,0,0,0,0
			c0.1,0.1,0,0.3-0.1,0.3c0,0,0,0,0,0L20.5,103.7L20.5,103.7z"/>
		<path class="st1" d="M22.1,100.6c-0.1,0-0.2,0-0.3-0.2c-0.1-0.1,0-0.3,0.1-0.3c0,0,0,0,0,0l4.5-2c0.1-0.1,0.3,0,0.4,0.1
			c0.1,0.1,0,0.3-0.1,0.4c0,0,0,0,0,0L22.1,100.6L22.1,100.6z"/>
		<path class="st2" d="M73.1,14c0,0.2,1.1,2.9,1.1,2.9l-2.7,1.5l0.3,2.2l3.3,1.2l-0.5,3.2L72,24.8l-1,2.1l1.8,2.5l-1.3,1.9L68.8,30
			l-2.2,1.7l0.4,3l-2.2,0.9l-1.9-2.5l-2.8,0.5l-0.9,2.8l-2.4-0.2l-0.4-3l-2.6-1.4l-2.4,1.7l-2-1.8l1.2-2.7l-1.8-2.5l-2.9,0.3
			c0,0-0.8-2.1-0.9-2.3l2.6-1.4l-0.2-2.5l-3-1l0.2-3l3.5,0.1c0,0,1-1.8,1.3-2.4l-3-3.2l1.1-1.8c0.1-0.1,0.2-0.3,0.4-0.4l3.5,2.2
			l2-1.3l-0.8-3.4l1.4-0.6c0.7-0.2,1.4-0.4,1.4-0.4L57,8.5l2.4-0.3l1.1-3.9c0.2,0,0.4,0,0.5,0l2.1,0.6l-0.2,4.3c0.7,0.3,2.6,1,2.6,1
			l2.5-2.3l2,1.6l-1.4,3.4l1.6,2L73.1,14z"/>
		<ellipse transform="matrix(0.8823 -0.4707 0.4707 0.8823 -2.741 30.2462)" class="st3" cx="59.1" cy="20.6" rx="6.9" ry="7.3"/>
		<ellipse transform="matrix(0.8823 -0.4707 0.4707 0.8823 -2.7272 30.2496)" class="st2" cx="59.1" cy="20.6" rx="5.8" ry="6.1"/>
		<path class="st4" d="M76.8,18.9c0.3-0.1,3.6-1.6,3.6-1.6l2.3,3.2l2.8-0.5l1.1-4.2l4.2,0.4l0.2,3.4l2.8,1.1l2.9-2.4l2.7,1.5
			l-1.1,3.4l2.5,2.6l3.8-0.7l1.5,2.6l-3,2.5l1,3.5l3.8,1v3l-3.8,0.7l-1.4,3.3l2.5,2.8l-2.1,2.6l-3.6-1.3l-3.1,2.3l0.7,3.5
			c0,0-2.6,1.1-2.8,1.3L92,49.9l-3.3,0.4l-0.8,3.7l-4-0.1l-0.3-4.3c0,0-2.5-1.1-3.3-1.4L76.7,52l-2.5-1.3c-0.2-0.1-0.4-0.3-0.6-0.4
			l2.4-4.4l-1.9-2.4l-4.3,1.3l-1-1.6c-0.4-0.9-0.7-1.7-0.7-1.7l3.9-2.3l-0.8-2.9l-5.3-1.1c0-0.2,0-0.5,0-0.7l0.5-2.6l5.6-0.1
			c0.3-0.8,0.9-3.3,0.9-3.3l-3.4-3l1.8-2.5l4.6,1.5l2.4-2.1L76.8,18.9z"/>
		<ellipse class="st3" cx="87.4" cy="35.8" rx="9.4" ry="8.7"/>
		<ellipse class="st4" cx="87.3" cy="35.7" rx="7.8" ry="7.2"/>
		<circle class="st5" cx="95.2" cy="103" r="11.2"/>
		<path class="st3" d="M100.2,108.3H90.2c-0.9,0-1.7-0.8-1.7-1.7V100c0-0.9,0.8-1.7,1.7-1.7h10.1c0.9,0,1.7,0.8,1.7,1.7v6.6
			C101.9,107.5,101.2,108.3,100.2,108.3z M90.2,99c-0.6,0-1,0.4-1,1v6.6c0,0.6,0.4,1,1,1h10.1c0.6,0,1-0.4,1-1V100c0-0.6-0.4-1-1-1
			H90.2z"/>
		<path class="st3" d="M93.2,99c-0.4,0-0.7-0.3-0.7-0.7v0V97c0-0.4,0.3-0.7,0.7-0.7h0h4c0.4,0,0.7,0.3,0.7,0.7c0,0,0,0,0,0v1.2
			c0,0.4-0.3,0.7-0.7,0.7c-0.4,0-0.7-0.3-0.7-0.7c0,0,0,0,0,0v-0.5h-2.5v0.6C93.9,98.7,93.6,99,93.2,99C93.2,99,93.2,99,93.2,99z"/>
		<path class="st3" d="M95.3,103.6L95.3,103.6l-5.8-1.3c-0.2,0-0.3-0.2-0.3-0.4c0-0.2,0.2-0.3,0.4-0.3c0,0,0,0,0,0l5.6,1.3l5.6-1.3
			c0.2,0,0.4,0.1,0.4,0.3c0,0.2-0.1,0.4-0.3,0.4L95.3,103.6L95.3,103.6z"/>
		<path class="st3" d="M94.9,102.2h0.7c0.3,0,0.5,0.2,0.5,0.5v0.8c0,0.3-0.2,0.5-0.5,0.5h-0.7c-0.3,0-0.5-0.2-0.5-0.5v-0.8
			C94.3,102.5,94.6,102.2,94.9,102.2z"/>
		<path class="st6" d="M100.2,64.1c0.1-0.4,0.1-0.9,0-1.3c-0.4-1.7-0.7-3.4-1.1-5.1l-10.9-0.1c-0.6-1.6-1.9-6.5-1.9-6.5l6.7-5.8
			l-3.5-5L80.6,43l-4.8-4.1l3-6.8c-0.5-0.1-7-3.1-7-3.1l-4.5,6.3l-5.5-1l-2.2-8.2l-8.3,0.8l-0.4,6.6l-5.5,2.1L39.8,31l-5.2,3
			l2.2,6.8L31.8,46l-7.4-1.4l-3,5.1l5.9,5l-2,6.9l-7.3,1.8l-0.1,5.9l7.4,1.4l2.8,6.5l-4.9,5.5l4.1,5.1l7.1-2.6l6,4.6l-1.4,7
			c0,0,5.1,2.2,5.5,2.5l4.5-6l6.4,0.7l1.7,7.2l7.8-0.1l0.6-8.5c0,0,4.8-2.2,6.6-2.8l7.1,7.7l5-2.5c0.4-0.2,0.8-0.5,1.1-0.9l-4.8-8.7
			l3.8-4.7l8.5,2.5c0,0,1-1.6,1.9-3.2c0.8-1.7,1.4-3.4,1.4-3.4L88.4,72l1.5-5.7L100.2,64.1z M80.2,63.8c0,12.4-10,22.4-22.4,22.4
			s-22.4-10-22.4-22.4c0-12.4,10-22.4,22.4-22.4C70.1,41.4,80.1,51.4,80.2,63.8L80.2,63.8L80.2,63.8z"/>
		<g>
			<defs>
				<path id="SVGID_1_" d="M80.9,63.5c-0.1,0.5-0.2,1-0.3,1.5c-2.9,11.6-9.5,21.3-22.9,21.3c-6.8,0-12.8-3.4-17.5-8.1
					c-2.6-2.6-4.9-5.6-6.8-8.8c-1.5-2.5-2.5-7.1-4.4-9.1l-2.5-2.5c-1.6-1.5-3.1-3.2-4.3-5.1c-1.8-3.2-2.2-7.1-1-10.5
					c1.2-3.4,3.5-4.6,5.7-6.9c1.6-1.7,2.5-3.8,4.2-5.5c1.8-1.8,3.9-3.3,6.1-4.4C49,19.7,62.9,21.5,72.7,30
					C82.8,39.2,83.7,51.3,80.9,63.5z"/>
			</defs>
			<clipPath id="SVGID_2_">
				<use xlink:href="#SVGID_1_"  style="overflow:visible;"/>
			</clipPath>
			<g class="st7">
				<g id="character6">
					<path class="st8" d="M65.8,30.9c-4.3-10-14.2-3.7-19.5,1.6c-2,1.8-3.2,4.3-3.4,7c0,1.4,0.3,2.9,0,4.3c-0.6,2.6-3.2,4-5.5,5.4
						s-4.7,3.3-4.6,5.9c0.1,2,1.6,3.7,1.3,5.7s-2.2,3.3-3.7,4.6c-3.4,3.3-3.2,6.8-3.5,11c-0.3,4-0.7,7.3,2.6,10.3
						c2.6,2.3,21.6,8.6,25,8.6c12.4,0.2,10.4-6,14.4-8.8c2.3-1.6,8.4-0.5,10.4-6.1c2.6-7.6-2.7-12.2-1.8-16.4
						c0.5-2.7,4.6-6.8,3.6-12.6c-0.9-5-8.7-6.2-10.1-9.6C70.2,39.6,74.1,32.4,65.8,30.9z"/>
					<path class="st9" d="M81.2,74.9c5.8,1.1,11.2,1.6,13.9,2.4s8.1,1.6,8.8,2.5s-8.6,0.6-9.2,0.6s-1.5-0.6-2-0.7s-9.3,1.5-11.6,1.1
						S77.9,74.3,81.2,74.9z"/>
					<path class="st9" d="M71.9,74.4c1.3,3.5,4.4,5.9,8.1,6.4c6.2,0.8,0.2-5.3,0.2-5.3L78.8,74l-2.3-6.4
						C76.6,67.6,69.2,71,71.9,74.4z"/>
					<path class="st10" d="M71.6,102c-1.1-10.4-4.5-16.8-6-21.4L49,80.8c0,0-7.5,12.1-8.7,18.3c-0.4,2,0.3,11.6,0.9,29.5
						c0.1,2.7-4.2,11.2-4.2,13.8c0.3,9.5,2.6,17.5,4,23.8c1.6,0.7,3.5,0.8,5.2,0.2c2-14.8,4.2-20.3,6.4-33.4
						c2.4-14.6,4.1-22.3,4.3-22.3s3.4,5.7,7.6,16.9c1.3,3.5-0.3,10.4,1.2,14.1c3.7,9.8,10.3,17.4,13.3,23c0.3,0.6,4.5-0.9,4.4-1.6
						C79.3,143.3,71.6,102.1,71.6,102z"/>
					<path class="st3" d="M46.5,53.3c-4-1.2-12.3,23.4-11.4,25.8c0.7,1.8,4.1,4.3,7.9,1.1c1.2-1,4-9.3,4.3-14.6
						C50.9,61.6,47.7,53.6,46.5,53.3z"/>
					<path class="st3" d="M69.5,52.9c3.8-0.9,6.7,15,8.8,20.3c0.9,2.4-3.5,5.3-5,3.7c-1.3-1.4-3.3-6.8-4.5-12
						C65.2,60.9,68.4,53.2,69.5,52.9z"/>
					<path class="st3" d="M52.5,50.5c0.4-0.5,2.3-1.9,2.7-2.7s5.8-0.9,6.5,0.2c0.4,0.6,1.9,2.2,2,2.4c1.1,1.9,0,21.3-5.4,20.5
						C52.5,69.9,50.4,53.3,52.5,50.5z"/>
					<path class="st5" d="M52.5,50.1c0.6,0,5.6,16.2,6.4,16.2c0.9,0,4.7-16.1,5-16.1c1.3,0.1,5.4,1.7,5.7,2.7c0.2,0.5-2,5.6-0.7,12
						c-1.1,7.6-2.5,15.8-2.5,17.7c0,0.7-3.5,2.8-3.8,2.8c-0.5,0-3-3.3-3.4-3.3c-0.6,0-3.8,3.7-4.3,3.7s-6.9-2.5-6.9-3.2
						c0.1-2.3-0.2-9.6-0.6-17c2.2-5.7-1-11.9-0.8-12.3C46.9,52.5,51.8,50.1,52.5,50.1z"/>
					<path class="st11" d="M56.1,53.9c-0.6,0-2.3-1.8-3-3.6c0-0.1,0-0.1,0.1-0.2c0.1,0,0.1,0,0.2,0.1c0.8,1.9,2.4,3.6,2.8,3.5
						c0.6-0.5,1.2-1.1,1.6-1.8c0.9-1.1,1.3-1.5,1.5-1.5s0.4,0.3,1.1,1.3c0.4,0.6,1.2,1.9,1.4,1.8c0.4-0.3,0.8-0.8,1.1-1.2
						c0-0.1,0.1-0.1,0.2-0.1c0.1,0,0.1,0.1,0.1,0.2c-0.3,0.5-0.7,1-1.2,1.4c-0.4,0.1-0.9-0.6-1.7-1.9c-0.2-0.4-0.5-0.8-0.9-1.2
						c-0.5,0.4-0.9,0.9-1.2,1.5C57.1,53.1,56.5,53.8,56.1,53.9L56.1,53.9z"/>
					<path class="st3" d="M59.1,82C59.1,82,59,82,59.1,82C59,82,59,81.9,59,81.8c0,0,0,0,0,0c0.3-0.3,0.6-0.6,0.8-0.9
						c0,0,0.1-0.1,0.1-0.1c0-0.2,0.1-1.9,0-6.1c-0.1-3.2-0.2-5.9-0.2-6c-0.2-0.6-0.5-1.2-0.8-1.8c-0.1,0-0.1-0.1-0.1-0.1
						c0-0.1,0.1-0.1,0.1-0.1c0,0,0.1,0,0.1,0c0,0,0,0,0,0c0.3,0.6,0.6,1.2,0.8,1.8c0,0.2,0.2,3.8,0.2,6.2c0.1,6,0,6.2,0,6.2L60.1,81
						c-0.2,0.4-0.5,0.7-0.8,0.9C59.2,82,59.2,82,59.1,82z"/>
					<path class="st3" d="M58.3,68c-0.6-0.2-0.3,1,0,1S58.8,68.1,58.3,68z"/>
					<path class="st3" d="M58.2,68.6h-0.8c-0.1,0-0.1-0.1-0.1-0.1l0,0c0-0.1,0-0.1,0.1-0.1h1.3c0.1,0,0.1,0,0.1,0.1
						c0,0.1,0,0.1-0.1,0.1c0,0,0,0,0,0L58.2,68.6z"/>
					<path class="st11" d="M58.9,61.6c-0.5-0.1-0.2,0.7,0,0.7S59.3,61.7,58.9,61.6z"/>
					<path class="st11" d="M58.9,62.1h-0.4c-0.1,0-0.1,0-0.1-0.1c0-0.1,0-0.1,0.1-0.1c0,0,0,0,0.1,0h0.7c0.1,0,0.1,0,0.1,0.1
						c0,0.1,0,0.1-0.1,0.1H58.9z"/>
					<path class="st11" d="M58.9,57.2c-0.5-0.1-0.2,0.7,0,0.7S59.3,57.3,58.9,57.2z"/>
					<path class="st11" d="M58.9,57.6h-0.4c-0.1,0-0.1-0.1-0.1-0.1c0-0.1,0-0.1,0.1-0.1c0,0,0,0,0,0c0.2,0,0.5,0,0.7,0
						c0.1,0,0.1,0,0.1,0.1c0,0,0,0,0,0c0,0.1,0,0.1-0.1,0.1c0,0,0,0,0,0H58.9z"/>
					<path class="st11" d="M58.9,52.9c-0.5-0.1-0.2,0.7,0,0.7S59.3,53,58.9,52.9z"/>
					<path class="st11" d="M58.8,53.4h-0.4c-0.1,0-0.1,0-0.1-0.1c0,0,0,0,0,0c0-0.1,0-0.1,0.1-0.1c0,0,0,0,0,0c0.2,0,0.5,0,0.7,0
						c0.1,0,0.1,0.1,0.1,0.1c0,0.1-0.1,0.1-0.1,0.1L58.8,53.4z"/>
					<path class="st3" d="M58.5,72.3c-0.6-0.2-0.3,1,0,1S59,72.4,58.5,72.3z"/>
					<path class="st3" d="M58.4,72.9h-0.8c-0.1,0-0.1,0-0.1-0.1c0,0,0,0,0,0c0-0.1,0-0.1,0.1-0.1c0,0,0,0,0,0h1.3
						c0.1,0,0.1,0,0.1,0.1s0,0.1-0.1,0.1c0,0,0,0-0.1,0H58.4z"/>
					<path class="st3" d="M58.7,76.4c-0.6-0.1-0.3,1,0,1S59.2,76.6,58.7,76.4z"/>
					<path class="st3" d="M58.6,77h-0.8c-0.1,0-0.1-0.1-0.1-0.1l0,0c0-0.1,0.1-0.1,0.1-0.1c0.5,0,1.2,0,1.3,0c0.1,0,0.1,0,0.1,0.1
						c0,0.1,0,0.1-0.1,0.1H58.6z"/>
					<path class="st3" d="M58.5,80.6c-0.6-0.1-0.3,1,0,1S59,80.7,58.5,80.6z"/>
					<path class="st3" d="M58.4,81.2h-0.8c-0.1,0-0.1-0.1-0.1-0.1c0-0.1,0.1-0.1,0.1-0.1l0,0c0.5,0,1.2,0,1.3,0
						c0.1,0,0.1,0.1,0.1,0.1c0,0.1-0.1,0.1-0.1,0.1L58.4,81.2z"/>
					<path class="st11" d="M59.9,62.9L59.9,62.9c-0.1,0-0.1-0.1-0.1-0.1c0,0,0,0,0,0c0-0.8,0-4.8,0-7.8c0-1.2,0-2.1,0-2.7
						c0-0.1,0-0.1,0.1-0.1c0,0,0,0,0,0c0.1,0,0.1,0.1,0.1,0.1c0,0.6,0,1.6,0,2.7c0,3,0,7,0,7.8C60,62.9,59.9,62.9,59.9,62.9
						C59.9,62.9,59.9,62.9,59.9,62.9z"/>
					<path class="st11" d="M57.9,63.4L57.9,63.4c-0.1,0-0.1-0.1-0.1-0.1c0-0.8,0-4.9,0-7.9c0-1.2,0-2.2,0-2.7c0-0.1,0.1-0.1,0.1-0.1
						c0.1,0,0.1,0,0.1,0.1c0,0,0,0,0,0c0,0.6,0,1.6,0,2.7c0,3,0,7.2,0,7.9C58.1,63.4,58,63.4,57.9,63.4
						C57.9,63.4,57.9,63.4,57.9,63.4z"/>
					<path class="st12" d="M61.6,43.5c-0.1,0.7,0.1,3.9,0.1,4.9c-0.2,1-1,1.7-2,1.8c-2.5,0-4.4-1.7-4.3-2.1c0.2-2.8,0.1-5.6-0.4-8.4
						c0.5-0.2,0.7-1,1.9-0.2C58.5,40.6,60.1,42,61.6,43.5z"/>
					<path class="st11" d="M56.9,110.5L56.9,110.5c-0.1,0-0.2-0.1-0.2-0.3c0,0,0,0,0,0c0.2-1,0.4-2,0.6-2.9c0.4-2.3,0.9-4.5,1.6-6.7
						c0.1-0.1,0.2-0.2,0.3-0.1c0.1,0,0.2,0.2,0.1,0.3c0,0,0,0,0,0c-0.7,2.2-1.2,4.4-1.6,6.6l-0.6,2.9
						C57.1,110.4,57,110.5,56.9,110.5z"/>
					<path class="st13" d="M60.4,46.2c-4.1-0.1-6.1-4.5-6.2-7.5c-0.4,0.7-0.8,0-1-1.3s0.1-2.3,0.4-2.3c0.6,0,0.5,0.8,0.6,1
						c0.6,0,3.1-4.2,7.9-3.2C67,34.1,63,46.3,60.4,46.2z"/>
					<path class="st14" d="M41.1,74.7c-2-6.9-6.3-11.8-8.5-19.7c-0.5-1.8-3.7-1.7-3.3,0.1c0.5,2.3,2.2,16.6,3.2,19.4
						c1.1,3,5,6.3,7.3,5.9C41.4,80.1,41.7,76.7,41.1,74.7z"/>
					<path class="st14" d="M32.1,56.1c0.2-2,2.1-3.6,2-4.9s-1.4-2.1-2-4c-0.4-1.3-1.3,1.2-0.3,2.2c0.9,0.8,0.3,1.4-0.7,1
						s-4.7-6.3-5.6-6.9c-0.2-0.2-0.5,0.1-0.4,0.4c0.5,1.2,1,2.3,1.6,3.4c0,0.4-1.4,2.2-1.4,3.5c-0.1,2.6,3.8,3.9,4.3,4.9
						S32.1,56.1,32.1,56.1z"/>
					<path class="st15" d="M27.4,52.6c0.2,0,0.4,0,0.6-0.1c0.1-0.1,0.2-0.2,0.4-0.3c0.1-0.1,0.1-0.2,0-0.3c0,0,0,0,0,0
						c-0.1-0.1-0.2-0.1-0.3,0c0,0,0,0,0,0c-0.2,0.2-0.2,0.2-0.2,0.2c-0.1,0-0.2,0-0.3,0c-0.1,0-0.2-0.1-0.2-0.2l-0.1-0.2
						c-0.2-0.6-0.3-0.8-0.4-0.9s-0.4-0.1-0.8,0c-0.1,0-0.2,0.2-0.2,0.3c0,0.1,0.2,0.2,0.3,0.2c0,0,0,0,0,0c0.1,0,0.2-0.1,0.4-0.1
						c0.1,0.2,0.2,0.4,0.3,0.7l0.1,0.2c0.1,0.2,0.2,0.4,0.5,0.5L27.4,52.6z"/>
					<path class="st15" d="M29.4,50.6c0.2,0,0.3,0,0.5-0.1c0.2-0.1,0.3-0.3,0.4-0.5c-0.2-0.8-0.5-1.6-1-2.2
						c-0.6-0.6-1.5-0.9-2.3-0.8c-0.1,0-0.2,0.1-0.2,0.3c0,0.1,0.1,0.2,0.3,0.2c0,0,0,0,0,0c0.7-0.1,1.4,0.2,2,0.6
						c0.4,0.6,0.7,1.2,0.9,1.9c0,0-0.1,0.1-0.2,0.1c-0.1,0-0.2,0-0.3-0.1c-0.1-0.1-0.2-0.1-0.3,0c0,0,0,0,0,0
						c-0.1,0.1-0.1,0.2,0,0.3C29.1,50.5,29.2,50.5,29.4,50.6z"/>
					<path class="st15" d="M28.6,51.7c0.2,0,0.4,0,0.6-0.1c0.3-0.2,0.4-0.6,0.3-1c0-0.2-0.6-2.1-1.1-2.3C27.9,48.1,27.5,48,27,48
						h-0.2c-0.1,0-0.3,0.1-0.3,0.2c0,0,0,0,0,0c0,0.1,0.1,0.2,0.2,0.3c0,0,0,0,0,0H27c0.4,0,0.8,0.1,1.1,0.2
						c0.4,0.6,0.7,1.3,0.8,2.1c0.1,0.2,0,0.4-0.1,0.5c-0.1,0.1-0.3,0.1-0.4,0c-0.1-0.1-0.3,0-0.3,0.1c-0.1,0.1-0.1,0.2,0,0.3
						c0,0,0,0,0,0C28.3,51.6,28.5,51.7,28.6,51.7z"/>
					<path class="st15" d="M28,52.3c-0.1-0.1-0.2-0.2-0.1-0.3c0,0,0,0,0,0c-0.1-0.7-0.4-1.4-0.7-2c-0.4-0.1-0.8-0.2-1.1-0.2
						c-0.1,0-0.2-0.1-0.2-0.2s0.1-0.2,0.2-0.2c0,0,0,0,0,0c0.5,0,1,0.1,1.4,0.3c0.5,0.8,0.8,1.6,0.8,2.5
						C28.3,52.3,28.2,52.3,28,52.3L28,52.3z"/>
				</g>
			</g>
		</g>
		<path class="st16" d="M28.1,32.5h-9.9c-0.9-0.1-1.6-0.9-1.6-1.8c0.1-0.8,0.7-1.5,1.6-1.6h9.9c0.9-0.1,1.8,0.6,1.8,1.6
			s-0.6,1.8-1.6,1.8C28.3,32.6,28.2,32.6,28.1,32.5z"/>
		<path class="st16" d="M28.1,36.8h-9.9c-0.9-0.1-1.6-0.9-1.6-1.8c0.1-0.8,0.7-1.5,1.6-1.6h9.9c0.9-0.1,1.8,0.6,1.8,1.6
			c0.1,0.9-0.6,1.8-1.6,1.8C28.3,36.8,28.2,36.8,28.1,36.8z"/>
		<path class="st16" d="M26.1,39.4h-5.7c-0.5,0-0.9-0.4-0.9-0.8c0-0.5,0.4-0.9,0.9-0.9h5.7c0.5,0,0.9,0.4,0.9,0.9
			C26.9,39,26.5,39.4,26.1,39.4L26.1,39.4z"/>
		<path class="st17" d="M35.9,13.6c0-7-5.7-12.7-12.7-12.7c-7,0-12.7,5.7-12.7,12.7c0,4.6,2.5,8.8,6.4,11.1c0.5,0.3,0.8,0.8,0.8,1.3
			l0,0c0,0.8,0.7,1.5,1.5,1.5l0,0h8c0.8,0,1.5-0.7,1.5-1.5l0,0l0,0c0-0.5,0.3-1,0.8-1.3C33.5,22.4,35.9,18.1,35.9,13.6z"/>
		<path class="st16" d="M27.2,28.3h-8c-1.3,0-2.4-1.1-2.4-2.4c0-0.2-0.1-0.5-0.3-0.6c-6.5-3.7-8.8-12-5-18.5C13.9,2.6,18.4,0,23.2,0
			h0.1c7.5,0,13.5,6.2,13.5,13.6c0,4.8-2.6,9.3-6.9,11.7c-0.2,0.1-0.3,0.3-0.3,0.6C29.6,27.2,28.5,28.3,27.2,28.3z M23.2,1.7
			c-6.6,0-11.9,5.3-11.9,11.9c0,4.3,2.3,8.2,6,10.3c0.7,0.4,1.2,1.2,1.2,2c0,0.4,0.3,0.7,0.7,0.7h8c0.4,0,0.7-0.3,0.7-0.7l0,0
			c0-0.8,0.5-1.6,1.2-2.1c5.7-3.2,7.7-10.5,4.4-16.2C31.4,4,27.5,1.7,23.2,1.7L23.2,1.7z"/>
		<path class="st17" d="M24.5,26.2c-0.6-3.7,0-7.5,1.7-10.8c2.6-4.2,5.7-4.4,6-3.3c0.4,1.5-4,3.2-6.5,2s-3.3-6.4-1.2-6.5
			c1.9-0.1,2,6.1-1.6,7.1c-3.3,0.9-6.9-4.4-4.6-5.5c2-1,3.5,5.3,0.6,7.1L24.5,26.2z"/>
		<path class="st16" d="M24.5,27.1c-0.4,0-0.8-0.3-0.8-0.7c-0.7-3.9,0-7.9,1.8-11.4l-0.1-0.1c-0.2-0.1-0.3-0.2-0.5-0.3
			c-0.5,0.4-1.1,0.8-1.7,0.9c-0.8,0.2-1.6,0.2-2.4-0.1c-0.3,0.7-0.8,1.2-1.4,1.6c-0.4,0.2-0.9,0.1-1.2-0.3c-0.2-0.4-0.1-0.9,0.3-1.1
			c0.4-0.2,0.6-0.6,0.8-0.9c-1-0.7-1.8-1.7-2.3-2.9c-0.6-1.5-0.2-2.8,0.9-3.3c0.8-0.4,1.9-0.3,2.7,1.1c0.7,1.3,0.9,2.8,0.7,4.2
			c0.4,0.2,0.9,0.2,1.4,0.1c0.4-0.1,0.7-0.3,1-0.5c-1-1.4-1.4-3.1-1.1-4.8c0.1-1,1-1.8,2-1.8c0.8,0,1.8,0.6,2.1,2.4
			c0.2,1.4-0.1,2.8-0.8,4.1l0.2,0.1c0.1,0.1,0.3,0.1,0.4,0.2c1.9-2.3,3.9-3,5.1-2.8c0.7,0.1,1.3,0.5,1.5,1.2
			c0.2,0.8-0.2,1.7-0.9,2.1c-1.4,1-3.2,1.5-5,1.4l-0.3,0.4c-1.7,3.1-2.2,6.7-1.6,10.3c0.1,0.5-0.2,0.9-0.7,1
			C24.6,27.1,24.6,27.1,24.5,27.1L24.5,27.1z M31.2,12.4c-0.1,0-0.2,0-0.4,0c-0.8,0.2-1.5,0.6-2.1,1.2c0.6-0.1,1.3-0.3,1.9-0.6
			c0.3-0.1,0.6-0.4,0.8-0.6C31.3,12.4,31.3,12.4,31.2,12.4z M18.7,10L18.7,10c-0.4,0.2-0.2,0.8-0.1,1.2c0.2,0.6,0.6,1.1,1.1,1.6
			c0-0.4,0-0.8-0.1-1.1C19.3,10.5,18.9,10,18.7,10z M24.6,8.5c-0.1,0-0.2,0-0.4,0.5c-0.1,1,0.1,1.9,0.5,2.8c0.2-0.5,0.3-1,0.3-1.5
			C25.1,9.2,24.7,8.6,24.6,8.5z"/>
		<path class="st18" d="M99,17.9C99,17.9,99,17.8,99,17.9l-0.5-0.6c0,0-0.1-0.1,0-0.2s0.1-0.1,0.2,0c0,0,0,0,0,0
			c0.1,0.2,0.3,0.4,0.4,0.5C99.2,17.7,99.2,17.8,99,17.9L99,17.9z"/>
		<path class="st18" d="M97.9,16.3C97.9,16.4,97.9,16.4,97.9,16.3c-0.3-0.3-0.6-0.6-0.9-1c-0.1,0-0.1-0.1,0-0.2c0-0.1,0.1-0.1,0.2,0
			c0,0,0,0,0,0c0.3,0.3,0.6,0.6,0.8,1C98.1,16.2,98.1,16.3,97.9,16.3C98,16.3,98,16.3,97.9,16.3L97.9,16.3z M96.3,14.4
			C96.3,14.4,96.2,14.4,96.3,14.4c-0.4-0.3-0.7-0.6-1-0.9c0,0,0-0.1,0-0.2c0,0,0,0,0,0c0,0,0.1,0,0.2,0l0.9,0.9
			C96.4,14.3,96.4,14.4,96.3,14.4C96.3,14.5,96.3,14.5,96.3,14.4L96.3,14.4z M94.5,12.6C94.5,12.6,94.5,12.6,94.5,12.6l-1-0.9
			c-0.1,0-0.1-0.1,0-0.1c0-0.1,0.1-0.1,0.1,0c0,0,0,0,0,0l0.9,0.9C94.7,12.5,94.7,12.6,94.5,12.6C94.6,12.6,94.5,12.6,94.5,12.6
			L94.5,12.6z M92.7,10.9C92.6,10.9,92.6,10.9,92.7,10.9l-1.1-0.8c0,0,0-0.1,0-0.2c0,0,0.1,0,0.2,0c0.3,0.3,0.7,0.5,1,0.8
			C92.8,10.8,92.8,10.9,92.7,10.9C92.7,11,92.7,11,92.7,10.9L92.7,10.9z M90.7,9.4C90.6,9.4,90.6,9.4,90.7,9.4l-1.1-0.7
			c-0.1,0-0.1-0.1-0.1-0.1c0-0.1,0.1-0.1,0.1-0.1c0,0,0,0,0,0c0.3,0.2,0.7,0.5,1,0.7C90.8,9.2,90.8,9.3,90.7,9.4
			C90.7,9.3,90.7,9.3,90.7,9.4C90.7,9.4,90.7,9.4,90.7,9.4L90.7,9.4z M88.6,7.9L88.6,7.9c-0.4-0.2-0.8-0.4-1.1-0.7c0,0,0-0.1,0-0.2
			c0,0,0.1,0,0.2,0l1.1,0.7C88.7,7.8,88.7,7.9,88.6,7.9C88.6,7.9,88.6,7.9,88.6,7.9z M86.4,6.6L86.4,6.6c-0.4-0.2-0.7-0.4-1.1-0.6
			c0,0,0-0.1,0-0.2c0,0,0.1,0,0.2,0c0.4,0.2,0.7,0.4,1.1,0.6c0,0,0,0.1,0,0.2C86.5,6.7,86.5,6.7,86.4,6.6z M84.2,5.5L84.2,5.5
			c-0.4-0.2-0.8-0.4-1.2-0.5c0,0,0-0.1,0-0.1c0-0.1,0.1-0.1,0.1-0.1l1.2,0.5C84.3,5.3,84.3,5.4,84.2,5.5C84.3,5.4,84.2,5.5,84.2,5.5
			z M81.9,4.5L81.9,4.5L80.7,4c-0.1,0-0.1-0.1-0.1-0.1c0,0,0,0,0,0c0-0.1,0.1-0.1,0.1-0.1c0.4,0.1,0.8,0.3,1.2,0.5
			C82,4.3,82,4.3,81.9,4.5C82,4.4,82,4.4,81.9,4.5L81.9,4.5z M79.5,3.6L79.5,3.6l-1.2-0.4c-0.1,0-0.1-0.1-0.1-0.1c0,0,0,0,0,0
			c0,0,0.1-0.1,0.1-0.1l1.2,0.4c0.1,0,0.1,0.1,0.1,0.1C79.6,3.5,79.6,3.5,79.5,3.6C79.6,3.6,79.6,3.6,79.5,3.6z M77.1,2.9L77.1,2.9
			c-0.4-0.1-0.8-0.2-1.2-0.3c-0.1,0-0.1-0.1-0.1-0.1c0,0,0,0,0,0c0-0.1,0.1-0.1,0.1-0.1c0,0,0,0,0,0c0.4,0.1,0.8,0.2,1.2,0.3
			c0.1,0,0.1,0.1,0.1,0.1C77.2,2.8,77.2,2.9,77.1,2.9z M74.7,2.3L74.7,2.3l-1.2-0.2c-0.1,0-0.1-0.1-0.1-0.1c0-0.1,0.1-0.1,0.1-0.1
			c0,0,0,0,0,0c0.4,0.1,0.8,0.1,1.2,0.2c0.1,0,0.1,0.1,0.1,0.1c0,0,0,0,0,0C74.8,2.3,74.7,2.3,74.7,2.3C74.7,2.3,74.7,2.3,74.7,2.3z
			"/>
		<path class="st18" d="M72.2,1.9L72.2,1.9l-0.7-0.1c-0.1,0-0.1-0.1-0.1-0.1c0-0.1,0.1-0.1,0.1-0.1c0,0,0,0,0,0l0.7,0.1
			c0.1,0,0.1,0.1,0.1,0.1c0,0,0,0,0,0C72.3,1.9,72.2,1.9,72.2,1.9z"/>
		<path class="st18" d="M18.5,91.8C18.4,91.9,18.4,91.9,18.5,91.8l-0.5-0.5c0,0,0-0.1,0-0.2c0,0,0.1,0,0.2,0l0.5,0.5
			C18.6,91.7,18.6,91.8,18.5,91.8C18.5,91.8,18.5,91.8,18.5,91.8z"/>
		<path class="st18" d="M17.1,90.4C17.1,90.4,17,90.4,17.1,90.4c-0.4-0.3-0.7-0.7-1-1c0,0,0-0.1,0-0.2c0,0,0.1,0,0.1,0c0,0,0,0,0,0
			c0.3,0.3,0.6,0.7,0.9,1C17.2,90.3,17.2,90.4,17.1,90.4C17.1,90.4,17.1,90.4,17.1,90.4L17.1,90.4z M15.4,88.4
			C15.3,88.4,15.3,88.4,15.4,88.4c-0.4-0.3-0.6-0.7-0.9-1.1c0,0,0-0.1,0-0.1c0,0,0,0,0,0c0,0,0.1,0,0.1,0l0.8,1
			C15.5,88.2,15.5,88.3,15.4,88.4C15.4,88.3,15.4,88.3,15.4,88.4C15.4,88.4,15.4,88.4,15.4,88.4L15.4,88.4z M13.8,86.3
			C13.7,86.3,13.7,86.3,13.8,86.3c-0.3-0.4-0.6-0.8-0.8-1.2c0,0,0-0.1,0-0.1c0,0,0,0,0,0c0,0,0.1,0,0.1,0c0.2,0.4,0.5,0.8,0.7,1.1
			C13.9,86.1,13.9,86.2,13.8,86.3L13.8,86.3z M12.4,84C12.3,84,12.3,84,12.4,84c-0.3-0.4-0.5-0.8-0.8-1.2c0,0,0-0.1,0-0.1
			c0,0,0,0,0,0c0,0,0.1,0,0.1,0c0.2,0.4,0.4,0.8,0.6,1.2C12.5,83.8,12.5,83.9,12.4,84L12.4,84z M11.1,81.7c0,0-0.1,0-0.1-0.1
			c-0.2-0.4-0.4-0.8-0.6-1.2c0,0,0-0.1,0-0.2c0.1,0,0.1,0,0.1,0.1c0.2,0.4,0.4,0.8,0.6,1.2C11.2,81.5,11.2,81.6,11.1,81.7L11.1,81.7
			z M10,79.2c0,0-0.1,0-0.1-0.1c-0.2-0.4-0.3-0.8-0.5-1.2c0-0.1,0-0.1,0.1-0.1c0,0,0.1,0,0.1,0c0,0,0,0,0,0c0.1,0.4,0.3,0.8,0.5,1.2
			C10.1,79.1,10.1,79.2,10,79.2C10,79.2,10,79.2,10,79.2L10,79.2z M9.1,76.8c0,0-0.1,0-0.1,0c0,0,0,0,0,0c-0.1-0.4-0.3-0.8-0.4-1.3
			c0-0.1,0-0.1,0.1-0.1c0.1,0,0.1,0,0.1,0.1c0.1,0.4,0.3,0.8,0.4,1.3C9.2,76.7,9.1,76.7,9.1,76.8L9.1,76.8z M8.3,74.2
			c-0.1,0-0.1,0-0.1-0.1c-0.1-0.4-0.2-0.9-0.3-1.3c0-0.1,0-0.1,0.1-0.1c0,0,0,0,0,0c0.1,0,0.1,0,0.1,0.1c0.1,0.4,0.2,0.9,0.3,1.3
			C8.5,74.1,8.4,74.2,8.3,74.2C8.4,74.2,8.4,74.2,8.3,74.2C8.4,74.2,8.3,74.2,8.3,74.2z M7.8,71.6c-0.1,0-0.1,0-0.1-0.1c0,0,0,0,0,0
			c-0.1-0.4-0.2-0.9-0.2-1.3c0-0.1,0-0.1,0.1-0.1c0,0,0,0,0,0c0.1,0,0.1,0,0.1,0.1c0,0,0,0,0,0c0.1,0.4,0.1,0.9,0.2,1.3
			C7.9,71.6,7.9,71.6,7.8,71.6L7.8,71.6z M7.4,69c-0.1,0-0.1,0-0.1-0.1c0-0.4-0.1-0.9-0.1-1.3c0-0.1,0-0.1,0.1-0.1c0,0,0,0,0,0
			c0.1,0,0.1,0,0.1,0.1c0,0,0,0,0,0c0,0.4,0.1,0.9,0.1,1.3C7.5,68.9,7.5,69,7.4,69C7.4,69,7.4,69,7.4,69L7.4,69z M7.2,66.3
			c-0.1,0-0.1,0-0.1-0.1l0,0c0-0.4,0-0.9,0-1.3c0-0.1,0-0.1,0.1-0.1c0,0,0,0,0,0l0,0c0.1,0,0.1,0,0.1,0.1l0,0c0,0.4,0,0.9,0,1.3
			C7.3,66.3,7.3,66.3,7.2,66.3z M7.2,63.7L7.2,63.7c-0.1,0-0.1,0-0.1-0.1c0,0,0,0,0,0c0-0.4,0-0.9,0.1-1.3c0-0.1,0.1-0.1,0.1-0.1
			c0.1,0,0.1,0,0.1,0.1c0,0,0,0,0,0c0,0.4,0,0.9-0.1,1.3C7.3,63.7,7.3,63.7,7.2,63.7C7.2,63.7,7.2,63.7,7.2,63.7L7.2,63.7z M7.4,61
			L7.4,61c-0.1,0-0.1-0.1-0.1-0.1c0,0,0,0,0,0c0-0.4,0.1-0.9,0.2-1.3c0-0.1,0.1-0.1,0.1-0.1c0,0,0,0,0,0c0.1,0,0.1,0.1,0.1,0.1
			c0,0,0,0,0,0c-0.1,0.4-0.1,0.9-0.2,1.3C7.5,61,7.5,61,7.4,61C7.4,61.1,7.4,61.1,7.4,61L7.4,61z M7.7,58.4L7.7,58.4
			c-0.1,0-0.1-0.1-0.1-0.1c0,0,0,0,0,0c0.1-0.4,0.2-0.9,0.3-1.3c0-0.1,0.1-0.1,0.1-0.1c0.1,0,0.1,0.1,0.1,0.1c0,0,0,0,0,0
			c-0.1,0.4-0.2,0.9-0.3,1.3C7.9,58.4,7.8,58.4,7.7,58.4C7.7,58.4,7.7,58.4,7.7,58.4L7.7,58.4z M8.3,55.8L8.3,55.8
			c-0.1,0-0.1-0.1-0.1-0.1c0.1-0.4,0.2-0.9,0.4-1.3c0-0.1,0.1-0.1,0.1-0.1c0.1,0,0.1,0.1,0.1,0.1c-0.1,0.4-0.2,0.8-0.3,1.3
			C8.4,55.8,8.4,55.8,8.3,55.8C8.3,55.8,8.3,55.8,8.3,55.8L8.3,55.8z M9,53.3L9,53.3c-0.1,0-0.1-0.1-0.1-0.1
			c0.1-0.4,0.3-0.8,0.4-1.3c0-0.1,0.1-0.1,0.1-0.1c0,0,0,0,0,0c0.1,0,0.1,0.1,0.1,0.1c-0.1,0.4-0.3,0.8-0.4,1.3
			C9.1,53.2,9.1,53.3,9,53.3C9,53.3,9,53.3,9,53.3L9,53.3z M9.9,50.8L9.9,50.8c-0.1,0-0.1-0.1-0.1-0.2c0.2-0.4,0.4-0.8,0.5-1.2
			c0-0.1,0.1-0.1,0.1-0.1c0.1,0,0.1,0.1,0.1,0.1c0,0,0,0,0,0C10.4,49.9,10.2,50.3,9.9,50.8C10,50.7,10,50.8,9.9,50.8L9.9,50.8z"/>
		<path class="st18" d="M11,48.3L11,48.3c-0.1,0-0.1-0.1-0.1-0.2l0.3-0.6c0-0.1,0.1-0.1,0.1-0.1c0,0,0,0,0,0c0,0,0,0.1,0,0.2
			C11.3,47.9,11.2,48.1,11,48.3C11.1,48.3,11,48.3,11,48.3z"/>
		<polygon class="st19" points="12.1,43.7 8.6,57.9 6.2,55.5 		"/>
		<polygon class="st20" points="12.1,43.7 3.3,55.4 7.3,55.5 		"/>
		<polygon class="st16" points="12.1,43.7 7.3,55.5 8.6,57.9 5,55.5 		"/>
		<polygon class="st20" points="7.3,55.5 12.2,55.7 12.1,43.7 		"/>
		<circle class="st21" cx="97.4" cy="16.8" r="9.1"/>
		<path class="st22" d="M103,16.8h-5.6v-5.6C100.5,11.1,103,13.7,103,16.8L103,16.8z"/>
		<path class="st3" d="M97.4,22.7c-3.3,0-6-2.7-6-6s2.7-6,6-6s6,2.7,6,6S100.7,22.7,97.4,22.7z M97.4,11.5c-2.9,0-5.2,2.3-5.2,5.2
			s2.3,5.2,5.2,5.2s5.2-2.3,5.2-5.2S100.3,11.5,97.4,11.5C97.4,11.5,97.4,11.5,97.4,11.5z"/>
		<path class="st3" d="M100.5,17.1h-4c-0.2,0-0.4-0.2-0.4-0.4s0.2-0.4,0.4-0.4c0,0,0,0,0,0h4c0.2,0,0.4,0.2,0.4,0.4
			S100.7,17.1,100.5,17.1C100.5,17.1,100.5,17.1,100.5,17.1z"/>
		<path class="st3" d="M97.4,18.1c-0.2,0-0.4-0.2-0.4-0.4c0,0,0,0,0,0v-5.5c0-0.2,0.2-0.4,0.4-0.4c0.2,0,0.4,0.2,0.4,0.4v5.5
			C97.8,17.9,97.6,18.1,97.4,18.1z"/>
		<path class="st3" d="M97.4,21.7c-0.2,0-0.4-0.2-0.4-0.4c0,0,0,0,0,0v-0.5c0-0.2,0.2-0.4,0.4-0.4c0.2,0,0.4,0.2,0.4,0.4v0.5
			C97.8,21.5,97.6,21.7,97.4,21.7C97.4,21.7,97.4,21.7,97.4,21.7z"/>
		<path class="st3" d="M102,17.1h-0.4c-0.2,0-0.4-0.2-0.4-0.4s0.2-0.4,0.4-0.4c0,0,0,0,0,0h0.4c0.2,0,0.4,0.2,0.4,0.4
			S102.2,17.1,102,17.1C102,17.1,102,17.1,102,17.1z"/>
		<path class="st3" d="M93.3,17.1h-0.4c-0.2,0-0.4-0.2-0.4-0.4s0.2-0.4,0.4-0.4c0,0,0,0,0,0h0.4c0.2,0,0.4,0.2,0.4,0.4
			S93.5,17.1,93.3,17.1C93.3,17.1,93.3,17.1,93.3,17.1z"/>
		<path class="st1" d="M108.9,90.4c-0.3,0-0.6-0.3-0.6-0.6l0,0v-2.9c0-0.3,0.3-0.6,0.6-0.6s0.6,0.3,0.6,0.6v2.9
			C109.4,90.1,109.2,90.4,108.9,90.4L108.9,90.4z"/>
		<path class="st1" d="M110.3,88.9h-2.9c-0.3,0-0.6-0.3-0.6-0.6c0-0.3,0.3-0.6,0.6-0.6l0,0h2.9c0.3,0,0.6,0.3,0.6,0.6l0,0
			C110.9,88.6,110.6,88.9,110.3,88.9z"/>
		<path class="st1" d="M5.8,95.4c-0.3,0-0.6-0.3-0.6-0.6c0,0,0,0,0,0v-2.9c0-0.3,0.3-0.6,0.6-0.6c0.3,0,0.6,0.3,0.6,0.6c0,0,0,0,0,0
			v2.9C6.4,95.1,6.1,95.4,5.8,95.4C5.8,95.4,5.8,95.4,5.8,95.4z"/>
		<path class="st1" d="M7.3,93.9H4.3c-0.3,0-0.6-0.3-0.5-0.7c0-0.3,0.2-0.5,0.5-0.5h2.9c0.3,0,0.6,0.3,0.5,0.7
			C7.7,93.7,7.5,93.9,7.3,93.9z"/>
		<path class="st1" d="M1.9,33.4c-0.3,0-0.6-0.3-0.6-0.6c0,0,0,0,0,0v-2.9c0-0.3,0.2-0.6,0.6-0.6c0,0,0,0,0,0c0.3,0,0.6,0.3,0.6,0.6
			l0,0v2.9C2.5,33.1,2.3,33.4,1.9,33.4L1.9,33.4z"/>
		<path class="st1" d="M3.4,31.9H0.5c-0.3,0-0.6-0.3-0.5-0.7c0-0.3,0.2-0.5,0.5-0.5h2.9c0.3,0,0.6,0.3,0.5,0.7
			C3.9,31.7,3.7,31.9,3.4,31.9z"/>
	</g>
</g>
</svg>
