<?xml version="1.0" encoding="utf-8"?>
<!-- Generator: Adobe Illustrator 24.0.0, SVG Export Plug-In . SVG Version: 6.00 Build 0)  -->
<svg version="1.1" id="Layer_1" xmlns="http://www.w3.org/2000/svg" xmlns:xlink="http://www.w3.org/1999/xlink" x="0px" y="0px"
	 viewBox="0 0 104.8 115" style="enable-background:new 0 0 104.8 115;" xml:space="preserve">
<style type="text/css">
	.st0{fill:#75ABD8;}
	.st1{opacity:0.33;}
	.st2{clip-path:url(#SVGID_2_);}
	.st3{fill:#ACBACF;}
	.st4{clip-path:url(#SVGID_4_);}
	.st5{clip-path:url(#SVGID_6_);}
	.st6{clip-path:url(#SVGID_8_);}
	.st7{clip-path:url(#SVGID_10_);}
	.st8{clip-path:url(#SVGID_12_);}
	.st9{clip-path:url(#SVGID_14_);}
	.st10{clip-path:url(#SVGID_16_);}
	.st11{clip-path:url(#SVGID_18_);}
	.st12{clip-path:url(#SVGID_20_);}
	.st13{clip-path:url(#SVGID_22_);}
	.st14{clip-path:url(#SVGID_24_);}
	.st15{clip-path:url(#SVGID_26_);}
	.st16{clip-path:url(#SVGID_28_);}
	.st17{clip-path:url(#SVGID_30_);}
	.st18{clip-path:url(#SVGID_32_);}
	.st19{fill:#FAB68A;}
	.st20{fill:#6DA6C7;}
	.st21{fill:#D4824B;}
	.st22{fill:#FFD573;}
	.st23{fill:#FF9C5A;}
	.st24{fill:#CDCCEC;}
	.st25{opacity:0.45;fill:#F7A26D;enable-background:new    ;}
	.st26{fill:#F7A26D;}
	.st27{fill:#F7F6F1;}
	.st28{fill:#FDD247;}
	.st29{fill:#F2B892;}
	.st30{fill:#FA5770;}
	.st31{fill:#1F1C38;}
	.st32{fill:#F59E83;}
	.st33{opacity:0.1;enable-background:new    ;}
	.st34{fill:#AACEF4;}
</style>
<title>total task image</title>
<g>
	<g id="Layer_2_1_">
		<g id="Layer_1-2">
			<path class="st0" d="M102.6,19.7c-0.3,0-0.6-0.3-0.6-0.6v-2.8c0-0.3,0.3-0.6,0.6-0.6c0.3,0,0.6,0.3,0.6,0.6v2.8
				C103.1,19.5,102.9,19.7,102.6,19.7z"/>
			<path class="st0" d="M103.9,18.4h-2.8c-0.3,0-0.6-0.3-0.6-0.6c0-0.3,0.3-0.6,0.6-0.6h2.8c0.3,0,0.6,0.3,0.6,0.6
				C104.5,18.1,104.2,18.4,103.9,18.4z"/>
			<g class="st1">
				<g>
					<defs>
						<path id="SVGID_1_" d="M10.2,63c-0.3,0.4-0.6,0.8-0.9,1.2c-3.5,4.6-6.6,10-7.2,16.2c-2.6,30.5,48.1,29.1,62.8,24.7
							c18.4-5.5,35.4-28.2,19.7-49.5c-6.1-8.3-15.3-12.4-24.5-13.7C41.9,39.2,22.8,47.3,10.2,63z"/>
					</defs>
					<clipPath id="SVGID_2_">
						<use xlink:href="#SVGID_1_"  style="overflow:visible;"/>
					</clipPath>
					<g class="st2">
						
							<rect x="-35.1" y="50.5" transform="matrix(1 -5.235964e-03 5.235964e-03 1 -0.2675 -9.741239e-02)" class="st3" width="32.8" height="1"/>
						
							<rect x="-35.1" y="43.6" transform="matrix(1 -5.235964e-03 5.235964e-03 1 -0.2312 -9.769736e-02)" class="st3" width="32.8" height="1"/>
						
							<rect x="-35.1" y="47.1" transform="matrix(1 -5.235964e-03 5.235964e-03 1 -0.2493 -9.755466e-02)" class="st3" width="32.8" height="1"/>
						
							<rect x="-35.2" y="40.1" transform="matrix(1 -5.235964e-03 5.235964e-03 1 -0.2131 -9.783965e-02)" class="st3" width="32.8" height="1"/>
						
							<rect x="-34.9" y="85.2" transform="matrix(1 -5.235964e-03 5.235964e-03 1 -0.4488 -9.598791e-02)" class="st3" width="32.8" height="1"/>
						
							<rect x="-35" y="78.2" transform="matrix(1 -5.235964e-03 5.235964e-03 1 -0.4125 -9.627289e-02)" class="st3" width="32.8" height="1"/>
						
							<rect x="-35" y="71.3" transform="matrix(1 -5.235964e-03 5.235964e-03 1 -0.3763 -9.655787e-02)" class="st3" width="32.8" height="1"/>
						
							<rect x="-35" y="64.4" transform="matrix(1 -5.235964e-03 5.235964e-03 1 -0.34 -9.684243e-02)" class="st3" width="32.8" height="1"/>
						
							<rect x="-35.1" y="57.4" transform="matrix(1 -5.235964e-03 5.235964e-03 1 -0.3037 -9.712741e-02)" class="st3" width="32.8" height="1"/>
						
							<rect x="-34.9" y="81.7" transform="matrix(1 -5.235964e-03 5.235964e-03 1 -0.4307 -9.613019e-02)" class="st3" width="32.8" height="1"/>
						
							<rect x="-35" y="74.8" transform="matrix(1 -5.235964e-03 5.235964e-03 1 -0.3944 -9.636281e-02)" class="st3" width="32.8" height="1"/>
						
							<rect x="-35" y="67.8" transform="matrix(1 -5.235964e-03 5.235964e-03 1 -0.3581 -9.670015e-02)" class="st3" width="32.8" height="1"/>
						
							<rect x="-35.1" y="60.9" transform="matrix(1 -5.235964e-03 5.235964e-03 1 -0.3219 -9.698512e-02)" class="st3" width="32.8" height="1"/>
						
							<rect x="-35.1" y="54" transform="matrix(1 -5.235964e-03 5.235964e-03 1 -0.2856 -9.727010e-02)" class="st3" width="32.8" height="1"/>
						
							<rect x="-34.8" y="112.9" transform="matrix(1 -5.235964e-03 5.235964e-03 1 -0.5939 -9.484842e-02)" class="st3" width="32.8" height="1"/>
						
							<rect x="-34.8" y="105.9" transform="matrix(1 -5.235964e-03 5.235964e-03 1 -0.5576 -9.513340e-02)" class="st3" width="32.8" height="1"/>
						
							<rect x="-34.4" y="98.9" transform="matrix(0.9999 -9.999500e-03 9.999500e-03 0.9999 -0.9954 -0.1751)" class="st3" width="32.8" height="1"/>
						
							<rect x="-34.5" y="92" transform="matrix(0.9999 -9.999500e-03 9.999500e-03 0.9999 -0.9261 -0.1762)" class="st3" width="32.8" height="1"/>
						
							<rect x="-34.8" y="109.4" transform="matrix(1 -5.235964e-03 5.235964e-03 1 -0.5758 -9.499071e-02)" class="st3" width="32.8" height="1"/>
						
							<rect x="-34.8" y="102.5" transform="matrix(1 -5.235964e-03 5.235964e-03 1 -0.5395 -9.527568e-02)" class="st3" width="32.8" height="1"/>
						
							<rect x="-34.9" y="95.5" transform="matrix(1 -5.235964e-03 5.235964e-03 1 -0.5032 -9.556065e-02)" class="st3" width="32.8" height="1"/>
						
							<rect x="-34.9" y="88.6" transform="matrix(1 -5.235964e-03 5.235964e-03 1 -0.4669 -9.584564e-02)" class="st3" width="32.8" height="1"/>
						<g>
							<defs>
								
									<rect id="SVGID_3_" x="-35.1" y="18.1" transform="matrix(1 -5.235964e-03 5.235964e-03 1 -0.1858 -9.802730e-02)" width="32.5" height="34.6"/>
							</defs>
							<clipPath id="SVGID_4_">
								<use xlink:href="#SVGID_3_"  style="overflow:visible;"/>
							</clipPath>
							<g class="st4">
								
									<rect x="-35.1" y="50.5" transform="matrix(1 -5.235964e-03 5.235964e-03 1 -0.2675 -9.741239e-02)" class="st3" width="32.8" height="1"/>
								
									<rect x="-35.1" y="43.6" transform="matrix(1 -5.235964e-03 5.235964e-03 1 -0.2312 -9.769736e-02)" class="st3" width="32.8" height="1"/>
								
									<rect x="-35.1" y="47.1" transform="matrix(1 -5.235964e-03 5.235964e-03 1 -0.2493 -9.755466e-02)" class="st3" width="32.8" height="1"/>
								
									<rect x="-35.2" y="40.1" transform="matrix(1 -5.235964e-03 5.235964e-03 1 -0.2131 -9.783965e-02)" class="st3" width="32.8" height="1"/>
								
									<rect x="-2.6" y="50.3" transform="matrix(1 -5.235964e-03 5.235964e-03 1 -0.2661 7.285184e-02)" class="st3" width="32.8" height="1"/>
								
									<rect x="-2.6" y="43.4" transform="matrix(1 -5.235964e-03 5.235964e-03 1 -0.2298 7.256687e-02)" class="st3" width="32.8" height="1"/>
								
									<rect x="-2.6" y="46.9" transform="matrix(1 -5.235964e-03 5.235964e-03 1 -0.248 7.270955e-02)" class="st3" width="32.7" height="1"/>
								
									<rect x="-2.5" y="39.7" transform="matrix(0.9999 -9.999500e-03 9.999500e-03 0.9999 -0.4017 0.1412)" class="st3" width="32.8" height="1"/>
							</g>
						</g>
						<g>
							<defs>
								
									<rect id="SVGID_5_" x="-34.9" y="52.8" transform="matrix(1 -5.235964e-03 5.235964e-03 1 -0.3672 -9.665518e-02)" width="32.5" height="34.6"/>
							</defs>
							<clipPath id="SVGID_6_">
								<use xlink:href="#SVGID_5_"  style="overflow:visible;"/>
							</clipPath>
							<g class="st5">
								
									<rect x="-34.9" y="85.2" transform="matrix(1 -5.235964e-03 5.235964e-03 1 -0.4488 -9.598791e-02)" class="st3" width="32.8" height="1"/>
								
									<rect x="-35" y="78.2" transform="matrix(1 -5.235964e-03 5.235964e-03 1 -0.4125 -9.627289e-02)" class="st3" width="32.8" height="1"/>
								
									<rect x="-35" y="71.3" transform="matrix(1 -5.235964e-03 5.235964e-03 1 -0.3763 -9.655787e-02)" class="st3" width="32.8" height="1"/>
								
									<rect x="-35" y="64.4" transform="matrix(1 -5.235964e-03 5.235964e-03 1 -0.34 -9.684243e-02)" class="st3" width="32.8" height="1"/>
								
									<rect x="-35.1" y="57.4" transform="matrix(1 -5.235964e-03 5.235964e-03 1 -0.3037 -9.712741e-02)" class="st3" width="32.8" height="1"/>
								
									<rect x="-34.9" y="81.7" transform="matrix(1 -5.235964e-03 5.235964e-03 1 -0.4307 -9.613019e-02)" class="st3" width="32.8" height="1"/>
								
									<rect x="-35" y="74.8" transform="matrix(1 -5.235964e-03 5.235964e-03 1 -0.3944 -9.636281e-02)" class="st3" width="32.8" height="1"/>
								
									<rect x="-35" y="67.8" transform="matrix(1 -5.235964e-03 5.235964e-03 1 -0.3581 -9.670015e-02)" class="st3" width="32.8" height="1"/>
								
									<rect x="-35.1" y="60.9" transform="matrix(1 -5.235964e-03 5.235964e-03 1 -0.3219 -9.698512e-02)" class="st3" width="32.8" height="1"/>
								
									<rect x="-35.1" y="54" transform="matrix(1 -5.235964e-03 5.235964e-03 1 -0.2856 -9.727010e-02)" class="st3" width="32.8" height="1"/>
								
									<rect x="-2.4" y="85" transform="matrix(1 -5.235964e-03 5.235964e-03 1 -0.4475 7.427628e-02)" class="st3" width="32.7" height="1"/>
								
									<rect x="-2.4" y="78.1" transform="matrix(1 -5.235964e-03 5.235964e-03 1 -0.4112 7.399134e-02)" class="st3" width="32.8" height="1"/>
								
									<rect x="-2.5" y="71.1" transform="matrix(1 -5.235964e-03 5.235964e-03 1 -0.3749 7.370636e-02)" class="st3" width="32.8" height="1"/>
								
									<rect x="-2.5" y="64.2" transform="matrix(1 -5.235964e-03 5.235964e-03 1 -0.3387 7.342180e-02)" class="st3" width="32.8" height="1"/>
								
									<rect x="-2.5" y="57.3" transform="matrix(1 -5.235964e-03 5.235964e-03 1 -0.3024 7.318915e-02)" class="st3" width="32.7" height="1"/>
								
									<rect x="-2.4" y="81.5" transform="matrix(1 -5.235964e-03 5.235964e-03 1 -0.4294 7.413404e-02)" class="st3" width="32.8" height="1"/>
								
									<rect x="-2.5" y="74.6" transform="matrix(1 -5.235964e-03 5.235964e-03 1 -0.3931 7.390140e-02)" class="st3" width="32.8" height="1"/>
								
									<rect x="-2.5" y="67.7" transform="matrix(1 -5.235964e-03 5.235964e-03 1 -0.3568 7.356406e-02)" class="st3" width="32.8" height="1"/>
								
									<rect x="-2.5" y="60.7" transform="matrix(1 -5.235964e-03 5.235964e-03 1 -0.3205 7.327911e-02)" class="st3" width="32.8" height="1"/>
								
									<rect x="-2.6" y="53.8" transform="matrix(1 -5.235964e-03 5.235964e-03 1 -0.2843 7.304688e-02)" class="st3" width="32.8" height="1"/>
							</g>
						</g>
						<g>
							<defs>
								
									<rect id="SVGID_7_" x="-34.7" y="87.4" transform="matrix(1 -5.235964e-03 5.235964e-03 1 -0.5486 -9.523071e-02)" width="32.5" height="34.6"/>
							</defs>
							<clipPath id="SVGID_8_">
								<use xlink:href="#SVGID_7_"  style="overflow:visible;"/>
							</clipPath>
							<g class="st6">
								
									<rect x="-34.8" y="112.9" transform="matrix(1 -5.235964e-03 5.235964e-03 1 -0.5939 -9.484842e-02)" class="st3" width="32.8" height="1"/>
								
									<rect x="-34.8" y="105.9" transform="matrix(1 -5.235964e-03 5.235964e-03 1 -0.5576 -9.513340e-02)" class="st3" width="32.8" height="1"/>
								
									<rect x="-34.4" y="98.9" transform="matrix(0.9999 -9.999500e-03 9.999500e-03 0.9999 -0.9954 -0.1751)" class="st3" width="32.8" height="1"/>
								
									<rect x="-34.5" y="92" transform="matrix(0.9999 -9.999500e-03 9.999500e-03 0.9999 -0.9261 -0.1762)" class="st3" width="32.8" height="1"/>
								
									<rect x="-34.8" y="109.4" transform="matrix(1 -5.235964e-03 5.235964e-03 1 -0.5758 -9.499071e-02)" class="st3" width="32.8" height="1"/>
								
									<rect x="-34.8" y="102.5" transform="matrix(1 -5.235964e-03 5.235964e-03 1 -0.5395 -9.527568e-02)" class="st3" width="32.8" height="1"/>
								
									<rect x="-34.9" y="95.5" transform="matrix(1 -5.235964e-03 5.235964e-03 1 -0.5032 -9.556065e-02)" class="st3" width="32.8" height="1"/>
								
									<rect x="-34.9" y="88.6" transform="matrix(1 -5.235964e-03 5.235964e-03 1 -0.4669 -9.584564e-02)" class="st3" width="32.8" height="1"/>
								
									<rect x="-2.3" y="112.7" transform="matrix(1 -5.235964e-03 5.235964e-03 1 -0.5926 7.541580e-02)" class="st3" width="32.8" height="1"/>
								
									<rect x="-2.3" y="105.8" transform="matrix(1 -5.235964e-03 5.235964e-03 1 -0.5563 7.513081e-02)" class="st3" width="32.7" height="1"/>
								
									<rect x="-2.3" y="98.8" transform="matrix(1 -5.235964e-03 5.235964e-03 1 -0.5201 7.484627e-02)" class="st3" width="32.8" height="1"/>
								
									<rect x="-2.4" y="91.9" transform="matrix(1 -5.235964e-03 5.235964e-03 1 -0.4838 7.461365e-02)" class="st3" width="32.8" height="1"/>
								
									<rect x="-1.8" y="109" transform="matrix(0.9999 -9.999500e-03 9.999500e-03 0.9999 -1.0944 0.1517)" class="st3" width="32.8" height="1"/>
								
									<rect x="-2.3" y="102.3" transform="matrix(1 -5.235964e-03 5.235964e-03 1 -0.5382 7.498853e-02)" class="st3" width="32.8" height="1"/>
								
									<rect x="-2.4" y="95.4" transform="matrix(1 -5.235964e-03 5.235964e-03 1 -0.5019 7.470356e-02)" class="st3" width="32.7" height="1"/>
								
									<rect x="-2.4" y="88.4" transform="matrix(1 -5.235964e-03 5.235964e-03 1 -0.4656 7.441858e-02)" class="st3" width="32.8" height="1"/>
							</g>
						</g>
						<g>
							<defs>
								
									<rect id="SVGID_9_" x="-2.6" y="18" transform="matrix(1 -5.235964e-03 5.235964e-03 1 -0.1845 7.223693e-02)" width="32.5" height="34.6"/>
							</defs>
							<clipPath id="SVGID_10_">
								<use xlink:href="#SVGID_9_"  style="overflow:visible;"/>
							</clipPath>
							<g class="st7">
								
									<rect x="-35.1" y="50.5" transform="matrix(1 -5.235964e-03 5.235964e-03 1 -0.2675 -9.741239e-02)" class="st3" width="32.8" height="1"/>
								
									<rect x="-35.1" y="43.6" transform="matrix(1 -5.235964e-03 5.235964e-03 1 -0.2312 -9.769736e-02)" class="st3" width="32.8" height="1"/>
								
									<rect x="-35.1" y="47.1" transform="matrix(1 -5.235964e-03 5.235964e-03 1 -0.2493 -9.755466e-02)" class="st3" width="32.8" height="1"/>
								
									<rect x="-35.2" y="40.1" transform="matrix(1 -5.235964e-03 5.235964e-03 1 -0.2131 -9.783965e-02)" class="st3" width="32.8" height="1"/>
								
									<rect x="-2.6" y="50.3" transform="matrix(1 -5.235964e-03 5.235964e-03 1 -0.2661 7.285184e-02)" class="st3" width="32.8" height="1"/>
								
									<rect x="-2.6" y="43.4" transform="matrix(1 -5.235964e-03 5.235964e-03 1 -0.2298 7.256687e-02)" class="st3" width="32.8" height="1"/>
								
									<rect x="-2.6" y="46.9" transform="matrix(1 -5.235964e-03 5.235964e-03 1 -0.248 7.270955e-02)" class="st3" width="32.7" height="1"/>
								
									<rect x="-2.5" y="39.7" transform="matrix(0.9999 -9.999500e-03 9.999500e-03 0.9999 -0.4017 0.1412)" class="st3" width="32.8" height="1"/>
								
									<rect x="29.9" y="50.2" transform="matrix(1 -5.235964e-03 5.235964e-03 1 -0.2648 0.2431)" class="st3" width="32.8" height="1"/>
								
									<rect x="29.9" y="43.2" transform="matrix(1 -5.235964e-03 5.235964e-03 1 -0.2285 0.2428)" class="st3" width="32.8" height="1"/>
								
									<rect x="29.9" y="46.7" transform="matrix(1 -5.235964e-03 5.235964e-03 1 -0.2467 0.243)" class="st3" width="32.8" height="1"/>
								
									<rect x="29.9" y="39.8" transform="matrix(1 -5.235964e-03 5.235964e-03 1 -0.2104 0.2427)" class="st3" width="32.8" height="1"/>
							</g>
						</g>
						<g>
							<defs>
								
									<rect id="SVGID_11_" x="-2.4" y="52.6" transform="matrix(1 -5.235964e-03 5.235964e-03 1 -0.3659 7.366139e-02)" width="32.5" height="34.6"/>
							</defs>
							<clipPath id="SVGID_12_">
								<use xlink:href="#SVGID_11_"  style="overflow:visible;"/>
							</clipPath>
							<g class="st8">
								
									<rect x="-34.9" y="85.2" transform="matrix(1 -5.235964e-03 5.235964e-03 1 -0.4488 -9.598791e-02)" class="st3" width="32.8" height="1"/>
								
									<rect x="-35" y="78.2" transform="matrix(1 -5.235964e-03 5.235964e-03 1 -0.4125 -9.627289e-02)" class="st3" width="32.8" height="1"/>
								
									<rect x="-35" y="71.3" transform="matrix(1 -5.235964e-03 5.235964e-03 1 -0.3763 -9.655787e-02)" class="st3" width="32.8" height="1"/>
								
									<rect x="-35" y="64.4" transform="matrix(1 -5.235964e-03 5.235964e-03 1 -0.34 -9.684243e-02)" class="st3" width="32.8" height="1"/>
								
									<rect x="-35.1" y="57.4" transform="matrix(1 -5.235964e-03 5.235964e-03 1 -0.3037 -9.712741e-02)" class="st3" width="32.8" height="1"/>
								
									<rect x="-34.9" y="81.7" transform="matrix(1 -5.235964e-03 5.235964e-03 1 -0.4307 -9.613019e-02)" class="st3" width="32.8" height="1"/>
								
									<rect x="-35" y="74.8" transform="matrix(1 -5.235964e-03 5.235964e-03 1 -0.3944 -9.636281e-02)" class="st3" width="32.8" height="1"/>
								
									<rect x="-35" y="67.8" transform="matrix(1 -5.235964e-03 5.235964e-03 1 -0.3581 -9.670015e-02)" class="st3" width="32.8" height="1"/>
								
									<rect x="-35.1" y="60.9" transform="matrix(1 -5.235964e-03 5.235964e-03 1 -0.3219 -9.698512e-02)" class="st3" width="32.8" height="1"/>
								
									<rect x="-35.1" y="54" transform="matrix(1 -5.235964e-03 5.235964e-03 1 -0.2856 -9.727010e-02)" class="st3" width="32.8" height="1"/>
								
									<rect x="-2.4" y="85" transform="matrix(1 -5.235964e-03 5.235964e-03 1 -0.4475 7.427628e-02)" class="st3" width="32.7" height="1"/>
								
									<rect x="-2.4" y="78.1" transform="matrix(1 -5.235964e-03 5.235964e-03 1 -0.4112 7.399134e-02)" class="st3" width="32.8" height="1"/>
								
									<rect x="-2.5" y="71.1" transform="matrix(1 -5.235964e-03 5.235964e-03 1 -0.3749 7.370636e-02)" class="st3" width="32.8" height="1"/>
								
									<rect x="-2.5" y="64.2" transform="matrix(1 -5.235964e-03 5.235964e-03 1 -0.3387 7.342180e-02)" class="st3" width="32.8" height="1"/>
								
									<rect x="-2.5" y="57.3" transform="matrix(1 -5.235964e-03 5.235964e-03 1 -0.3024 7.318915e-02)" class="st3" width="32.7" height="1"/>
								
									<rect x="-2.4" y="81.5" transform="matrix(1 -5.235964e-03 5.235964e-03 1 -0.4294 7.413404e-02)" class="st3" width="32.8" height="1"/>
								
									<rect x="-2.5" y="74.6" transform="matrix(1 -5.235964e-03 5.235964e-03 1 -0.3931 7.390140e-02)" class="st3" width="32.8" height="1"/>
								
									<rect x="-2.5" y="67.7" transform="matrix(1 -5.235964e-03 5.235964e-03 1 -0.3568 7.356406e-02)" class="st3" width="32.8" height="1"/>
								
									<rect x="-2.5" y="60.7" transform="matrix(1 -5.235964e-03 5.235964e-03 1 -0.3205 7.327911e-02)" class="st3" width="32.8" height="1"/>
								
									<rect x="-2.6" y="53.8" transform="matrix(1 -5.235964e-03 5.235964e-03 1 -0.2843 7.304688e-02)" class="st3" width="32.8" height="1"/>
								
									<rect x="30.5" y="84.4" transform="matrix(0.9999 -9.999500e-03 9.999500e-03 0.9999 -0.847 0.4731)" class="st3" width="32.8" height="1"/>
								
									<rect x="30.1" y="77.9" transform="matrix(1 -5.235964e-03 5.235964e-03 1 -0.4099 0.2443)" class="st3" width="32.8" height="1"/>
								
									<rect x="30.4" y="70.6" transform="matrix(0.9999 -9.999500e-03 9.999500e-03 0.9999 -0.7085 0.4711)" class="st3" width="32.8" height="1"/>
								
									<rect x="30" y="64" transform="matrix(1 -5.235964e-03 5.235964e-03 1 -0.3374 0.2437)" class="st3" width="32.8" height="1"/>
								
									<rect x="30" y="57.1" transform="matrix(1 -5.235964e-03 5.235964e-03 1 -0.3011 0.2435)" class="st3" width="32.8" height="1"/>
								
									<rect x="30.1" y="81.4" transform="matrix(1 -5.235964e-03 5.235964e-03 1 -0.428 0.2444)" class="st3" width="32.8" height="1"/>
								
									<rect x="30.1" y="74.4" transform="matrix(1 -5.235964e-03 5.235964e-03 1 -0.3918 0.2442)" class="st3" width="32.8" height="1"/>
								
									<rect x="30" y="67.5" transform="matrix(1 -5.235964e-03 5.235964e-03 1 -0.3555 0.2438)" class="st3" width="32.8" height="1"/>
								
									<rect x="30" y="60.6" transform="matrix(1 -5.235964e-03 5.235964e-03 1 -0.3192 0.2435)" class="st3" width="32.8" height="1"/>
								
									<rect x="30" y="53.6" transform="matrix(1 -5.235964e-03 5.235964e-03 1 -0.283 0.2433)" class="st3" width="32.8" height="1"/>
							</g>
						</g>
						<g>
							<defs>
								
									<rect id="SVGID_13_" x="-2.2" y="87.2" transform="matrix(1 -5.235964e-03 5.235964e-03 1 -0.5472 7.503352e-02)" width="32.5" height="34.6"/>
							</defs>
							<clipPath id="SVGID_14_">
								<use xlink:href="#SVGID_13_"  style="overflow:visible;"/>
							</clipPath>
							<g class="st9">
								
									<rect x="-34.8" y="112.9" transform="matrix(1 -5.235964e-03 5.235964e-03 1 -0.5939 -9.484842e-02)" class="st3" width="32.8" height="1"/>
								
									<rect x="-34.8" y="105.9" transform="matrix(1 -5.235964e-03 5.235964e-03 1 -0.5576 -9.513340e-02)" class="st3" width="32.8" height="1"/>
								
									<rect x="-34.4" y="98.9" transform="matrix(0.9999 -9.999500e-03 9.999500e-03 0.9999 -0.9954 -0.1751)" class="st3" width="32.8" height="1"/>
								
									<rect x="-34.5" y="92" transform="matrix(0.9999 -9.999500e-03 9.999500e-03 0.9999 -0.9261 -0.1762)" class="st3" width="32.8" height="1"/>
								
									<rect x="-34.8" y="109.4" transform="matrix(1 -5.235964e-03 5.235964e-03 1 -0.5758 -9.499071e-02)" class="st3" width="32.8" height="1"/>
								
									<rect x="-34.8" y="102.5" transform="matrix(1 -5.235964e-03 5.235964e-03 1 -0.5395 -9.527568e-02)" class="st3" width="32.8" height="1"/>
								
									<rect x="-34.9" y="95.5" transform="matrix(1 -5.235964e-03 5.235964e-03 1 -0.5032 -9.556065e-02)" class="st3" width="32.8" height="1"/>
								
									<rect x="-34.9" y="88.6" transform="matrix(1 -5.235964e-03 5.235964e-03 1 -0.4669 -9.584564e-02)" class="st3" width="32.8" height="1"/>
								
									<rect x="-2.3" y="112.7" transform="matrix(1 -5.235964e-03 5.235964e-03 1 -0.5926 7.541580e-02)" class="st3" width="32.8" height="1"/>
								
									<rect x="-2.3" y="105.8" transform="matrix(1 -5.235964e-03 5.235964e-03 1 -0.5563 7.513081e-02)" class="st3" width="32.7" height="1"/>
								
									<rect x="-2.3" y="98.8" transform="matrix(1 -5.235964e-03 5.235964e-03 1 -0.5201 7.484627e-02)" class="st3" width="32.8" height="1"/>
								
									<rect x="-2.4" y="91.9" transform="matrix(1 -5.235964e-03 5.235964e-03 1 -0.4838 7.461365e-02)" class="st3" width="32.8" height="1"/>
								
									<rect x="-1.8" y="109" transform="matrix(0.9999 -9.999500e-03 9.999500e-03 0.9999 -1.0944 0.1517)" class="st3" width="32.8" height="1"/>
								
									<rect x="-2.3" y="102.3" transform="matrix(1 -5.235964e-03 5.235964e-03 1 -0.5382 7.498853e-02)" class="st3" width="32.8" height="1"/>
								
									<rect x="-2.4" y="95.4" transform="matrix(1 -5.235964e-03 5.235964e-03 1 -0.5019 7.470356e-02)" class="st3" width="32.7" height="1"/>
								
									<rect x="-2.4" y="88.4" transform="matrix(1 -5.235964e-03 5.235964e-03 1 -0.4656 7.441858e-02)" class="st3" width="32.8" height="1"/>
								
									<rect x="30.3" y="112.5" transform="matrix(1 -5.235964e-03 5.235964e-03 1 -0.5912 0.2457)" class="st3" width="32.8" height="1"/>
								
									<rect x="30.2" y="105.6" transform="matrix(1 -5.235964e-03 5.235964e-03 1 -0.555 0.2454)" class="st3" width="32.8" height="1"/>
								
									<rect x="30.2" y="98.7" transform="matrix(1 -5.235964e-03 5.235964e-03 1 -0.5187 0.2451)" class="st3" width="32.8" height="1"/>
								
									<rect x="30.2" y="91.7" transform="matrix(1 -5.235964e-03 5.235964e-03 1 -0.4824 0.2449)" class="st3" width="32.8" height="1"/>
								
									<rect x="30.2" y="109.1" transform="matrix(1 -5.235964e-03 5.235964e-03 1 -0.5731 0.2456)" class="st3" width="32.8" height="1"/>
								
									<rect x="30.2" y="102.1" transform="matrix(1 -5.235964e-03 5.235964e-03 1 -0.5368 0.2453)" class="st3" width="32.8" height="1"/>
								
									<rect x="30.2" y="95.2" transform="matrix(1 -5.235964e-03 5.235964e-03 1 -0.5006 0.245)" class="st3" width="32.8" height="1"/>
								
									<rect x="30.1" y="88.3" transform="matrix(1 -5.235964e-03 5.235964e-03 1 -0.4643 0.2447)" class="st3" width="32.8" height="1"/>
							</g>
						</g>
						<g>
							<defs>
								
									<rect id="SVGID_15_" x="30" y="17.8" transform="matrix(1 -5.235964e-03 5.235964e-03 1 -0.1832 0.2425)" width="32.5" height="34.6"/>
							</defs>
							<clipPath id="SVGID_16_">
								<use xlink:href="#SVGID_15_"  style="overflow:visible;"/>
							</clipPath>
							<g class="st10">
								
									<rect x="-2.6" y="50.3" transform="matrix(1 -5.235964e-03 5.235964e-03 1 -0.2661 7.285184e-02)" class="st3" width="32.8" height="1"/>
								
									<rect x="-2.6" y="43.4" transform="matrix(1 -5.235964e-03 5.235964e-03 1 -0.2298 7.256687e-02)" class="st3" width="32.8" height="1"/>
								
									<rect x="-2.6" y="46.9" transform="matrix(1 -5.235964e-03 5.235964e-03 1 -0.248 7.270955e-02)" class="st3" width="32.7" height="1"/>
								
									<rect x="-2.5" y="39.7" transform="matrix(0.9999 -9.999500e-03 9.999500e-03 0.9999 -0.4017 0.1412)" class="st3" width="32.8" height="1"/>
								
									<rect x="29.9" y="50.2" transform="matrix(1 -5.235964e-03 5.235964e-03 1 -0.2648 0.2431)" class="st3" width="32.8" height="1"/>
								
									<rect x="29.9" y="43.2" transform="matrix(1 -5.235964e-03 5.235964e-03 1 -0.2285 0.2428)" class="st3" width="32.8" height="1"/>
								
									<rect x="29.9" y="46.7" transform="matrix(1 -5.235964e-03 5.235964e-03 1 -0.2467 0.243)" class="st3" width="32.8" height="1"/>
								
									<rect x="29.9" y="39.8" transform="matrix(1 -5.235964e-03 5.235964e-03 1 -0.2104 0.2427)" class="st3" width="32.8" height="1"/>
								
									<rect x="62.5" y="50" transform="matrix(1 -5.235964e-03 5.235964e-03 1 -0.2635 0.4134)" class="st3" width="32.7" height="1"/>
								
									<rect x="62.4" y="43.1" transform="matrix(1 -5.235964e-03 5.235964e-03 1 -0.2272 0.4131)" class="st3" width="32.8" height="1"/>
								
									<rect x="62.4" y="46.5" transform="matrix(1 -5.235964e-03 5.235964e-03 1 -0.2453 0.4132)" class="st3" width="32.8" height="1"/>
								
									<rect x="62.4" y="39.6" transform="matrix(1 -5.235964e-03 5.235964e-03 1 -0.2091 0.413)" class="st3" width="32.8" height="1"/>
							</g>
						</g>
						<g>
							<defs>
								
									<rect id="SVGID_17_" x="30.1" y="52.4" transform="matrix(1 -5.235964e-03 5.235964e-03 1 -0.3645 0.2439)" width="32.5" height="34.6"/>
							</defs>
							<clipPath id="SVGID_18_">
								<use xlink:href="#SVGID_17_"  style="overflow:visible;"/>
							</clipPath>
							<g class="st11">
								
									<rect x="-2.4" y="85" transform="matrix(1 -5.235964e-03 5.235964e-03 1 -0.4475 7.427628e-02)" class="st3" width="32.7" height="1"/>
								
									<rect x="-2.4" y="78.1" transform="matrix(1 -5.235964e-03 5.235964e-03 1 -0.4112 7.399134e-02)" class="st3" width="32.8" height="1"/>
								
									<rect x="-2.5" y="71.1" transform="matrix(1 -5.235964e-03 5.235964e-03 1 -0.3749 7.370636e-02)" class="st3" width="32.8" height="1"/>
								
									<rect x="-2.5" y="64.2" transform="matrix(1 -5.235964e-03 5.235964e-03 1 -0.3387 7.342180e-02)" class="st3" width="32.8" height="1"/>
								
									<rect x="-2.5" y="57.3" transform="matrix(1 -5.235964e-03 5.235964e-03 1 -0.3024 7.318915e-02)" class="st3" width="32.7" height="1"/>
								
									<rect x="-2.4" y="81.5" transform="matrix(1 -5.235964e-03 5.235964e-03 1 -0.4294 7.413404e-02)" class="st3" width="32.8" height="1"/>
								
									<rect x="-2.5" y="74.6" transform="matrix(1 -5.235964e-03 5.235964e-03 1 -0.3931 7.390140e-02)" class="st3" width="32.8" height="1"/>
								
									<rect x="-2.5" y="67.7" transform="matrix(1 -5.235964e-03 5.235964e-03 1 -0.3568 7.356406e-02)" class="st3" width="32.8" height="1"/>
								
									<rect x="-2.5" y="60.7" transform="matrix(1 -5.235964e-03 5.235964e-03 1 -0.3205 7.327911e-02)" class="st3" width="32.8" height="1"/>
								
									<rect x="-2.6" y="53.8" transform="matrix(1 -5.235964e-03 5.235964e-03 1 -0.2843 7.304688e-02)" class="st3" width="32.8" height="1"/>
								
									<rect x="30.5" y="84.4" transform="matrix(0.9999 -9.999500e-03 9.999500e-03 0.9999 -0.847 0.4731)" class="st3" width="32.8" height="1"/>
								
									<rect x="30.1" y="77.9" transform="matrix(1 -5.235964e-03 5.235964e-03 1 -0.4099 0.2443)" class="st3" width="32.8" height="1"/>
								
									<rect x="30.4" y="70.6" transform="matrix(0.9999 -9.999500e-03 9.999500e-03 0.9999 -0.7085 0.4711)" class="st3" width="32.8" height="1"/>
								
									<rect x="30" y="64" transform="matrix(1 -5.235964e-03 5.235964e-03 1 -0.3374 0.2437)" class="st3" width="32.8" height="1"/>
								
									<rect x="30" y="57.1" transform="matrix(1 -5.235964e-03 5.235964e-03 1 -0.3011 0.2435)" class="st3" width="32.8" height="1"/>
								
									<rect x="30.1" y="81.4" transform="matrix(1 -5.235964e-03 5.235964e-03 1 -0.428 0.2444)" class="st3" width="32.8" height="1"/>
								
									<rect x="30.1" y="74.4" transform="matrix(1 -5.235964e-03 5.235964e-03 1 -0.3918 0.2442)" class="st3" width="32.8" height="1"/>
								
									<rect x="30" y="67.5" transform="matrix(1 -5.235964e-03 5.235964e-03 1 -0.3555 0.2438)" class="st3" width="32.8" height="1"/>
								
									<rect x="30" y="60.6" transform="matrix(1 -5.235964e-03 5.235964e-03 1 -0.3192 0.2435)" class="st3" width="32.8" height="1"/>
								
									<rect x="30" y="53.6" transform="matrix(1 -5.235964e-03 5.235964e-03 1 -0.283 0.2433)" class="st3" width="32.8" height="1"/>
								
									<rect x="62.6" y="84.6" transform="matrix(1 -5.235964e-03 5.235964e-03 1 -0.4448 0.4148)" class="st3" width="32.8" height="1"/>
								
									<rect x="62.6" y="77.7" transform="matrix(1 -5.235964e-03 5.235964e-03 1 -0.4085 0.4145)" class="st3" width="32.8" height="1"/>
								
									<rect x="62.6" y="70.8" transform="matrix(1 -5.235964e-03 5.235964e-03 1 -0.3723 0.4143)" class="st3" width="32.8" height="1"/>
								
									<rect x="62.5" y="63.9" transform="matrix(1 -5.235964e-03 5.235964e-03 1 -0.336 0.414)" class="st3" width="32.8" height="1"/>
								
									<rect x="62.5" y="56.9" transform="matrix(1 -5.235964e-03 5.235964e-03 1 -0.2997 0.4137)" class="st3" width="32.8" height="1"/>
								
									<rect x="62.6" y="81.2" transform="matrix(1 -5.235964e-03 5.235964e-03 1 -0.4267 0.4147)" class="st3" width="32.8" height="1"/>
								
									<rect x="62.6" y="74.3" transform="matrix(1 -5.235964e-03 5.235964e-03 1 -0.3904 0.4144)" class="st3" width="32.8" height="1"/>
								
									<rect x="62.5" y="67.3" transform="matrix(1 -5.235964e-03 5.235964e-03 1 -0.3541 0.4141)" class="st3" width="32.7" height="1"/>
								
									<rect x="62.5" y="60.4" transform="matrix(1 -5.235964e-03 5.235964e-03 1 -0.3179 0.4138)" class="st3" width="32.8" height="1"/>
								
									<rect x="62.7" y="52.9" transform="matrix(0.9999 -9.999500e-03 9.999500e-03 0.9999 -0.5305 0.7937)" class="st3" width="32.8" height="1"/>
							</g>
						</g>
						<g>
							<defs>
								
									<rect id="SVGID_19_" x="30.3" y="87.1" transform="matrix(1 -5.235964e-03 5.235964e-03 1 -0.5459 0.2454)" width="32.5" height="34.6"/>
							</defs>
							<clipPath id="SVGID_20_">
								<use xlink:href="#SVGID_19_"  style="overflow:visible;"/>
							</clipPath>
							<g class="st12">
								
									<rect x="-2.3" y="112.7" transform="matrix(1 -5.235964e-03 5.235964e-03 1 -0.5926 7.541580e-02)" class="st3" width="32.8" height="1"/>
								
									<rect x="-2.3" y="105.8" transform="matrix(1 -5.235964e-03 5.235964e-03 1 -0.5563 7.513081e-02)" class="st3" width="32.7" height="1"/>
								
									<rect x="-2.3" y="98.8" transform="matrix(1 -5.235964e-03 5.235964e-03 1 -0.5201 7.484627e-02)" class="st3" width="32.8" height="1"/>
								
									<rect x="-2.4" y="91.9" transform="matrix(1 -5.235964e-03 5.235964e-03 1 -0.4838 7.461365e-02)" class="st3" width="32.8" height="1"/>
								
									<rect x="-1.8" y="109" transform="matrix(0.9999 -9.999500e-03 9.999500e-03 0.9999 -1.0944 0.1517)" class="st3" width="32.8" height="1"/>
								
									<rect x="-2.3" y="102.3" transform="matrix(1 -5.235964e-03 5.235964e-03 1 -0.5382 7.498853e-02)" class="st3" width="32.8" height="1"/>
								
									<rect x="-2.4" y="95.4" transform="matrix(1 -5.235964e-03 5.235964e-03 1 -0.5019 7.470356e-02)" class="st3" width="32.7" height="1"/>
								
									<rect x="-2.4" y="88.4" transform="matrix(1 -5.235964e-03 5.235964e-03 1 -0.4656 7.441858e-02)" class="st3" width="32.8" height="1"/>
								
									<rect x="30.3" y="112.5" transform="matrix(1 -5.235964e-03 5.235964e-03 1 -0.5912 0.2457)" class="st3" width="32.8" height="1"/>
								
									<rect x="30.2" y="105.6" transform="matrix(1 -5.235964e-03 5.235964e-03 1 -0.555 0.2454)" class="st3" width="32.8" height="1"/>
								
									<rect x="30.2" y="98.7" transform="matrix(1 -5.235964e-03 5.235964e-03 1 -0.5187 0.2451)" class="st3" width="32.8" height="1"/>
								
									<rect x="30.2" y="91.7" transform="matrix(1 -5.235964e-03 5.235964e-03 1 -0.4824 0.2449)" class="st3" width="32.8" height="1"/>
								
									<rect x="30.2" y="109.1" transform="matrix(1 -5.235964e-03 5.235964e-03 1 -0.5731 0.2456)" class="st3" width="32.8" height="1"/>
								
									<rect x="30.2" y="102.1" transform="matrix(1 -5.235964e-03 5.235964e-03 1 -0.5368 0.2453)" class="st3" width="32.8" height="1"/>
								
									<rect x="30.2" y="95.2" transform="matrix(1 -5.235964e-03 5.235964e-03 1 -0.5006 0.245)" class="st3" width="32.8" height="1"/>
								
									<rect x="30.1" y="88.3" transform="matrix(1 -5.235964e-03 5.235964e-03 1 -0.4643 0.2447)" class="st3" width="32.8" height="1"/>
								
									<rect x="62.8" y="112.3" transform="matrix(1 -5.235964e-03 5.235964e-03 1 -0.5899 0.416)" class="st3" width="32.8" height="1"/>
								
									<rect x="62.7" y="105.4" transform="matrix(1 -5.235964e-03 5.235964e-03 1 -0.5536 0.4157)" class="st3" width="32.8" height="1"/>
								
									<rect x="62.7" y="98.5" transform="matrix(1 -5.235964e-03 5.235964e-03 1 -0.5174 0.4154)" class="st3" width="32.7" height="1"/>
								
									<rect x="62.7" y="91.6" transform="matrix(1 -5.235964e-03 5.235964e-03 1 -0.4811 0.4151)" class="st3" width="32.8" height="1"/>
								
									<rect x="62.8" y="108.9" transform="matrix(1 -5.235964e-03 5.235964e-03 1 -0.5718 0.4159)" class="st3" width="32.7" height="1"/>
								
									<rect x="62.7" y="102" transform="matrix(1 -5.235964e-03 5.235964e-03 1 -0.5355 0.4155)" class="st3" width="32.8" height="1"/>
								
									<rect x="63.1" y="94.5" transform="matrix(0.9999 -9.999500e-03 9.999500e-03 0.9999 -0.9461 0.7999)" class="st3" width="32.8" height="1"/>
								
									<rect x="62.7" y="88.1" transform="matrix(1 -5.235964e-03 5.235964e-03 1 -0.4629 0.415)" class="st3" width="32.8" height="1"/>
							</g>
						</g>
						<g>
							<defs>
								
									<rect id="SVGID_21_" x="62.5" y="17.6" transform="matrix(1 -5.235964e-03 5.235964e-03 1 -0.1818 0.4128)" width="32.5" height="34.6"/>
							</defs>
							<clipPath id="SVGID_22_">
								<use xlink:href="#SVGID_21_"  style="overflow:visible;"/>
							</clipPath>
							<g class="st13">
								
									<rect x="29.9" y="50.2" transform="matrix(1 -5.235964e-03 5.235964e-03 1 -0.2648 0.2431)" class="st3" width="32.8" height="1"/>
								
									<rect x="29.9" y="43.2" transform="matrix(1 -5.235964e-03 5.235964e-03 1 -0.2285 0.2428)" class="st3" width="32.8" height="1"/>
								
									<rect x="29.9" y="46.7" transform="matrix(1 -5.235964e-03 5.235964e-03 1 -0.2467 0.243)" class="st3" width="32.8" height="1"/>
								
									<rect x="29.9" y="39.8" transform="matrix(1 -5.235964e-03 5.235964e-03 1 -0.2104 0.2427)" class="st3" width="32.8" height="1"/>
								
									<rect x="62.5" y="50" transform="matrix(1 -5.235964e-03 5.235964e-03 1 -0.2635 0.4134)" class="st3" width="32.7" height="1"/>
								
									<rect x="62.4" y="43.1" transform="matrix(1 -5.235964e-03 5.235964e-03 1 -0.2272 0.4131)" class="st3" width="32.8" height="1"/>
								
									<rect x="62.4" y="46.5" transform="matrix(1 -5.235964e-03 5.235964e-03 1 -0.2453 0.4132)" class="st3" width="32.8" height="1"/>
								
									<rect x="62.4" y="39.6" transform="matrix(1 -5.235964e-03 5.235964e-03 1 -0.2091 0.413)" class="st3" width="32.8" height="1"/>
								
									<rect x="95" y="49.8" transform="matrix(1 -5.235964e-03 5.235964e-03 1 -0.2621 0.5837)" class="st3" width="32.8" height="1"/>
								
									<rect x="94.9" y="42.9" transform="matrix(1 -5.235964e-03 5.235964e-03 1 -0.2258 0.5834)" class="st3" width="32.8" height="1"/>
								
									<rect x="95" y="46.4" transform="matrix(1 -5.235964e-03 5.235964e-03 1 -0.244 0.5836)" class="st3" width="32.8" height="1"/>
								
									<rect x="94.9" y="39.4" transform="matrix(1 -5.235964e-03 5.235964e-03 1 -0.2077 0.5833)" class="st3" width="32.8" height="1"/>
							</g>
						</g>
						<g>
							<defs>
								
									<rect id="SVGID_23_" x="62.7" y="52.3" transform="matrix(1 -5.235964e-03 5.235964e-03 1 -0.3632 0.4142)" width="32.5" height="34.6"/>
							</defs>
							<clipPath id="SVGID_24_">
								<use xlink:href="#SVGID_23_"  style="overflow:visible;"/>
							</clipPath>
							<g class="st14">
								
									<rect x="30.5" y="84.4" transform="matrix(0.9999 -9.999500e-03 9.999500e-03 0.9999 -0.847 0.4731)" class="st3" width="32.8" height="1"/>
								
									<rect x="30.1" y="77.9" transform="matrix(1 -5.235964e-03 5.235964e-03 1 -0.4099 0.2443)" class="st3" width="32.8" height="1"/>
								
									<rect x="30.4" y="70.6" transform="matrix(0.9999 -9.999500e-03 9.999500e-03 0.9999 -0.7085 0.4711)" class="st3" width="32.8" height="1"/>
								
									<rect x="30" y="64" transform="matrix(1 -5.235964e-03 5.235964e-03 1 -0.3374 0.2437)" class="st3" width="32.8" height="1"/>
								
									<rect x="30" y="57.1" transform="matrix(1 -5.235964e-03 5.235964e-03 1 -0.3011 0.2435)" class="st3" width="32.8" height="1"/>
								
									<rect x="30.1" y="81.4" transform="matrix(1 -5.235964e-03 5.235964e-03 1 -0.428 0.2444)" class="st3" width="32.8" height="1"/>
								
									<rect x="30.1" y="74.4" transform="matrix(1 -5.235964e-03 5.235964e-03 1 -0.3918 0.2442)" class="st3" width="32.8" height="1"/>
								
									<rect x="30" y="67.5" transform="matrix(1 -5.235964e-03 5.235964e-03 1 -0.3555 0.2438)" class="st3" width="32.8" height="1"/>
								
									<rect x="30" y="60.6" transform="matrix(1 -5.235964e-03 5.235964e-03 1 -0.3192 0.2435)" class="st3" width="32.8" height="1"/>
								
									<rect x="30" y="53.6" transform="matrix(1 -5.235964e-03 5.235964e-03 1 -0.283 0.2433)" class="st3" width="32.8" height="1"/>
								
									<rect x="62.6" y="84.6" transform="matrix(1 -5.235964e-03 5.235964e-03 1 -0.4448 0.4148)" class="st3" width="32.8" height="1"/>
								
									<rect x="62.6" y="77.7" transform="matrix(1 -5.235964e-03 5.235964e-03 1 -0.4085 0.4145)" class="st3" width="32.8" height="1"/>
								
									<rect x="62.6" y="70.8" transform="matrix(1 -5.235964e-03 5.235964e-03 1 -0.3723 0.4143)" class="st3" width="32.8" height="1"/>
								
									<rect x="62.5" y="63.9" transform="matrix(1 -5.235964e-03 5.235964e-03 1 -0.336 0.414)" class="st3" width="32.8" height="1"/>
								
									<rect x="62.5" y="56.9" transform="matrix(1 -5.235964e-03 5.235964e-03 1 -0.2997 0.4137)" class="st3" width="32.8" height="1"/>
								
									<rect x="62.6" y="81.2" transform="matrix(1 -5.235964e-03 5.235964e-03 1 -0.4267 0.4147)" class="st3" width="32.8" height="1"/>
								
									<rect x="62.6" y="74.3" transform="matrix(1 -5.235964e-03 5.235964e-03 1 -0.3904 0.4144)" class="st3" width="32.8" height="1"/>
								
									<rect x="62.5" y="67.3" transform="matrix(1 -5.235964e-03 5.235964e-03 1 -0.3541 0.4141)" class="st3" width="32.7" height="1"/>
								
									<rect x="62.5" y="60.4" transform="matrix(1 -5.235964e-03 5.235964e-03 1 -0.3179 0.4138)" class="st3" width="32.8" height="1"/>
								
									<rect x="62.7" y="52.9" transform="matrix(0.9999 -9.999500e-03 9.999500e-03 0.9999 -0.5305 0.7937)" class="st3" width="32.8" height="1"/>
								
									<rect x="95.2" y="84.5" transform="matrix(1 -5.235964e-03 5.235964e-03 1 -0.4435 0.5851)" class="st3" width="32.8" height="1"/>
								
									<rect x="95.1" y="77.5" transform="matrix(1 -5.235964e-03 5.235964e-03 1 -0.4072 0.5848)" class="st3" width="32.8" height="1"/>
								
									<rect x="95.1" y="70.6" transform="matrix(1 -5.235964e-03 5.235964e-03 1 -0.371 0.5846)" class="st3" width="32.8" height="1"/>
								
									<rect x="95" y="63.7" transform="matrix(1 -5.235964e-03 5.235964e-03 1 -0.3347 0.5842)" class="st3" width="32.8" height="1"/>
								
									<rect x="95" y="56.8" transform="matrix(1 -5.235964e-03 5.235964e-03 1 -0.2984 0.584)" class="st3" width="32.8" height="1"/>
								
									<rect x="95.1" y="81" transform="matrix(1 -5.235964e-03 5.235964e-03 1 -0.4254 0.5849)" class="st3" width="32.8" height="1"/>
								
									<rect x="95.1" y="74.1" transform="matrix(1 -5.235964e-03 5.235964e-03 1 -0.3891 0.5847)" class="st3" width="32.8" height="1"/>
								
									<rect x="95.1" y="67.2" transform="matrix(1 -5.235964e-03 5.235964e-03 1 -0.3528 0.5844)" class="st3" width="32.8" height="1"/>
								
									<rect x="95" y="60.2" transform="matrix(1 -5.235964e-03 5.235964e-03 1 -0.3165 0.5841)" class="st3" width="32.8" height="1"/>
								
									<rect x="95" y="53.3" transform="matrix(1 -5.235964e-03 5.235964e-03 1 -0.2803 0.5838)" class="st3" width="32.8" height="1"/>
							</g>
						</g>
						<g>
							<defs>
								
									<rect id="SVGID_25_" x="62.8" y="86.9" transform="matrix(1 -5.235964e-03 5.235964e-03 1 -0.5446 0.4156)" width="32.5" height="34.6"/>
							</defs>
							<clipPath id="SVGID_26_">
								<use xlink:href="#SVGID_25_"  style="overflow:visible;"/>
							</clipPath>
							<g class="st15">
								
									<rect x="30.3" y="112.5" transform="matrix(1 -5.235964e-03 5.235964e-03 1 -0.5912 0.2457)" class="st3" width="32.8" height="1"/>
								
									<rect x="30.2" y="105.6" transform="matrix(1 -5.235964e-03 5.235964e-03 1 -0.555 0.2454)" class="st3" width="32.8" height="1"/>
								
									<rect x="30.2" y="98.7" transform="matrix(1 -5.235964e-03 5.235964e-03 1 -0.5187 0.2451)" class="st3" width="32.8" height="1"/>
								
									<rect x="30.2" y="91.7" transform="matrix(1 -5.235964e-03 5.235964e-03 1 -0.4824 0.2449)" class="st3" width="32.8" height="1"/>
								
									<rect x="30.2" y="109.1" transform="matrix(1 -5.235964e-03 5.235964e-03 1 -0.5731 0.2456)" class="st3" width="32.8" height="1"/>
								
									<rect x="30.2" y="102.1" transform="matrix(1 -5.235964e-03 5.235964e-03 1 -0.5368 0.2453)" class="st3" width="32.8" height="1"/>
								
									<rect x="30.2" y="95.2" transform="matrix(1 -5.235964e-03 5.235964e-03 1 -0.5006 0.245)" class="st3" width="32.8" height="1"/>
								
									<rect x="30.1" y="88.3" transform="matrix(1 -5.235964e-03 5.235964e-03 1 -0.4643 0.2447)" class="st3" width="32.8" height="1"/>
								
									<rect x="62.8" y="112.3" transform="matrix(1 -5.235964e-03 5.235964e-03 1 -0.5899 0.416)" class="st3" width="32.8" height="1"/>
								
									<rect x="62.7" y="105.4" transform="matrix(1 -5.235964e-03 5.235964e-03 1 -0.5536 0.4157)" class="st3" width="32.8" height="1"/>
								
									<rect x="62.7" y="98.5" transform="matrix(1 -5.235964e-03 5.235964e-03 1 -0.5174 0.4154)" class="st3" width="32.7" height="1"/>
								
									<rect x="62.7" y="91.6" transform="matrix(1 -5.235964e-03 5.235964e-03 1 -0.4811 0.4151)" class="st3" width="32.8" height="1"/>
								
									<rect x="62.8" y="108.9" transform="matrix(1 -5.235964e-03 5.235964e-03 1 -0.5718 0.4159)" class="st3" width="32.7" height="1"/>
								
									<rect x="62.7" y="102" transform="matrix(1 -5.235964e-03 5.235964e-03 1 -0.5355 0.4155)" class="st3" width="32.8" height="1"/>
								
									<rect x="63.1" y="94.5" transform="matrix(0.9999 -9.999500e-03 9.999500e-03 0.9999 -0.9461 0.7999)" class="st3" width="32.8" height="1"/>
								
									<rect x="62.7" y="88.1" transform="matrix(1 -5.235964e-03 5.235964e-03 1 -0.4629 0.415)" class="st3" width="32.8" height="1"/>
								
									<rect x="95.3" y="112.2" transform="matrix(1 -5.235964e-03 5.235964e-03 1 -0.5886 0.5863)" class="st3" width="32.8" height="1"/>
								
									<rect x="95.3" y="105.2" transform="matrix(1 -5.235964e-03 5.235964e-03 1 -0.5523 0.586)" class="st3" width="32.8" height="1"/>
								
									<rect x="95.2" y="98.3" transform="matrix(1 -5.235964e-03 5.235964e-03 1 -0.516 0.5856)" class="st3" width="32.8" height="1"/>
								
									<rect x="95.2" y="91.4" transform="matrix(1 -5.235964e-03 5.235964e-03 1 -0.4798 0.5854)" class="st3" width="32.8" height="1"/>
								
									<rect x="95.3" y="108.7" transform="matrix(1 -5.235964e-03 5.235964e-03 1 -0.5704 0.5861)" class="st3" width="32.8" height="1"/>
								
									<rect x="95.7" y="101.1" transform="matrix(0.9999 -9.999500e-03 9.999500e-03 0.9999 -1.0105 1.1261)" class="st3" width="32.8" height="1"/>
								
									<rect x="95.2" y="94.9" transform="matrix(1 -5.235964e-03 5.235964e-03 1 -0.4979 0.5855)" class="st3" width="32.8" height="1"/>
								
									<rect x="95.2" y="87.9" transform="matrix(1 -5.235964e-03 5.235964e-03 1 -0.4616 0.5853)" class="st3" width="32.8" height="1"/>
							</g>
						</g>
						<g>
							<defs>
								
									<rect id="SVGID_27_" x="95" y="17.4" transform="matrix(1 -5.235964e-03 5.235964e-03 1 -0.1805 0.583)" width="32.5" height="34.6"/>
							</defs>
							<clipPath id="SVGID_28_">
								<use xlink:href="#SVGID_27_"  style="overflow:visible;"/>
							</clipPath>
							<g class="st16">
								
									<rect x="62.5" y="50" transform="matrix(1 -5.235964e-03 5.235964e-03 1 -0.2635 0.4134)" class="st3" width="32.7" height="1"/>
								
									<rect x="62.4" y="43.1" transform="matrix(1 -5.235964e-03 5.235964e-03 1 -0.2272 0.4131)" class="st3" width="32.8" height="1"/>
								
									<rect x="62.4" y="46.5" transform="matrix(1 -5.235964e-03 5.235964e-03 1 -0.2453 0.4132)" class="st3" width="32.8" height="1"/>
								
									<rect x="62.4" y="39.6" transform="matrix(1 -5.235964e-03 5.235964e-03 1 -0.2091 0.413)" class="st3" width="32.8" height="1"/>
								
									<rect x="95" y="49.8" transform="matrix(1 -5.235964e-03 5.235964e-03 1 -0.2621 0.5837)" class="st3" width="32.8" height="1"/>
								
									<rect x="94.9" y="42.9" transform="matrix(1 -5.235964e-03 5.235964e-03 1 -0.2258 0.5834)" class="st3" width="32.8" height="1"/>
								
									<rect x="95" y="46.4" transform="matrix(1 -5.235964e-03 5.235964e-03 1 -0.244 0.5836)" class="st3" width="32.8" height="1"/>
								
									<rect x="94.9" y="39.4" transform="matrix(1 -5.235964e-03 5.235964e-03 1 -0.2077 0.5833)" class="st3" width="32.8" height="1"/>
							</g>
						</g>
						<g>
							<defs>
								
									<rect id="SVGID_29_" x="95.2" y="52.1" transform="matrix(1 -5.235964e-03 5.235964e-03 1 -0.3619 0.5845)" width="32.5" height="34.6"/>
							</defs>
							<clipPath id="SVGID_30_">
								<use xlink:href="#SVGID_29_"  style="overflow:visible;"/>
							</clipPath>
							<g class="st17">
								
									<rect x="62.6" y="84.6" transform="matrix(1 -5.235964e-03 5.235964e-03 1 -0.4448 0.4148)" class="st3" width="32.8" height="1"/>
								
									<rect x="62.6" y="77.7" transform="matrix(1 -5.235964e-03 5.235964e-03 1 -0.4085 0.4145)" class="st3" width="32.8" height="1"/>
								
									<rect x="62.6" y="70.8" transform="matrix(1 -5.235964e-03 5.235964e-03 1 -0.3723 0.4143)" class="st3" width="32.8" height="1"/>
								
									<rect x="62.5" y="63.9" transform="matrix(1 -5.235964e-03 5.235964e-03 1 -0.336 0.414)" class="st3" width="32.8" height="1"/>
								
									<rect x="62.5" y="56.9" transform="matrix(1 -5.235964e-03 5.235964e-03 1 -0.2997 0.4137)" class="st3" width="32.8" height="1"/>
								
									<rect x="62.6" y="81.2" transform="matrix(1 -5.235964e-03 5.235964e-03 1 -0.4267 0.4147)" class="st3" width="32.8" height="1"/>
								
									<rect x="62.6" y="74.3" transform="matrix(1 -5.235964e-03 5.235964e-03 1 -0.3904 0.4144)" class="st3" width="32.8" height="1"/>
								
									<rect x="62.5" y="67.3" transform="matrix(1 -5.235964e-03 5.235964e-03 1 -0.3541 0.4141)" class="st3" width="32.7" height="1"/>
								
									<rect x="62.5" y="60.4" transform="matrix(1 -5.235964e-03 5.235964e-03 1 -0.3179 0.4138)" class="st3" width="32.8" height="1"/>
								
									<rect x="62.7" y="52.9" transform="matrix(0.9999 -9.999500e-03 9.999500e-03 0.9999 -0.5305 0.7937)" class="st3" width="32.8" height="1"/>
								
									<rect x="95.2" y="84.5" transform="matrix(1 -5.235964e-03 5.235964e-03 1 -0.4435 0.5851)" class="st3" width="32.8" height="1"/>
								
									<rect x="95.1" y="77.5" transform="matrix(1 -5.235964e-03 5.235964e-03 1 -0.4072 0.5848)" class="st3" width="32.8" height="1"/>
								
									<rect x="95.1" y="70.6" transform="matrix(1 -5.235964e-03 5.235964e-03 1 -0.371 0.5846)" class="st3" width="32.8" height="1"/>
								
									<rect x="95" y="63.7" transform="matrix(1 -5.235964e-03 5.235964e-03 1 -0.3347 0.5842)" class="st3" width="32.8" height="1"/>
								
									<rect x="95" y="56.8" transform="matrix(1 -5.235964e-03 5.235964e-03 1 -0.2984 0.584)" class="st3" width="32.8" height="1"/>
								
									<rect x="95.1" y="81" transform="matrix(1 -5.235964e-03 5.235964e-03 1 -0.4254 0.5849)" class="st3" width="32.8" height="1"/>
								
									<rect x="95.1" y="74.1" transform="matrix(1 -5.235964e-03 5.235964e-03 1 -0.3891 0.5847)" class="st3" width="32.8" height="1"/>
								
									<rect x="95.1" y="67.2" transform="matrix(1 -5.235964e-03 5.235964e-03 1 -0.3528 0.5844)" class="st3" width="32.8" height="1"/>
								
									<rect x="95" y="60.2" transform="matrix(1 -5.235964e-03 5.235964e-03 1 -0.3165 0.5841)" class="st3" width="32.8" height="1"/>
								
									<rect x="95" y="53.3" transform="matrix(1 -5.235964e-03 5.235964e-03 1 -0.2803 0.5838)" class="st3" width="32.8" height="1"/>
							</g>
						</g>
						<g>
							<defs>
								
									<rect id="SVGID_31_" x="95.4" y="86.7" transform="matrix(1 -5.235964e-03 5.235964e-03 1 -0.5432 0.5859)" width="32.5" height="34.6"/>
							</defs>
							<clipPath id="SVGID_32_">
								<use xlink:href="#SVGID_31_"  style="overflow:visible;"/>
							</clipPath>
							<g class="st18">
								
									<rect x="62.8" y="112.3" transform="matrix(1 -5.235964e-03 5.235964e-03 1 -0.5899 0.416)" class="st3" width="32.8" height="1"/>
								
									<rect x="62.7" y="105.4" transform="matrix(1 -5.235964e-03 5.235964e-03 1 -0.5536 0.4157)" class="st3" width="32.8" height="1"/>
								
									<rect x="62.7" y="98.5" transform="matrix(1 -5.235964e-03 5.235964e-03 1 -0.5174 0.4154)" class="st3" width="32.7" height="1"/>
								
									<rect x="62.7" y="91.6" transform="matrix(1 -5.235964e-03 5.235964e-03 1 -0.4811 0.4151)" class="st3" width="32.8" height="1"/>
								
									<rect x="62.8" y="108.9" transform="matrix(1 -5.235964e-03 5.235964e-03 1 -0.5718 0.4159)" class="st3" width="32.7" height="1"/>
								
									<rect x="62.7" y="102" transform="matrix(1 -5.235964e-03 5.235964e-03 1 -0.5355 0.4155)" class="st3" width="32.8" height="1"/>
								
									<rect x="63.1" y="94.5" transform="matrix(0.9999 -9.999500e-03 9.999500e-03 0.9999 -0.9461 0.7999)" class="st3" width="32.8" height="1"/>
								
									<rect x="62.7" y="88.1" transform="matrix(1 -5.235964e-03 5.235964e-03 1 -0.4629 0.415)" class="st3" width="32.8" height="1"/>
								
									<rect x="95.3" y="112.2" transform="matrix(1 -5.235964e-03 5.235964e-03 1 -0.5886 0.5863)" class="st3" width="32.8" height="1"/>
								
									<rect x="95.3" y="105.2" transform="matrix(1 -5.235964e-03 5.235964e-03 1 -0.5523 0.586)" class="st3" width="32.8" height="1"/>
								
									<rect x="95.2" y="98.3" transform="matrix(1 -5.235964e-03 5.235964e-03 1 -0.516 0.5856)" class="st3" width="32.8" height="1"/>
								
									<rect x="95.2" y="91.4" transform="matrix(1 -5.235964e-03 5.235964e-03 1 -0.4798 0.5854)" class="st3" width="32.8" height="1"/>
								
									<rect x="95.3" y="108.7" transform="matrix(1 -5.235964e-03 5.235964e-03 1 -0.5704 0.5861)" class="st3" width="32.8" height="1"/>
								
									<rect x="95.7" y="101.1" transform="matrix(0.9999 -9.999500e-03 9.999500e-03 0.9999 -1.0105 1.1261)" class="st3" width="32.8" height="1"/>
								
									<rect x="95.2" y="94.9" transform="matrix(1 -5.235964e-03 5.235964e-03 1 -0.4979 0.5855)" class="st3" width="32.8" height="1"/>
								
									<rect x="95.2" y="87.9" transform="matrix(1 -5.235964e-03 5.235964e-03 1 -0.4616 0.5853)" class="st3" width="32.8" height="1"/>
							</g>
						</g>
					</g>
				</g>
			</g>
			<path class="st0" d="M5.1,104.5c-0.3,0-0.6-0.3-0.6-0.6v-2.8c0-0.3,0.2-0.6,0.6-0.6s0.6,0.2,0.6,0.6c0,0,0,0,0,0v2.8
				C5.6,104.3,5.4,104.5,5.1,104.5z"/>
			<path class="st0" d="M6.5,103.1H3.7c-0.3,0-0.6-0.3-0.6-0.6c0-0.3,0.3-0.6,0.6-0.6l0,0h2.8c0.3,0,0.6,0.3,0.6,0.6
				C7,102.9,6.8,103.1,6.5,103.1z"/>
			<path class="st0" d="M78.4,5.5c-0.3,0-0.6-0.2-0.6-0.5c0,0,0,0,0,0V2.1c0-0.3,0.2-0.6,0.5-0.6c0,0,0,0,0,0c0.3,0,0.6,0.3,0.6,0.6
				v2.8C78.9,5.2,78.7,5.5,78.4,5.5z"/>
			<path class="st0" d="M79.8,4.1H77c-0.3,0-0.6-0.2-0.6-0.5c0-0.3,0.2-0.6,0.5-0.6c0,0,0.1,0,0.1,0h2.8c0.3,0,0.5,0.3,0.5,0.6
				C80.3,3.8,80.1,4,79.8,4.1z"/>
			<path class="st19" d="M98.5,115c-1,0-1.9-0.8-1.9-1.9c0-1,0.8-1.9,1.9-1.9c1,0,1.9,0.8,1.9,1.9c0,0,0,0,0,0
				C100.4,114.2,99.6,115,98.5,115C98.5,115,98.5,115,98.5,115z M98.5,112.1c-0.6,0-1,0.5-0.9,1c0,0.6,0.5,1,1,0.9
				c0.5,0,0.9-0.5,0.9-1C99.6,112.5,99.1,112.1,98.5,112.1C98.6,112.1,98.5,112.1,98.5,112.1z"/>
			<path class="st19" d="M29.2,3.8c-1,0-1.9-0.8-1.9-1.9c0-1,0.8-1.9,1.9-1.9c1,0,1.9,0.8,1.9,1.9c0,0,0,0,0,0
				C31.1,2.9,30.2,3.8,29.2,3.8z M29.2,0.8c-0.6,0-1,0.4-1,1s0.4,1,1,1s1-0.4,1-1S29.7,0.8,29.2,0.8z"/>
			<path class="st20" d="M21.4,17.4c-0.1,0-0.1-0.1-0.1-0.1c0,0,0,0,0-0.1l0.4-0.5c0,0,0.1,0,0.1,0c0,0,0,0.1,0,0.1L21.4,17.4
				C21.5,17.4,21.4,17.4,21.4,17.4z"/>
			<path class="st20" d="M22.7,16c-0.1,0-0.1-0.1-0.1-0.1c0,0,0,0,0-0.1c0.3-0.3,0.6-0.6,0.9-0.9c0.1,0,0.1,0,0.2,0c0,0,0,0.1,0,0.1
				C23.4,15.4,23.1,15.7,22.7,16C22.8,16,22.8,16,22.7,16z M24.6,14.3C24.6,14.3,24.6,14.3,24.6,14.3c-0.1,0-0.1-0.1-0.1-0.1
				c0.3-0.3,0.7-0.6,1-0.8c0,0,0.1,0,0.2,0c0,0,0,0.1,0,0.1c0,0,0,0,0,0L24.6,14.3C24.7,14.3,24.6,14.3,24.6,14.3z M26.6,12.7
				C26.6,12.7,26.6,12.7,26.6,12.7c-0.1,0-0.1-0.1-0.1-0.1c0.3-0.3,0.7-0.5,1-0.7c0,0,0.1,0,0.2,0c0,0,0,0.1,0,0.1L26.6,12.7
				C26.7,12.7,26.6,12.7,26.6,12.7L26.6,12.7z M28.7,11.3C28.7,11.3,28.6,11.3,28.7,11.3c-0.1,0-0.1-0.1-0.1-0.1
				c0.4-0.2,0.7-0.4,1.1-0.7c0,0,0.1,0,0.1,0c0,0,0,0.1,0,0.1C29.5,10.8,29.1,11.1,28.7,11.3C28.7,11.3,28.7,11.3,28.7,11.3
				L28.7,11.3z M30.9,10C30.9,10,30.8,10,30.9,10c-0.1-0.1-0.1-0.2-0.1-0.2c0.4-0.2,0.8-0.4,1.1-0.6c0,0,0.1,0,0.1,0
				c0,0,0,0.1,0,0.1C31.7,9.5,31.3,9.7,30.9,10L30.9,10z M33.2,8.9C33.1,8.9,33.1,8.9,33.2,8.9c-0.1-0.1-0.1-0.2,0-0.2
				c0.4-0.2,0.8-0.4,1.2-0.5c0.1,0,0.1,0,0.2,0c0,0.1,0,0.1,0,0.2c0,0,0,0,0,0C34,8.5,33.6,8.7,33.2,8.9L33.2,8.9z M61.6,8.3
				L61.6,8.3l-1.2-0.5c-0.1,0-0.1-0.1-0.1-0.1c0-0.1,0.1-0.1,0.1-0.1c0.4,0.1,0.8,0.3,1.2,0.4C61.7,8.2,61.7,8.2,61.6,8.3
				C61.6,8.3,61.6,8.3,61.6,8.3z M35.6,7.9C35.5,7.9,35.5,7.9,35.6,7.9c-0.1-0.1-0.1-0.2,0-0.2l1.2-0.4c0.1,0,0.1,0,0.1,0.1
				c0,0.1,0,0.1-0.1,0.1c0,0,0,0,0,0C36.4,7.6,36,7.8,35.6,7.9L35.6,7.9z M59.2,7.5L59.2,7.5c-0.4-0.1-0.8-0.3-1.2-0.4
				c0,0-0.1,0-0.2,0c0,0,0,0,0-0.1c0-0.1,0.1-0.1,0.1-0.1c0,0,0,0,0,0c0.4,0.1,0.8,0.2,1.2,0.4C59.2,7.3,59.3,7.4,59.2,7.5
				C59.2,7.4,59.2,7.4,59.2,7.5C59.2,7.5,59.2,7.5,59.2,7.5L59.2,7.5z M37.9,7.1C37.9,7.1,37.8,7.1,37.9,7.1c-0.1-0.1-0.1-0.2,0-0.2
				c0.4-0.1,0.8-0.2,1.2-0.3c0.1,0,0.1,0,0.1,0.1c0,0.1,0,0.1-0.1,0.1L37.9,7.1L37.9,7.1z M56.7,6.8L56.7,6.8l-1.2-0.3
				c0,0-0.1,0-0.1-0.1c0,0,0,0,0,0c0-0.1,0.1-0.1,0.1-0.1c0,0,0,0,0,0c0.4,0.1,0.8,0.2,1.2,0.3c0.1,0,0.1,0.1,0.1,0.1c0,0,0,0,0,0
				C56.9,6.7,56.8,6.8,56.7,6.8z M40.4,6.5c-0.1,0-0.1,0-0.1-0.1c0-0.1,0-0.1,0.1-0.1l1.3-0.3c0.1,0,0.1,0.1,0.1,0.1
				c0,0,0,0.1-0.1,0.1C41.2,6.3,40.8,6.4,40.4,6.5L40.4,6.5z M54.3,6.2L54.3,6.2L53,6c-0.1,0-0.1-0.1-0.1-0.1c0,0,0,0,0,0
				c0,0,0-0.1,0.1-0.1c0,0,0,0,0,0c0.4,0,0.8,0.1,1.3,0.2c0.1,0,0.1,0.1,0.1,0.1c0,0,0,0,0,0C54.4,6.2,54.3,6.2,54.3,6.2
				C54.3,6.2,54.3,6.2,54.3,6.2z M42.9,6.1C42.9,6.1,42.8,6,42.9,6.1c-0.1-0.1-0.1-0.2-0.1-0.2c0,0,0,0,0,0c0.4-0.1,0.8-0.1,1.3-0.2
				c0,0,0.1,0,0.1,0.1c0,0,0,0,0,0c0,0.1,0,0.1-0.1,0.1c0,0,0,0,0,0L42.9,6.1L42.9,6.1z M51.7,5.9L51.7,5.9l-1.3-0.1
				c-0.1,0-0.1,0-0.1-0.1c0-0.1,0-0.1,0.1-0.1c0,0,0,0,0.1,0l1.3,0.1c0.1,0,0.1,0.1,0.1,0.1C51.8,5.8,51.8,5.8,51.7,5.9
				C51.8,5.9,51.8,5.9,51.7,5.9z M45.4,5.8C45.3,5.8,45.3,5.8,45.4,5.8c-0.1-0.1-0.1-0.2,0-0.2l1.3-0.1c0.1,0,0.1,0,0.1,0.1
				c0,0.1,0,0.1-0.1,0.1c0,0,0,0,0,0L45.4,5.8L45.4,5.8z M49.2,5.7L49.2,5.7c-0.4,0-0.8,0-1.2,0H48c-0.1,0-0.1,0-0.1-0.1
				c0,0,0,0,0,0c0-0.1,0.1-0.1,0.1-0.1H48c0.4,0,0.8,0,1.2,0c0.1,0,0.1,0,0.1,0.1c0,0,0,0,0,0C49.3,5.7,49.3,5.7,49.2,5.7
				C49.2,5.7,49.2,5.7,49.2,5.7z"/>
			<path class="st20" d="M63.3,9.1L63.3,9.1l-0.6-0.3c0,0,0-0.1,0-0.1c0,0,0,0,0,0c0-0.1,0.1-0.1,0.1-0.1c0,0,0,0,0,0l0.6,0.3
				c0,0,0,0.1,0,0.1C63.4,9.1,63.4,9.1,63.3,9.1C63.3,9.1,63.3,9.1,63.3,9.1z"/>
			<path class="st20" d="M100.5,37.4c0,0-0.1,0-0.1-0.1l-0.2-0.6c0-0.1,0-0.1,0.1-0.1c0.1,0,0.1,0,0.1,0.1c0.1,0.2,0.2,0.4,0.3,0.6
				C100.6,37.4,100.6,37.4,100.5,37.4C100.6,37.4,100.6,37.4,100.5,37.4L100.5,37.4z"/>
			<path class="st20" d="M100.9,65.6L100.9,65.6c-0.1,0-0.1-0.1-0.1-0.1c0,0,0,0,0,0c0.1-0.4,0.3-0.8,0.4-1.1c0-0.1,0.1-0.1,0.1-0.1
				c0,0,0,0,0,0c0.1,0,0.1,0.1,0.1,0.1c0,0,0,0,0,0l-0.4,1.1C101,65.6,101,65.6,100.9,65.6z M101.7,63.3L101.7,63.3
				C101.7,63.3,101.7,63.3,101.7,63.3c-0.1-0.1-0.1-0.1-0.1-0.1c0.1-0.4,0.2-0.8,0.3-1.2c0-0.1,0.1-0.1,0.1-0.1
				c0.1,0,0.1,0.1,0.1,0.1c0,0,0,0,0,0c-0.1,0.4-0.2,0.8-0.3,1.2C101.9,63.3,101.8,63.3,101.7,63.3z M102.4,61L102.4,61
				c-0.1,0-0.1-0.1-0.1-0.1c0,0,0,0,0,0c0.1-0.4,0.2-0.8,0.3-1.2c0-0.1,0.1-0.1,0.1-0.1c0.1,0,0.1,0.1,0.1,0.1l-0.3,1.2
				C102.5,61,102.4,61,102.4,61z M102.9,58.7L102.9,58.7c-0.1,0-0.1-0.1-0.1-0.1c0.1-0.4,0.1-0.8,0.2-1.2c0-0.1,0.1-0.1,0.1-0.1
				c0,0,0,0,0,0c0,0,0.1,0,0.1,0.1c0,0,0,0,0,0c-0.1,0.4-0.1,0.8-0.2,1.2C103,58.6,102.9,58.7,102.9,58.7z M103.2,56.3L103.2,56.3
				c-0.1,0-0.1-0.1-0.1-0.1c0,0,0,0,0,0c0-0.4,0.1-0.8,0.1-1.2c0-0.1,0.1-0.1,0.1-0.1c0,0,0,0,0,0c0.1,0,0.1,0.1,0.1,0.1
				c0,0,0,0,0,0c0,0.4-0.1,0.8-0.1,1.2C103.3,56.2,103.3,56.3,103.2,56.3z M103.4,53.9L103.4,53.9c-0.1,0-0.1,0-0.1-0.1v0
				c0-0.4,0-0.8,0-1.2c0-0.1,0-0.1,0.1-0.1l0,0l0,0c0.1,0,0.1,0.1,0.1,0.1c0,0.4,0,0.8,0,1.2C103.5,53.8,103.5,53.9,103.4,53.9
				C103.4,53.9,103.4,53.9,103.4,53.9L103.4,53.9z M103.4,51.5c-0.1,0-0.1,0-0.1-0.1c0-0.4,0-0.8,0-1.2c0-0.1,0-0.1,0.1-0.1
				c0.1,0,0.1,0,0.1,0.1c0,0,0,0,0,0c0,0.4,0,0.8,0,1.2C103.5,51.4,103.5,51.5,103.4,51.5C103.4,51.5,103.4,51.5,103.4,51.5z
				 M103.3,49.1c-0.1,0-0.1,0-0.1-0.1v0c0-0.4-0.1-0.8-0.1-1.2c0-0.1,0-0.1,0.1-0.1c0,0,0,0,0,0c0.1,0,0.1,0,0.1,0.1
				c0.1,0.4,0.1,0.8,0.1,1.2C103.4,49,103.4,49.1,103.3,49.1L103.3,49.1z M103.1,46.7c-0.1,0-0.1,0-0.1-0.1
				c-0.1-0.4-0.1-0.8-0.2-1.2c0-0.1,0-0.1,0.1-0.1c0,0,0,0,0,0c0.1,0,0.1,0,0.1,0.1c0,0,0,0,0,0c0.1,0.4,0.1,0.8,0.2,1.2
				C103.2,46.6,103.1,46.7,103.1,46.7C103.1,46.7,103.1,46.7,103.1,46.7L103.1,46.7z M102.6,44.3c0,0-0.1,0-0.1-0.1
				c-0.1-0.4-0.2-0.8-0.3-1.2c0-0.1,0-0.1,0.1-0.1s0.1,0,0.1,0.1c0,0,0,0,0,0c0.1,0.4,0.2,0.8,0.3,1.2
				C102.7,44.3,102.7,44.3,102.6,44.3C102.7,44.3,102.7,44.3,102.6,44.3L102.6,44.3z M102.1,42c0,0-0.1,0-0.1-0.1
				c-0.1-0.4-0.2-0.8-0.3-1.2c0-0.1,0-0.1,0.1-0.1c0.1,0,0.1,0,0.1,0.1c0,0,0,0,0,0c0.1,0.4,0.2,0.8,0.3,1.2
				C102.2,41.9,102.2,42,102.1,42C102.1,42,102.1,42,102.1,42L102.1,42z M101.4,39.7c0,0-0.1,0-0.1-0.1c-0.1-0.4-0.3-0.8-0.4-1.1
				c0-0.1,0-0.1,0.1-0.1c0,0,0,0,0,0c0.1,0,0.1,0,0.1,0.1c0,0,0,0,0,0c0.1,0.4,0.3,0.8,0.4,1.1C101.5,39.6,101.5,39.7,101.4,39.7
				C101.4,39.7,101.4,39.7,101.4,39.7L101.4,39.7z"/>
			<path class="st20" d="M100.2,67.3L100.2,67.3c0,0-0.1-0.1-0.1-0.1c0,0,0,0,0,0l0.2-0.6c0,0,0.1,0,0.1,0c0.1,0,0.1,0.1,0.1,0.1
				c-0.1,0.2-0.2,0.4-0.3,0.6C100.3,67.3,100.3,67.3,100.2,67.3z"/>
			<polygon class="st21" points="67,10.3 53.2,7.3 55.5,5.1 			"/>
			<polygon class="st22" points="67,10.3 55.5,2.2 55.5,6.1 			"/>
			<polygon class="st23" points="67,10.3 55.5,6.1 53.2,7.3 55.4,3.8 			"/>
			<polygon class="st22" points="55.5,6.1 55.5,10.7 67,10.3 			"/>
			<path class="st24" d="M15.8,14.4l-8.1,5.2C7,20.1,6,19.8,5.5,19.1L2,13.7C1.6,13,1.8,12,2.5,11.5l8.1-5.2
				c0.8-0.5,1.8-0.3,2.3,0.5l3.4,5.3C16.8,12.9,16.6,13.9,15.8,14.4z M2.9,12.1c-0.4,0.3-0.6,0.9-0.3,1.3c0,0,0,0,0,0l3.4,5.3
				c0.3,0.4,0.9,0.6,1.3,0.3c0,0,0,0,0,0l8.1-5.2c0.4-0.3,0.6-0.9,0.3-1.3c0,0,0,0,0,0l-3.4-5.3C12,6.7,11.5,6.6,11,6.9c0,0,0,0,0,0
				L2.9,12.1z"/>
			<path class="st24" d="M5.4,10.5c-0.3,0.2-0.8,0.1-1-0.2c0,0,0,0,0,0l-0.7-1C3.5,9,3.6,8.6,3.9,8.3c0,0,0,0,0,0l3.2-2.1
				c0.3-0.2,0.8-0.1,1,0.2c0,0,0,0,0,0l0.6,1c0.2,0.3,0.1,0.8-0.2,1s-0.8,0.1-1-0.2L7.4,7.8l-2,1.3l0.3,0.4
				C5.8,9.9,5.7,10.3,5.4,10.5C5.4,10.5,5.4,10.5,5.4,10.5z"/>
			<path class="st24" d="M9.4,13.2L9.4,13.2l-5.3,1.9c-0.2,0.1-0.4,0-0.4-0.2c0,0,0,0,0,0c0-0.2,0-0.3,0.2-0.4L9,12.6l3.8-3.9
				c0.1-0.1,0.4-0.1,0.5,0c0.1,0.1,0.1,0.4,0,0.5l0,0L9.4,13.2C9.5,13.2,9.4,13.2,9.4,13.2z"/>
			<path class="st24" d="M8.3,12.3L8.9,12c0.2-0.2,0.6-0.1,0.7,0.2l0.4,0.6c0.2,0.2,0.1,0.6-0.2,0.7l-0.6,0.4
				c-0.2,0.2-0.6,0.1-0.7-0.2L8.2,13C8,12.8,8.1,12.5,8.3,12.3z"/>
			<path class="st25" d="M99.8,49.1h-5.4v-5.4C97.4,43.7,99.8,46.1,99.8,49.1z"/>
			<path class="st26" d="M94.5,54.8c-3.2,0-5.7-2.6-5.7-5.7c0-3.2,2.6-5.7,5.7-5.7c3.2,0,5.7,2.6,5.7,5.7c0,0,0,0,0,0
				C100.2,52.2,97.6,54.8,94.5,54.8z M94.5,44.1c-2.8,0-5,2.2-5,5s2.2,5,5,5c2.8,0,5-2.2,5-5S97.3,44.1,94.5,44.1z"/>
			<path class="st26" d="M97.4,49.4h-3.8c-0.2,0-0.4-0.2-0.4-0.4s0.2-0.4,0.4-0.4l0,0h3.8c0.2,0,0.4,0.2,0.4,0.4
				S97.6,49.4,97.4,49.4z"/>
			<path class="st26" d="M94.5,50.3c-0.2,0-0.4-0.2-0.4-0.4l0,0v-5.3c0-0.2,0.2-0.3,0.4-0.3c0.2,0,0.3,0.1,0.3,0.3v5.3
				C94.8,50.1,94.7,50.3,94.5,50.3z"/>
			<path class="st26" d="M94.5,53.8c-0.2,0-0.4-0.2-0.4-0.4l0,0V53c0-0.2,0.1-0.4,0.3-0.4c0.2,0,0.4,0.1,0.4,0.3c0,0,0,0.1,0,0.1
				v0.4C94.8,53.6,94.7,53.8,94.5,53.8z"/>
			<path class="st26" d="M98.8,49.4h-0.4c-0.2,0-0.4-0.2-0.4-0.4s0.2-0.4,0.4-0.4h0.4c0.2,0,0.4,0.2,0.4,0.4S99,49.4,98.8,49.4z"/>
			<path class="st26" d="M90.6,49.4h-0.4c-0.2,0-0.4-0.2-0.4-0.4s0.2-0.4,0.4-0.4l0,0h0.4c0.2,0,0.4,0.2,0.4,0.4
				S90.7,49.4,90.6,49.4z"/>
			<path class="st24" d="M89.3,68.1c-0.3-0.1-3.7-1.8-3.7-1.8l-2.4,3.6l-2.9-0.6l-1.2-4.7l-4.4,0.4l-0.2,3.8l-2.9,1.2l-3-2.7
				l-2.8,1.7L67,73l-2.6,3l-3.9-0.8l-1.6,2.9L62,81l-1,3.9L57.1,86v3.4l3.9,0.8l1.5,3.7l-2.6,3.1l2.2,2.9l3.8-1.5l3.2,2.6l-0.8,4
				c0,0,2.7,1.3,2.9,1.4l2.4-3.5l3.4,0.4l0.9,4.2l4.1-0.1l0.3-4.8c0,0,2.6-1.3,3.5-1.6l3.8,4.4l2.6-1.4c0.2-0.1,0.4-0.3,0.6-0.5
				l-2.5-5l2-2.7l4.5,1.4c0,0,0.5-0.9,1-1.8s0.8-1.9,0.8-1.9l-4-2.6l0.8-3.3l5.4-1.3c0-0.3,0-0.5,0-0.8c-0.2-1-0.4-2-0.6-2.9
				l-5.8-0.1c-0.3-0.9-1-3.7-1-3.7l3.5-3.3l-1.8-2.9l-4.7,1.6l-2.5-2.4L89.3,68.1z"/>
			<circle class="st27" cx="78.3" cy="87.1" r="9.7"/>
			<circle class="st24" cx="78.3" cy="87.1" r="8.1"/>
			<path class="st28" d="M75.1,51.6c0-0.4,0-0.8,0-1.2l-1-4.7l-10-0.1c-0.5-1.5-1.7-5.9-1.7-5.9l6.1-5.3l-3.2-4.6l-8.1,2.6l-4.4-3.8
				l2.8-6.2c-0.5-0.1-6.4-2.8-6.4-2.8l-4.1,5.7l-5-0.9l-2-7.5l-7.6,0.7l-0.4,6l-5.1,1.9l-5.2-4.3l-4.8,2.8l2,6.2L12.8,35L6,33.8
				l-2.7,4.7L8.6,43l-1.8,6.3L0.1,51L0,56.4l6.8,1.3l2.5,5.9l-4.5,5l3.8,4.6l6.5-2.4l5.5,4.2l-1.3,6.4c0,0,4.7,2,5,2.3l4.1-5.5
				l5.8,0.7l1.6,6.7l7.1-0.1l0.5-7.7c0,0,4.4-2,6-2.6l6.5,7l4.5-2.3c0.4-0.2,0.7-0.5,1-0.8l-4.3-8l3.5-4.3l7.8,2.3
				c0,0,0.9-1.4,1.7-2.9c0.7-1.6,1.3-3.1,1.3-3.1l-6.9-4.1l1.3-5.2L75.1,51.6z M56.8,51.3c0,11.3-9.2,20.5-20.5,20.5
				c-11.3,0-20.5-9.2-20.5-20.5s9.2-20.5,20.5-20.5c0,0,0,0,0,0C47.7,30.9,56.8,40,56.8,51.3z"/>
			<path class="st29" d="M38.5,42.4c-0.5-1.6,0.4-3.3,2-3.7c5.8-1.7,16.2-5.8,17.8-6.3c3.9-1.3,16.3-9.1,16.3-9.8
				c-0.1-1.3,1.7-1.1,1.7-1.1l-0.8,4.4c0,0-6.3,9.7-14.3,13.5C57.1,41.1,40.6,46.6,38.5,42.4z"/>
			<path class="st30" d="M26.8,38.8c-5,6.7-5.3,21.8-3.4,27.5c1.9,6.1,21.4,7.1,20,2.5c-2-6.6,4.6-16.7,3.6-26.3
				c-0.2-2.1,0.8-4-0.8-4.7C37.4,34.2,29.3,35.6,26.8,38.8z"/>
			<path class="st29" d="M74.5,23.4c0.1-1.6,0.6-3.2,1.5-4.5c0.5-0.6,4-2.7,3.2-0.9c-0.6,1.2-1.7,2.5-1.9,3.7
				c-0.1,0.8-0.3,1.6-0.5,2.4c-0.3,0.6-1.7,1.8-2.4,1.3S74.5,24.1,74.5,23.4z"/>
			<path class="st31" d="M33.3,20c1.8-2.3,11.9-3.4,13.5,0.9c0.8,2.2-3.6,3.8-3.6,3.8s-5.4,6.1-6.7,6.3S31.5,22.4,33.3,20z"/>
			<path class="st32" d="M37,27.1c0.3,2.2-0.8,5.1-2,7c-0.6,1.1-1.7,1.7-1.4,1.9c1.7,0.6,3.1,1.7,4.1,3.2c1.5,2.3,2.8,2.7,3.7,2.5
				c1.3-0.6,1.9-2.2,1.3-3.5c-0.9-1.6-1.1-3.6-0.6-5.4C42.6,30.2,37,27.1,37,27.1z"/>
			<path class="st29" d="M45.5,22c2.1,3.7,0.6,12-1.9,12.4c-1.7,0.2-6.1-2.4-6-6.4c-2,0.3-2.1-4.4-0.2-1.8
				C37.2,22.8,42.5,23.2,45.5,22z"/>
			<path class="st30" d="M42,36.4l7.3-1.6L50.5,45c-4.3,1.1-5.4,6.7-6.2,8.8c-0.5-0.4-1.1-0.8-1.7-1L42,36.4z"/>
			<path class="st29" d="M37.7,50.1c1.7,4.1,4.1,7.9,6.9,11.4c1.7,1.9,16.2,9.8,18,10.7S62,73.4,61,73.6s-12.8,0.5-20.9-6
				c-3.3-2.6-7.7-8.1-10.7-13.6C27.6,50.6,36.6,47.5,37.7,50.1z"/>
			<path class="st29" d="M60.2,70.9c1.9,0.3,9.2,5.3,8.5,6.2c-0.4,0.5-2.6-1.6-3.5-1.6c1.2,0.7,2.9,3.1,2.5,3.7
				c-1.1,0.8-2.6,1-3.9,0.5c-0.9-0.4-1.6-1.2-1.9-2.1c-0.7-1.5-3.8-3.2-3.3-5.2C58.7,71.8,60.2,70.9,60.2,70.9z"/>
			<path class="st33" d="M41.8,34.1c-0.8-0.4-1.6-1-2.3-1.6c-0.6-0.6-1.1-1.3-1.5-2c0.3,0.9,0.7,1.7,1.3,2.4
				c0.7,0.7,1.5,1.3,2.4,1.7L41.8,34.1z"/>
			<path class="st34" d="M97.3,10.8c-0.2,0-2.4-1.2-2.4-1.2L93.3,12l-1.9-0.4l-0.8-3.1l-2.9,0.3l-0.2,2.5l-2,0.8l-2-1.8l-1.8,1.2
				l0.7,2.6l-1.7,2l-2.6-0.5l-1,1.9l2,1.9l-0.7,2.6L76,22.6v2.2l2.6,0.5l1,2.4l-1.7,2.1l1.4,1.9l2.5-1l2.1,1.7l-0.5,2.6
				c0,0,1.8,0.8,1.9,0.9l1.5-2.3l2.2,0.3l0.6,2.8h2.7l0.2-3.2c0,0,1.7-0.8,2.3-1.1l2.5,2.9l1.7-1c0.1-0.1,0.3-0.2,0.4-0.3l-1.6-3.3
				l1.3-1.8l3,0.9c0,0,0.3-0.6,0.7-1.2s0.5-1.3,0.5-1.3l-2.6-1.7l0.5-2.2l3.6-0.8c0-0.2,0-0.3,0-0.5c-0.1-0.6-0.3-1.3-0.4-1.9
				l-3.8,0c-0.2-0.6-0.6-2.5-0.6-2.5l2.3-2.2l-1.2-1.9L98,14.9l-1.7-1.6L97.3,10.8z"/>
			<circle class="st27" cx="90.1" cy="23.4" r="6.5"/>
			<circle class="st34" cx="90.1" cy="23.4" r="5.4"/>
		</g>
	</g>
</g>
</svg>
